<svg width="127" height="106" viewBox="0 0 127 106" fill="none" xmlns="http://www.w3.org/2000/svg">
<path d="M60.6582 3.41052C61.23 6.87466 61.8487 10.3321 62.5142 13.7829C63.1797 17.2337 63.8933 20.6752 64.6549 24.1075C65.0837 26.0492 65.529 27.9888 65.9906 29.9263C66.0074 30.036 66.053 30.1409 66.1237 30.2326C66.1945 30.3243 66.2885 30.4004 66.3984 30.4549C66.6909 30.6016 67.0247 30.6732 67.3615 30.6614C67.699 30.6653 68.0305 30.5834 68.3159 30.4256C68.4916 30.3116 68.7553 30.1051 68.7026 29.8847C67.8894 26.4576 67.1225 23.0227 66.4019 19.5801C65.6813 16.1375 65.0117 12.6898 64.393 9.237C64.0415 7.28508 63.7035 5.32905 63.3789 3.36891C63.291 2.82649 62.5634 2.61075 62.008 2.63232C61.6704 2.62891 61.3389 2.71134 61.0537 2.86964C60.8674 2.98829 60.6283 3.17783 60.667 3.41052H60.6582Z" fill="#87226C"/>
<path d="M88.3181 0.991653C88.4468 5.55574 88.3072 10.1226 87.8998 14.6741C87.7827 15.9459 87.6473 17.2152 87.4938 18.4819C87.427 19.0289 88.1055 19.519 88.638 19.6731C89.0792 19.7994 89.9193 19.8549 89.9896 19.2832C90.5485 14.7437 90.8418 10.182 90.8683 5.61616C90.8683 4.34228 90.8531 3.06737 90.8227 1.79143C90.8068 1.23205 90.269 0.771292 89.6802 0.601783C89.4025 0.521652 89.0616 0.447684 88.7786 0.546308C88.5695 0.617193 88.3216 0.765128 88.3269 0.991653H88.3181Z" fill="#87226C"/>
<path d="M91.0482 50.304C92.3857 52.8266 93.7232 55.3523 95.2013 57.8148C95.9201 59.0075 96.6706 60.1863 97.472 61.3375C98.2735 62.4886 99.1189 63.5734 99.9678 64.6783C100.946 65.9045 101.82 67.1921 102.583 68.5308L102.448 68.2812C103.067 69.402 103.496 70.596 103.722 71.8254L103.674 71.548C103.824 72.4022 103.828 73.2709 103.687 74.1261L103.738 73.8487C103.696 74.0737 103.645 74.2972 103.583 74.5175C103.545 74.6564 103.539 74.8006 103.566 74.9415C103.593 75.0824 103.652 75.217 103.74 75.3373C103.828 75.4577 103.943 75.5612 104.077 75.6417C104.212 75.7222 104.364 75.778 104.523 75.8058C105.142 75.9183 106.023 75.7041 106.197 75.0846C107.137 71.7391 105.703 68.4168 103.736 65.5767C102.789 64.2052 101.715 62.9062 100.718 61.5701C99.7217 60.2341 98.7744 58.7964 97.8974 57.3663C96.9079 55.7159 95.9764 54.064 95.073 52.3966L95.2083 52.6463C94.6892 51.6878 94.1754 50.7262 93.6669 49.7616C93.5513 49.4936 93.3291 49.2714 93.0412 49.1359C92.7181 48.9929 92.3481 48.9537 91.9955 49.025C91.6663 49.0897 91.3762 49.2594 91.1817 49.5011C91.0288 49.7246 90.9058 50.0497 91.0411 50.304H91.0482Z" fill="#87226C"/>
<path d="M97.3682 71.0126C97.2698 74.1655 97.1643 77.3178 97.0518 80.4697C96.9394 83.6215 96.8175 86.7728 96.6863 89.9236C96.6511 90.7938 96.6148 91.667 96.5773 92.5433C96.5671 93.3595 96.4978 94.1742 96.3699 94.9827L96.3963 94.8486C96.2993 95.4107 96.0968 95.9549 95.7969 96.459C95.7284 96.5687 95.6533 96.6752 95.572 96.7779C95.5474 96.8088 95.4507 96.9151 95.528 96.8319C95.4788 96.8843 95.4296 96.9367 95.3786 96.986C95.2898 97.0723 95.1959 97.1546 95.0974 97.2325C95.0412 97.2788 94.9797 97.3204 94.9217 97.3635C94.9041 97.3774 94.8197 97.4436 94.9217 97.3712C95.0236 97.2988 94.9094 97.3712 94.8848 97.3928C94.7776 97.456 94.6633 97.5099 94.5508 97.5669C94.4384 97.6239 94.6721 97.5161 94.6651 97.5176C94.6341 97.5267 94.6042 97.538 94.5754 97.5515L94.4876 97.5823C94.3241 97.6394 94.6018 97.5561 94.6176 97.5454C94.5772 97.5716 94.2661 97.6162 94.5491 97.5654C94.9129 97.4991 94.2854 97.5823 94.6545 97.5515C95.0236 97.5207 94.4208 97.5407 94.7442 97.5515C94.9832 97.5515 94.702 97.5361 94.6528 97.5407C94.6422 97.5407 94.8971 97.5823 94.7899 97.5592L94.7108 97.5454C94.658 97.5364 94.6058 97.5251 94.5543 97.5114C94.5213 97.5001 94.4872 97.4913 94.4524 97.4853C94.4524 97.4853 94.6387 97.5515 94.5543 97.5161C94.5016 97.4914 94.4436 97.476 94.3891 97.4529C94.2965 97.4141 94.2067 97.3704 94.1202 97.3219C94.0482 97.2818 94.0165 97.2495 94.1062 97.3219C94.0605 97.288 94.0113 97.2572 93.9656 97.2233C93.5723 96.9126 93.2533 96.5365 93.027 96.1169L93.0973 96.2386C92.7337 95.5568 92.4782 94.8346 92.3381 94.092C92.1236 93.0765 91.9742 92.0471 91.7967 91.027L90.635 84.3761L89.9864 80.6484L87.3026 80.9859C87.9916 84.0324 88.1322 87.25 87.5259 90.3181L87.554 90.1856C87.4492 90.7563 87.2724 91.315 87.0267 91.8514C86.9007 92.1147 86.7478 92.3674 86.5697 92.6065C86.5311 92.6589 86.4889 92.7113 86.4467 92.7606L86.3624 92.8515C86.2662 92.9507 86.1635 93.0449 86.0548 93.1335C85.9487 93.1975 85.8498 93.2703 85.7595 93.3508C85.7736 93.3338 85.9353 93.2444 85.7964 93.3246L85.7173 93.3708C85.6541 93.4063 85.5908 93.4402 85.524 93.4725C85.4572 93.5049 85.2604 93.5943 85.4273 93.5203C85.5943 93.4463 85.3939 93.5295 85.3535 93.5449L85.2639 93.5742C85.0881 93.6389 85.3869 93.5357 85.3975 93.5388C85.3245 93.5458 85.2533 93.5629 85.1865 93.5896C85.06 93.6204 85.3975 93.5403 85.3869 93.5542C85.3468 93.5639 85.3055 93.5695 85.2639 93.5711C85.0442 93.605 85.6013 93.5573 85.3781 93.5711H85.2867C85.1637 93.5804 85.473 93.5804 85.4625 93.5711C85.3822 93.5561 85.3001 93.5504 85.2182 93.5542C85.2182 93.5542 85.4642 93.5973 85.3518 93.5711L85.2621 93.5542C85.2322 93.5542 85.002 93.4848 85.1373 93.528C85.2727 93.5711 85.0793 93.5049 85.0477 93.4925C84.9718 93.4629 84.8978 93.4294 84.8263 93.3924C84.7823 93.3693 84.6347 93.283 84.7507 93.3569C84.6853 93.3153 84.6225 93.2705 84.5626 93.2229C84.4483 93.1347 84.3419 93.0389 84.2445 92.9362C84.0389 92.7186 83.8621 92.4814 83.7172 92.2289L83.7875 92.3491C83.4711 91.7511 83.2249 91.1263 83.0529 90.4845C82.8115 89.6863 82.6006 88.8814 82.4201 88.0698C82.0635 86.4725 81.824 84.8568 81.7031 83.2326C81.6339 82.2988 81.6041 81.3629 81.6134 80.425L78.9296 80.7732L79.2811 85.4779L79.4569 87.8125C79.5079 88.5044 79.6028 89.2117 79.4745 89.902L79.5079 89.7695C79.4404 90.0895 79.307 90.396 79.1142 90.6741C79.0667 90.7311 79.0738 90.7249 79.137 90.6525C79.1162 90.6766 79.0939 90.6998 79.0702 90.7218C79.0245 90.7681 78.9771 90.8097 78.9279 90.8513C78.8787 90.8929 78.8172 90.9237 78.7732 90.9653C78.9015 90.8852 78.9244 90.8698 78.8453 90.9176L78.7591 90.9653C78.666 91.0131 78.4639 91.0609 78.7961 90.9653C78.7345 90.9838 78.6678 91.0085 78.608 91.0316C78.9911 90.8775 78.7978 90.9807 78.6765 91.0069C78.3725 91.0747 78.9964 90.9638 78.7767 90.99L78.673 91.0023C78.5359 91.0162 78.6045 91.0023 78.8769 90.9854H78.6642C78.4551 90.9854 79.0316 91.0039 78.7258 90.9854C78.6625 90.9854 78.5992 90.9746 78.5377 90.9699C78.2881 90.9484 78.7785 91.0131 78.5799 90.9699C78.5096 90.9561 78.4375 90.9438 78.3672 90.9283C78.2969 90.9129 78.2266 90.8929 78.1563 90.8744C77.9999 90.8359 78.3637 90.9468 78.1247 90.8636C77.9885 90.8159 77.8559 90.7608 77.7275 90.6987C77.6642 90.6679 77.6009 90.6356 77.5394 90.6017C77.5043 90.5832 77.3162 90.4553 77.4709 90.5631C76.9384 90.1786 76.5047 89.6997 76.1984 89.1578L76.2669 89.2779C75.694 88.2778 75.4514 87.1699 75.2124 86.0788L74.3336 81.9721L73.831 79.636C73.794 79.4634 73.541 79.3848 73.381 79.3494C72.7347 79.242 72.0659 79.3289 71.4829 79.5959C71.3194 79.6899 71.1472 79.7947 71.1472 79.9858L71.1261 87.7308L71.2684 87.4657C71.2175 87.5073 71.0716 87.5906 71.286 87.4657C71.1349 87.5536 71.5004 87.3918 71.3809 87.4318C71.3212 87.4534 71.3493 87.4457 71.4635 87.4103C71.5801 87.3716 71.7017 87.3457 71.8256 87.3332L72.0839 87.3132C71.9943 87.3132 72.0154 87.3132 72.1454 87.3132C72.2755 87.3132 72.2948 87.3132 72.2052 87.3132L72.381 87.3363C72.3423 87.3533 72.2614 87.2901 72.2228 87.2993C72.2773 87.287 72.4179 87.3733 72.2632 87.2993L72.1314 87.2438C72.04 87.2022 71.9556 87.1529 71.8695 87.1052C72.0066 87.1822 71.8379 87.082 71.8221 87.0697C71.8062 87.0574 71.7377 87.0112 71.699 86.9788C71.5273 86.8475 71.3686 86.7036 71.2245 86.5488C70.9451 86.2298 70.697 85.8906 70.4828 85.5349C70.2321 85.1486 69.9919 84.7572 69.7622 84.3607L69.8325 84.4824C68.6691 82.4495 67.8062 80.2947 67.2647 78.0703C66.4152 74.5871 66.3353 70.9934 67.0292 67.4837L67.0028 67.6178C67.5121 65.0293 68.46 62.5222 69.8149 60.1794C69.9046 60.0253 69.7587 59.8959 69.6181 59.8281C69.3547 59.7348 69.0697 59.6978 68.7868 59.7202C68.435 59.7279 68.0875 59.79 67.7603 59.9036C67.5512 59.9837 67.3034 60.0808 67.1926 60.2688C65.9101 62.4779 64.9923 64.8355 64.4667 67.2711C63.9238 69.744 63.76 72.2694 63.9798 74.7803C64.1991 77.2542 64.7998 79.6906 65.7655 82.023C66.267 83.2218 66.8655 84.3877 67.5565 85.5118C68.1751 86.5257 68.8588 87.7138 70.1717 88.1407C70.7392 88.32 71.3485 88.373 71.9451 88.2948C72.5452 88.2409 73.1157 88.039 73.5902 87.7123C73.6923 87.6458 73.7674 87.5524 73.8046 87.4457C73.8234 87.3475 73.8281 87.2476 73.8187 87.1483V86.5319V85.3823L73.831 80.7809V79.6298L71.1472 79.9796L72.4601 86.0819C72.8116 87.6861 73.1227 89.4629 74.4092 90.7265C75.7994 92.0903 78.1809 92.2521 80.0545 91.6803C80.9174 91.4153 81.7066 90.879 82.0159 90.1055C82.3674 89.2255 82.2075 88.247 82.1389 87.3409L81.6169 80.425C81.6046 80.257 81.3006 80.1676 81.167 80.1368C80.8474 80.0755 80.517 80.0703 80.1951 80.1214C79.8689 80.1522 79.5535 80.2419 79.2688 80.3849C79.1054 80.4789 78.9349 80.5837 78.9331 80.7732C78.911 82.993 79.1104 85.2102 79.529 87.3995C79.7387 88.4936 80.0023 89.5779 80.3199 90.6525C80.5747 91.5155 80.8471 92.3923 81.392 93.1535C82.8543 95.203 86.2938 94.8101 88.2113 93.4941C90.0251 92.2474 90.287 89.9683 90.4645 88.1006C90.6999 85.6063 90.5367 83.0954 89.9794 80.6407C89.9408 80.4681 89.6912 80.3911 89.5295 80.3541C89.2094 80.2916 88.8784 80.2858 88.5558 80.3371C88.2304 80.3689 87.9158 80.4586 87.6313 80.6006C87.4854 80.6838 87.264 80.8087 87.2956 80.989L89.0883 91.2982L89.5312 93.847C89.6246 94.4357 89.7668 95.0177 89.9566 95.5883C90.3292 96.6562 90.9795 97.7888 92.2098 98.2604C93.2133 98.6472 94.3997 98.641 95.4437 98.379C96.3669 98.1669 97.1987 97.7216 97.8357 97.0985C99.0291 95.8765 99.1644 94.26 99.2312 92.719C99.3824 89.2631 99.5212 85.8066 99.6478 82.3497C99.7743 78.8927 99.8915 75.4327 99.9993 71.9696C100.013 71.5335 100.026 71.0974 100.04 70.6628C100.04 70.4979 99.704 70.4024 99.5898 70.3746C99.2695 70.3133 98.9386 70.308 98.6161 70.3592C98.2905 70.3903 97.9757 70.48 97.6916 70.6227C97.5246 70.7167 97.3612 70.82 97.3559 71.0111L97.3682 71.0126Z" fill="#87226C"/>
<path d="M45.5129 47.3834C49.0069 44.8007 51.8085 41.4799 54.016 37.9834C56.2516 34.4499 57.9142 30.6036 60.83 27.4323C62.2835 25.8497 64.0341 24.4628 66.1203 23.5536C66.2785 23.4842 65.3223 22.6814 65.2415 22.629C65.005 22.4386 64.7497 22.2669 64.4787 22.1158C64.3803 22.0635 64.1975 21.9356 64.078 21.9879C60.25 23.6553 57.6858 26.8251 55.705 30.0396C54.5538 31.9088 53.5467 33.8428 52.4078 35.7182C51.3207 37.5158 50.0786 39.2379 48.6923 40.8697C47.1755 42.687 45.4258 44.3457 43.4776 45.8132C43.3019 45.938 44.2545 46.67 44.3564 46.7378C44.5934 46.9272 44.8486 47.0984 45.1192 47.2494C45.1965 47.291 45.4285 47.4451 45.5199 47.3773L45.5129 47.3834Z" fill="#87226C"/>
<path d="M65.1674 32.4367C67.4311 31.7355 69.5613 30.7293 71.593 29.612C73.5843 28.5164 75.4931 27.3114 77.4334 26.1495C78.4001 25.5716 79.3667 25.0045 80.3738 24.4682C80.8659 24.2047 81.3651 23.9474 81.8712 23.6977C82.1226 23.576 82.3739 23.4558 82.6288 23.3402L82.9803 23.1861L83.156 23.1091C83.2211 23.0798 83.3564 23.0274 83.0594 23.1507L83.1771 23.0998C84.1906 22.6694 85.2393 22.3058 86.3144 22.0119C86.8592 21.8578 87.4128 21.7391 87.97 21.6374C88.1106 21.6112 88.2529 21.5789 88.3936 21.565C88.4111 21.565 88.1176 21.6066 88.2477 21.5881L88.3461 21.5727L88.5763 21.5404C88.8821 21.5003 89.188 21.4648 89.4973 21.4448C89.6467 21.4356 89.7961 21.4279 89.9472 21.4263C90.0334 21.4263 90.123 21.4263 90.2091 21.4263H90.3198C90.4815 21.4263 90.0562 21.4032 90.2161 21.4263C90.3761 21.4494 90.5079 21.4556 90.6538 21.4787C90.7241 21.491 90.7961 21.5049 90.8664 21.5203C90.9367 21.5357 91.0826 21.5773 90.877 21.5203C90.6714 21.4633 90.8418 21.5095 90.877 21.5203C91.0141 21.565 91.1406 21.6236 91.2724 21.6744C91.4043 21.7253 91.1195 21.5974 91.1195 21.5927C91.1465 21.6118 91.1753 21.6288 91.2056 21.6436C91.2724 21.6837 91.3322 21.7299 91.3972 21.773C91.3972 21.773 91.4623 21.8254 91.464 21.8239C91.4658 21.8224 91.2373 21.6189 91.3111 21.6945C91.348 21.733 91.392 21.7684 91.4306 21.8085C91.4693 21.8485 91.5062 21.8871 91.5413 21.9287L91.5941 21.9903C91.7206 22.1352 91.4464 21.7684 91.5202 21.8886C91.5747 21.9811 91.6345 22.0689 91.6855 22.1645C91.7101 22.2107 91.7276 22.2615 91.754 22.3078C91.8138 22.4141 91.6784 22.1383 91.696 22.1537C91.7128 22.1857 91.7252 22.2193 91.7329 22.2538C91.7698 22.3648 91.8015 22.4757 91.8261 22.5898C91.8366 22.6422 91.8472 22.6946 91.8559 22.7439L91.8665 22.824C91.8911 22.9781 91.8454 22.7192 91.8559 22.7115C91.844 22.8286 91.8476 22.9465 91.8665 23.0628C91.8665 23.1815 91.8524 23.2986 91.8384 23.4157C91.8384 23.4712 91.8208 23.5251 91.812 23.5791C91.7856 23.7455 91.8735 23.3371 91.812 23.556C91.7837 23.671 91.7484 23.7847 91.7065 23.8965C91.6132 24.1384 91.4956 24.3725 91.355 24.5961L91.5009 24.3573C91.0623 25.0297 90.5067 25.638 89.8541 26.1602L90.0773 25.9738C88.8136 27.0216 87.4199 27.9617 86.0806 28.9371L81.7886 32.0668L79.3281 33.8575L81.2614 35.4878C81.7215 34.9794 82.2206 34.499 82.7553 34.0501L82.5321 34.2366C83.3135 33.5883 84.166 33.0092 85.077 32.5076C85.3002 32.3858 85.5252 32.2687 85.7555 32.1562C85.9857 32.0437 86.237 31.9574 86.4585 31.8326C86.1896 31.9867 86.3601 31.8758 86.4409 31.8326L86.636 31.754C86.745 31.7093 86.8539 31.6677 86.9629 31.6261C87.216 31.5306 87.4708 31.4397 87.7274 31.3564C88.2309 31.192 88.7436 31.05 89.2635 30.9311C89.5078 30.8757 89.7521 30.8264 89.9964 30.777L90.1722 30.7462L90.2425 30.7339L90.1529 30.7478C90.3116 30.7433 90.4692 30.7221 90.6221 30.6846C90.9136 30.6497 91.2069 30.6281 91.5009 30.6199C91.6327 30.6199 91.7646 30.6199 91.8964 30.6199C91.9878 30.6199 92.2303 30.6676 91.8841 30.6199C91.9596 30.6306 92.0405 30.6337 92.1178 30.6414C92.2727 30.6597 92.4264 30.6849 92.5783 30.7169L92.7277 30.7508C93.0019 30.8094 92.4359 30.6491 92.6961 30.7431C92.8173 30.7863 92.9386 30.8264 93.0476 30.8772C93.1056 30.9019 93.1601 30.9327 93.2233 30.9573C92.8138 30.7817 93.0774 30.8803 93.1811 30.9481L93.2848 31.0174C93.3868 31.0899 93.5573 31.2871 93.2638 30.9866C93.3481 31.0729 93.4395 31.1515 93.5221 31.2409C93.5608 31.2856 93.5942 31.3364 93.6364 31.378C93.4026 31.1376 93.5204 31.2239 93.5836 31.3164C93.6153 31.3657 93.6434 31.415 93.6715 31.4705C93.6996 31.526 93.7945 31.7432 93.7137 31.5383C93.6328 31.3333 93.7137 31.5229 93.7137 31.5599C93.736 31.6299 93.7542 31.7009 93.7682 31.7725C93.7682 31.8095 93.7963 31.9929 93.7682 31.7972C93.7401 31.6015 93.7682 31.8342 93.7682 31.8758C93.7682 31.9174 93.7559 31.9836 93.7523 32.0391C93.7348 32.2302 93.8332 31.8064 93.7523 31.9898C93.7041 32.1217 93.6454 32.2504 93.5766 32.375L93.7242 32.1362C93.5632 32.3829 93.3605 32.6068 93.1231 32.8004L93.3464 32.6139C92.8461 32.9902 92.3176 33.3366 91.7646 33.651L89.8822 34.8113L86.1193 37.1228L84.0084 38.4558C83.453 38.7979 83.4812 39.5221 83.9065 39.9428C84.3828 40.4128 85.0788 40.5777 85.7185 40.2726C87.4603 39.4405 89.1915 38.5852 90.949 37.7793L91.239 37.6483C91.3832 37.5836 91.0369 37.7315 91.1846 37.6714C91.2338 37.6529 91.2812 37.6314 91.3304 37.6113C91.5396 37.5281 91.7505 37.4495 91.9667 37.3802C92.1794 37.3112 92.3966 37.2531 92.617 37.206L92.7716 37.1768C92.9298 37.1444 92.5361 37.2045 92.6978 37.1891C92.8156 37.1783 92.9333 37.1629 93.0493 37.1567C93.1653 37.1506 93.2638 37.1567 93.3692 37.1567C93.559 37.1567 93.2444 37.1567 93.2286 37.1459C93.2697 37.1535 93.3114 37.1577 93.3534 37.1583C93.4368 37.1676 93.5195 37.181 93.6012 37.1983L93.7242 37.2245C93.9615 37.2723 93.4131 37.1182 93.6381 37.2014C93.7945 37.2584 93.9422 37.3247 94.0968 37.3879C93.7049 37.2338 93.9316 37.3 94.0476 37.374C94.1302 37.4249 94.2023 37.4988 94.2884 37.5451C94.2884 37.5451 94.0265 37.3031 94.1566 37.4372C94.19 37.4711 94.2251 37.5035 94.2568 37.5374L94.3306 37.6206C94.487 37.7916 94.2603 37.5204 94.2603 37.5204C94.317 37.5913 94.3614 37.6692 94.3921 37.7516C94.3921 37.7623 94.2954 37.4572 94.3411 37.6283C94.3534 37.6699 94.3675 37.7115 94.378 37.7546C94.3946 37.7962 94.4029 37.84 94.4027 37.8841C94.4167 37.8394 94.3868 37.6129 94.3868 37.7962C94.3895 37.8383 94.3895 37.8805 94.3868 37.9226C94.3728 38.0859 94.3622 37.9704 94.4062 37.8887C94.3552 37.9827 94.3411 38.1029 94.2972 38.1969C94.2533 38.2909 94.1935 38.4003 94.1355 38.5051L94.2814 38.2662C93.8139 39.0044 93.1284 39.6531 92.4957 40.2865C91.863 40.9198 91.1705 41.547 90.464 42.1357L90.6872 41.9492C89.0985 43.2718 87.3654 44.4543 85.5129 45.4796L87.223 47.2964L91.6169 44.8478L92.7136 44.2314L93.2409 43.9355C93.3903 43.8523 93.566 43.7814 93.7067 43.6936C93.6908 43.7044 93.4395 43.7999 93.6188 43.7321L93.7137 43.6951C93.7875 43.6689 93.8631 43.6443 93.9404 43.6227C94.0177 43.6011 94.2515 43.558 94.0424 43.5919C93.7682 43.635 94.3429 43.6104 94.0424 43.5919C93.8279 43.5749 93.9597 43.5811 94.0002 43.5919C94.1917 43.6366 93.8437 43.541 93.8437 43.5395C93.8437 43.538 93.9457 43.5919 93.9527 43.5827C93.9597 43.5734 93.6715 43.4286 93.777 43.4933C93.8824 43.558 93.6117 43.3546 93.6328 43.3731C93.7717 43.4933 93.566 43.2775 93.5555 43.2637C93.6082 43.3361 93.5819 43.4178 93.5239 43.1543C93.5239 43.1928 93.5485 43.2298 93.559 43.2683C93.5628 43.3078 93.5704 43.347 93.5819 43.3854C93.6128 43.5366 93.7092 43.6715 93.8509 43.7617C93.9926 43.852 94.1687 43.8907 94.3422 43.8698C94.5158 43.8488 94.6733 43.7698 94.782 43.6493C94.8906 43.5288 94.9418 43.3761 94.9249 43.2232C94.908 43.0703 94.8244 42.9291 94.6914 42.8291C94.5585 42.7291 94.3865 42.678 94.2116 42.6866C94.0367 42.6953 93.8724 42.7629 93.753 42.8753C93.6337 42.9877 93.5686 43.1363 93.5713 43.2899C93.5713 43.3762 93.5713 43.4625 93.5713 43.5503C93.5713 43.6381 93.552 43.726 93.5414 43.8153C93.5168 43.9895 93.5414 43.7691 93.559 43.746C93.5446 43.7886 93.5329 43.8318 93.5239 43.8754C93.4126 44.2435 93.2497 44.5981 93.0388 44.931L93.1864 44.6922C92.5098 45.7709 91.573 46.7417 90.6661 47.674C89.7803 48.5852 88.8417 49.456 87.854 50.2829L88.079 50.0964C85.8976 51.9078 83.4944 53.5021 80.9134 54.8504C80.2701 55.1873 79.6169 55.5089 78.9537 55.815C78.6285 55.9691 78.2981 56.1094 77.9695 56.2542C78.2858 56.1155 78.0011 56.2403 77.922 56.2742L77.6654 56.3806C77.4897 56.453 77.3139 56.5223 77.1381 56.5917C75.7754 57.1361 74.3789 57.6131 72.9551 58.0202C71.3498 58.4782 69.7124 58.8452 68.0533 59.1189C67.9055 59.1598 67.7704 59.23 67.6585 59.3241C67.5467 59.4181 67.461 59.5335 67.4083 59.6613C67.3123 59.9296 67.3407 60.2203 67.4874 60.4703C67.6505 60.753 67.9191 60.9781 68.2484 61.1083C68.5551 61.2153 68.8919 61.2374 69.2133 61.1715C72.0069 60.7108 74.7357 59.9875 77.3526 59.0141C80.0331 58.0202 82.5893 56.786 84.9804 55.3312C87.3769 53.8644 89.5912 52.1811 91.587 50.3091C92.5542 49.4041 93.4642 48.4534 94.313 47.4613C95.3394 46.2609 96.3412 44.8416 96.0706 43.2806C95.9755 42.7566 95.6644 42.2814 95.1963 41.9451C94.7282 41.6088 94.1356 41.4348 93.5309 41.4561C92.6381 41.4946 91.8788 41.9338 91.1476 42.3406L86.6465 44.854L85.5111 45.4873C84.9364 45.8078 84.9979 46.566 85.4092 46.9744C85.8609 47.4197 86.6096 47.6432 87.2213 47.3041C90.3318 45.5773 93.1045 43.422 95.4326 40.9214C96.0987 40.2048 96.7578 39.4651 96.9247 38.5282C97.0741 37.6868 96.6646 36.7977 95.988 36.2044C95.2706 35.5483 94.3133 35.1338 93.2831 35.0332C92.2241 34.9687 91.1642 35.1466 90.2074 35.5495C89.13 35.981 88.0983 36.508 87.0613 37.0042L84.0084 38.4558L85.7185 40.2726L91.9157 36.4556C92.8718 35.8654 93.8789 35.3106 94.7858 34.665C95.2324 34.3697 95.6121 34.0039 95.9054 33.5863C96.2557 33.0563 96.4001 32.4408 96.3166 31.8326C96.1971 30.831 95.4256 29.8509 94.4835 29.2961C93.3516 28.632 92.0018 28.4147 90.6573 28.4979C88.4902 28.632 86.3618 29.2807 84.4513 30.1622C82.3902 31.1194 80.579 32.4425 79.133 34.047C78.7358 34.4862 78.9695 35.1088 79.3843 35.4586C79.7991 35.8084 80.5742 36.0364 81.0663 35.6774L86.1193 31.9929C87.7591 30.7971 89.4165 29.6198 91.0404 28.4039C92.4377 27.353 93.9158 26.0924 94.3025 24.4467C94.512 23.671 94.4902 22.8612 94.2392 22.0951C93.9246 21.2368 93.3604 20.4416 92.4641 19.9562C91.4667 19.4327 90.3081 19.1946 89.1493 19.2751C88.2309 19.3323 87.32 19.4597 86.4268 19.6557C84.8723 19.983 83.3643 20.4616 81.931 21.0827C78.9133 22.3648 76.1768 24.0522 73.4244 25.7211C72.0641 26.547 70.6949 27.3668 69.2783 28.1204C68.5753 28.4948 67.8723 28.8523 67.1359 29.1852C66.9601 29.2638 66.7984 29.3393 66.6279 29.4133C66.598 29.4271 66.3924 29.5134 66.5857 29.4333L66.5418 29.4518L66.2377 29.5782C65.8739 29.7322 65.5066 29.8694 65.134 30.0035C64.7614 30.1375 64.387 30.2623 64.0074 30.381C63.8612 30.4287 63.7284 30.5036 63.6184 30.6005C63.5083 30.6975 63.4236 30.8142 63.3699 30.9427C63.3163 31.0711 63.2951 31.2083 63.3078 31.3446C63.3204 31.481 63.3666 31.6133 63.4432 31.7324C63.7578 32.2425 64.4978 32.6416 65.1674 32.4336V32.4367Z" fill="#87226C"/>
<path d="M43.2211 76.3196C40.6726 74.6246 37.7603 73.3918 34.8199 72.3131C31.9604 71.2637 29.0411 70.3314 26.2694 69.1094C25.5927 68.8119 24.9389 68.493 24.2798 68.1601C24.3747 68.2094 24.6876 68.362 24.2798 68.1601L24.0672 68.0445C23.8949 67.95 23.7244 67.8545 23.5557 67.7579C23.2393 67.574 22.9277 67.3845 22.6207 67.1893C22.0175 66.8024 21.4395 66.3862 20.8895 65.9426C20.828 65.8933 20.77 65.8409 20.7137 65.7885C20.7999 65.861 21.0529 66.0551 20.7137 65.7885C20.5784 65.6699 20.4431 65.5497 20.3113 65.4279C20.0336 65.1691 19.7629 64.904 19.5116 64.6266C19.3797 64.4818 19.2567 64.3307 19.1372 64.1797C19.0353 64.0534 19.2743 64.3801 19.1882 64.246C19.16 64.2028 19.1302 64.1628 19.102 64.1196C19.0405 64.0241 18.9825 63.927 18.9263 63.8284C18.8701 63.7298 18.8507 63.6743 18.8121 63.5957C18.7453 63.4601 18.8824 63.8053 18.8402 63.6635C18.8261 63.6173 18.8085 63.5726 18.7962 63.5264C18.7716 63.4447 18.7523 63.363 18.7365 63.2813C18.722 63.2352 18.7149 63.1875 18.7154 63.1396C18.7277 63.2829 18.733 63.3137 18.7294 63.2336C18.7294 63.1981 18.7294 63.1611 18.7294 63.1257C18.7294 63.0533 18.7294 62.9824 18.7453 62.9115C18.7453 62.8714 18.7576 62.8314 18.7628 62.7913C18.7787 62.6819 18.7365 62.9115 18.7382 62.9069C18.8208 62.7605 18.8472 62.5802 18.9281 62.4276C19.0493 62.2011 18.7945 62.6141 18.9439 62.4014C18.9861 62.3413 19.03 62.2828 19.0774 62.2258C19.1249 62.1687 19.1899 62.0963 19.2532 62.0347C19.2831 62.0039 19.313 61.973 19.3446 61.9438C19.3762 61.9145 19.5309 61.7897 19.3815 61.9052C19.2321 62.0208 19.4377 61.8621 19.4782 61.8313C19.552 61.7773 19.6258 61.7265 19.7031 61.6772C19.8578 61.5788 20.0198 61.4897 20.1882 61.4106C20.2322 61.3932 20.2751 61.3737 20.3165 61.352C20.1408 61.4738 20.1408 61.4229 20.2374 61.389C20.3341 61.3551 20.4132 61.3243 20.5028 61.295C20.6786 61.2364 20.8666 61.1964 21.0529 61.1532C21.1742 61.1255 21.1022 61.0947 20.951 61.1656C21.0125 61.1516 21.0756 61.1433 21.1391 61.1409C21.248 61.1286 21.357 61.1193 21.4677 61.1116C21.7341 61.0993 22.001 61.0993 22.2674 61.1116C22.4643 61.1116 22.2305 61.0962 22.2217 61.1116C22.2689 61.1122 22.3159 61.1163 22.3623 61.1239C22.4889 61.1347 22.6137 61.1486 22.7384 61.1656C22.9898 61.1979 23.2393 61.2395 23.4872 61.2873C24.5013 61.4815 25.489 61.7681 26.475 62.0331L29.5033 62.8422L35.5686 64.4633L37.1065 64.8747L37.219 62.7666C36.2738 62.6932 35.3379 62.5457 34.4227 62.3259L34.0712 62.2365L33.9165 62.1949C33.7496 62.1518 34.1766 62.2704 34.0114 62.2227C33.7671 62.1502 33.5246 62.0686 33.2838 61.9962C32.8526 61.8513 32.4296 61.691 32.0148 61.5154C31.8075 61.4275 31.6018 61.3351 31.3997 61.2395C31.2907 61.1887 31.1853 61.1378 31.0781 61.0854C30.9709 61.033 30.6141 60.805 30.9691 61.033C30.6 60.7942 30.1923 60.5985 29.8214 60.3596C29.4506 60.1208 29.0463 59.8388 28.6825 59.5537C28.6017 59.4905 28.5208 59.4273 28.4417 59.3626L28.3222 59.2655C28.1465 59.1268 28.3943 59.3256 28.4083 59.3379C28.2414 59.1838 28.0568 59.0297 27.8951 58.8757C27.7334 58.7216 27.5805 58.5675 27.4329 58.4134C27.3538 58.3286 27.2782 58.2423 27.2026 58.1545L27.106 58.0358L27.0585 57.9757C26.9794 57.8725 26.997 57.8971 27.1113 58.0481C27.1025 57.9773 26.983 57.8632 26.9355 57.8C26.888 57.7369 26.8336 57.6305 26.7861 57.5442C26.7386 57.4579 26.7 57.3701 26.656 57.2823C26.5471 57.0604 26.7176 57.4703 26.6719 57.3177C26.6543 57.2607 26.6314 57.2037 26.6139 57.1467C26.5834 57.0439 26.5588 56.9412 26.54 56.8385C26.4873 56.5549 26.54 57.045 26.54 56.7999C26.5347 56.6206 26.5471 56.4412 26.577 56.2637C26.598 56.125 26.4996 56.5226 26.5682 56.3207C26.5805 56.2837 26.591 56.2436 26.6033 56.2051C26.6279 56.1296 26.6578 56.051 26.6912 55.9801C26.7342 55.9102 26.7713 55.8376 26.8019 55.7629C26.7668 55.917 26.6859 55.9354 26.7527 55.8461C26.7879 55.7968 26.823 55.7459 26.8617 55.692C26.9115 55.6287 26.9655 55.5679 27.0234 55.5101C27.0515 55.4824 27.1991 55.356 27.048 55.4793C26.8968 55.6026 27.0199 55.5009 27.0568 55.4793C27.1326 55.4242 27.2118 55.3727 27.294 55.3252C27.3335 55.3094 27.3712 55.2903 27.4065 55.2682C27.3591 55.3175 27.1482 55.356 27.3415 55.3021C27.4469 55.2841 27.55 55.2567 27.6491 55.2204C27.6245 55.2466 27.3784 55.2389 27.6051 55.2358C27.6631 55.2358 27.7211 55.2281 27.7809 55.2281C27.8392 55.2214 27.8983 55.2214 27.9566 55.2281C27.744 55.1619 27.7949 55.2143 27.8951 55.2281C28.0428 55.2512 28.1904 55.2744 28.3363 55.3083C28.3966 55.3163 28.4557 55.3308 28.512 55.3514C28.396 55.2651 28.3081 55.2898 28.4452 55.3345C28.5823 55.3792 28.7054 55.4161 28.8337 55.4593L29.6474 55.7413L31.2714 56.3053L38.6022 58.851C39.1681 59.0467 40.0082 58.9758 40.2103 58.3717C40.4125 57.7677 39.9731 57.2098 39.3702 56.9263C37.7041 56.1466 36.0309 55.373 34.3752 54.5855C34.2118 54.5069 34.0483 54.4314 33.8884 54.3482C33.8427 54.3251 33.7935 54.3035 33.7496 54.2773C33.7355 54.2696 34.0202 54.4222 33.8902 54.3513L33.6213 54.1972C33.307 54.0076 33.006 53.8018 32.7196 53.5808C33.0395 53.8166 32.8093 53.6548 32.7337 53.5808C32.6581 53.5068 32.6142 53.4622 32.5579 53.399C32.5017 53.3358 32.449 53.2711 32.3945 53.2079C32.2925 53.0908 32.521 53.4128 32.456 53.2926C32.4331 53.251 32.4015 53.211 32.3769 53.1709C32.3523 53.1308 32.3189 53.0692 32.2925 53.0168C32.2789 52.9807 32.2618 52.9457 32.2416 52.912C32.2416 52.9028 32.3277 53.157 32.2978 53.0476C32.2574 52.9074 32.2082 52.7733 32.1818 52.6285C32.1794 52.5906 32.1735 52.553 32.1642 52.516C32.1642 52.5299 32.1783 52.7857 32.1783 52.6192C32.1783 52.5622 32.1783 52.5052 32.1783 52.4482C32.1783 52.3912 32.1783 52.2941 32.1959 52.2232C32.1959 52.197 32.2082 52.1677 32.2099 52.14C32.2099 52.0337 32.1326 52.3943 32.1941 52.214C32.2363 52.0907 32.2837 51.9736 32.3365 51.8534C32.4103 51.6993 32.1941 52.0414 32.3066 51.9027C32.3611 51.8364 32.4138 51.7717 32.4701 51.707C32.6194 51.5375 32.2943 51.8179 32.4419 51.7224C32.4929 51.6885 32.5404 51.653 32.5931 51.6222C32.5931 51.6222 32.7143 51.5513 32.7161 51.5544C32.7179 51.5575 32.4402 51.65 32.6599 51.5791C32.7618 51.5452 32.862 51.5174 32.9657 51.4897C33.0026 51.4804 33.1414 51.4666 32.9657 51.4897C32.7899 51.5128 32.9657 51.4897 33.0131 51.4897C33.108 51.4789 33.2047 51.4727 33.3014 51.4681C33.5088 51.4604 33.7162 51.4681 33.9253 51.4774C34.0677 51.4774 33.8005 51.4697 33.8058 51.4697C33.8647 51.4697 33.9234 51.4738 33.9816 51.482L34.3049 51.5082C34.5369 51.5282 34.7672 51.5498 34.9974 51.5744C35.4438 51.6207 35.8885 51.6762 36.3332 51.7378C37.219 51.8642 38.0978 52.0208 38.9695 52.2078C39.4493 52.311 39.9291 52.4251 40.4037 52.5468L40.8044 52.6516C40.8905 52.6747 41.2543 52.7934 40.9204 52.6824C41.1506 52.7595 41.3914 52.818 41.6234 52.8905C42.5889 53.1843 43.5374 53.5171 44.4689 53.889L45.2352 51.9736L40.2877 50.0227L39.0574 49.5388C38.8816 49.4679 38.6901 49.397 38.5108 49.3231C38.437 49.2922 38.3649 49.2583 38.2911 49.226C38.0978 49.1397 38.5741 49.3878 38.3262 49.2445C38.2577 49.2059 38.1892 49.1628 38.1241 49.1181C38.0978 49.0996 38.0714 49.078 38.0433 49.0596C37.9238 48.9825 38.2102 49.1844 38.1804 49.1782C38.1505 49.172 38.0626 49.0534 38.031 49.0241C37.9396 48.9409 38.1593 49.1582 38.1347 49.1597C38.1126 49.1288 38.0949 49.0957 38.0819 49.0611C38.0819 49.0534 38.1821 49.3523 38.1417 49.1767C38.1417 49.1582 38.1786 49.4294 38.1593 49.3169C38.1593 49.2969 38.1751 49.2476 38.1593 49.2321C38.1435 49.2167 38.1083 49.4494 38.1452 49.3416C38.1821 49.2337 38.0046 49.5049 38.1013 49.4001C38.1241 49.3739 38.1435 49.3446 38.1681 49.3184C38.1927 49.2922 38.2208 49.2676 38.2454 49.2414C38.3315 49.1443 38.0696 49.3508 38.1944 49.2876C38.4194 49.1705 38.6303 49.0411 38.8605 48.9286C38.9695 48.8762 38.6848 48.9995 38.7147 48.9917L38.7955 48.9578L38.9924 48.8793C39.1312 48.8253 39.2701 48.7745 39.4107 48.7252C39.9971 48.5237 40.5977 48.3554 41.2086 48.2213L41.641 48.1334C41.7166 48.1195 41.7939 48.1118 41.8677 48.0934C41.8853 48.0934 41.5883 48.135 41.7166 48.118L41.8396 48.0995C42.0908 48.0633 42.3444 48.0417 42.5989 48.0348C42.7324 48.0348 42.8643 48.0348 42.9978 48.0471L43.2421 48.061C43.2421 48.061 42.9767 48.0425 43.1174 48.0533L43.3195 48.0672C43.6792 48.0928 44.0395 48.1252 44.4004 48.1642C45.8296 48.3143 47.2449 48.5522 48.6361 48.8762C48.9747 48.9542 49.3133 49.0385 49.652 49.1289C49.8137 49.1705 49.9736 49.2183 50.1371 49.2599C50.1494 49.2599 49.8558 49.1797 49.9947 49.2214L50.1054 49.2522L50.4007 49.34C51.065 49.5373 51.7212 49.7535 52.3691 49.9888C53.6771 50.4637 54.9518 51.006 56.1866 51.613C56.4924 51.7671 56.807 51.9088 57.1005 52.0753C57.1163 52.0845 56.8263 51.9304 56.9564 52.0013L57.0917 52.0722L57.2921 52.1801C57.4485 52.2633 57.6032 52.3496 57.7578 52.4343C58.3671 52.7744 58.9664 53.1278 59.5558 53.4945C60.7246 54.2203 61.8512 54.997 62.9409 55.806C63.5015 56.2252 64.0517 56.6566 64.5912 57.0958L64.9744 57.404L65.1501 57.5504C65.1835 57.5781 65.2907 57.6691 65.1361 57.5396L65.18 57.5766C65.4436 57.7985 65.7038 58.023 65.9604 58.25C66.217 58.477 66.4736 58.7067 66.7302 58.9388C66.9645 59.1774 67.2799 59.3437 67.63 59.4135C67.944 59.4713 68.2713 59.4193 68.5422 59.2686C68.6653 59.1797 68.7661 59.0696 68.8385 58.945C68.9108 58.8204 68.9531 58.6841 68.9627 58.5445C68.9722 58.405 68.9489 58.2652 68.8941 58.1339C68.8393 58.0027 68.7542 57.8827 68.6442 57.7815C66.4731 55.7794 64.1124 53.9422 61.5876 52.2895C59.1107 50.6726 56.4319 49.3083 53.603 48.2228C50.7815 47.146 47.8024 46.4199 44.7519 46.0654C43.9241 45.9714 43.084 45.8959 42.2491 45.8682C41.6078 45.8713 40.9694 45.9453 40.3492 46.0885C39.1066 46.3335 37.7761 46.7049 36.7005 47.3213C36.2575 47.5569 35.9106 47.909 35.7092 48.3276C35.618 48.5582 35.58 48.8025 35.5975 49.0462C35.615 49.2899 35.6876 49.528 35.8112 49.7468C36.2277 50.5312 37.1504 51.0012 38.0116 51.3402L43.1964 53.4036L44.4672 53.9044C45.0243 54.1248 45.8732 54.0123 46.0753 53.4267C46.2774 52.8411 45.8539 52.2278 45.2352 51.9813C41.5844 50.5195 37.6685 49.6327 33.6669 49.3616C32.6704 49.2969 31.528 49.3277 30.7248 49.9287C30.3817 50.1853 30.1046 50.503 29.9119 50.8605C29.7192 51.2181 29.6153 51.6074 29.607 52.0028C29.542 53.721 30.8759 55.0848 32.4613 55.9385C33.4455 56.4702 34.4789 56.9294 35.4983 57.4071L38.5987 58.8602L39.3667 56.9355L32.405 54.5116C31.1747 54.0863 29.9655 53.6086 28.7141 53.2695C27.5682 52.9613 26.2149 52.9783 25.2746 53.7103C24.8639 54.0301 24.5352 54.4226 24.3101 54.8619C24.085 55.3013 23.9687 55.7774 23.9687 56.2591C23.9687 57.3747 24.5276 58.3902 25.2623 59.2763C25.9412 60.058 26.7249 60.7652 27.5963 61.3828C28.4518 62.0041 29.3715 62.554 30.3434 63.0255C32.4232 64.0531 34.7274 64.6833 37.1047 64.8747C37.4299 64.8994 37.7357 64.9009 38.0169 64.7206C38.1426 64.6417 38.2463 64.5389 38.3203 64.4199C38.3943 64.3009 38.4366 64.1687 38.444 64.0333C38.444 63.3692 37.8921 62.9392 37.2137 62.7589L30.9199 61.0762C28.8389 60.5199 26.7633 59.9328 24.67 59.4135C23.6238 59.1321 22.5388 58.9766 21.4449 58.9512C20.4096 58.9405 19.3886 59.1634 18.4799 59.5984C16.8032 60.392 15.7627 62.0871 16.3269 63.7421C16.891 65.3971 18.3938 66.6854 19.8226 67.7903C21.0767 68.7351 22.437 69.5659 23.8826 70.2697C26.635 71.6566 29.6105 72.6459 32.5439 73.6892C34.0378 74.2208 35.5317 74.7679 36.98 75.375C37.6953 75.6832 38.4018 75.9914 39.089 76.332C39.2589 76.4152 39.4276 76.4999 39.5952 76.5862C39.6848 76.6325 39.9907 76.802 39.5952 76.5862C39.6884 76.6371 39.7833 76.6849 39.8747 76.7403C40.2156 76.9232 40.5507 77.1143 40.88 77.3136C41.2092 77.5129 41.5238 77.7122 41.8238 77.9115C42.3106 78.2366 43.2017 78.343 43.5972 77.8344C43.9926 77.3259 43.7466 76.6679 43.214 76.3135L43.2211 76.3196Z" fill="#87226C"/>
<path d="M2.7019 74.0531C7.2689 72.3367 11.6229 70.2139 15.6955 67.7181C16.8204 67.0277 17.9212 66.3086 18.998 65.5607C19.1159 65.4921 19.2147 65.4011 19.2868 65.2943C19.3589 65.1876 19.4026 65.0679 19.4145 64.9443C19.4111 64.8213 19.3752 64.7006 19.3096 64.5918C19.244 64.483 19.1506 64.389 19.0367 64.3171C18.527 63.9904 17.6464 63.9057 17.1192 64.2709C15.2126 65.5914 13.2304 66.8258 11.1804 67.9693C10.1563 68.5394 9.11466 69.087 8.05543 69.6119C7.80234 69.7368 7.54925 69.8616 7.29441 69.9833L6.9429 70.1497C6.81558 70.2336 6.67456 70.3001 6.5246 70.347L6.31369 70.4441L5.96218 70.5982C5.68097 70.7266 5.39859 70.8524 5.11503 70.9757C3.88591 71.514 2.64039 72.0205 1.37846 72.4951C1.09825 72.5849 0.868837 72.7667 0.738708 73.0021C0.690483 73.1143 0.675666 73.2355 0.695654 73.3541C0.715643 73.4727 0.769776 73.585 0.852949 73.6802C1.27125 74.1301 2.09906 74.2642 2.69839 74.0392L2.7019 74.0531Z" fill="#87226C"/>
<path d="M39.0005 75.2328C37.4802 75.8738 36.2921 76.9695 35.227 78.0898C34.6998 78.6445 34.1883 79.2116 33.6452 79.7556C33.0309 80.3648 32.3785 80.9436 31.6908 81.4892C30.9034 82.121 30.0809 82.722 29.2443 83.2952L29.4482 83.1535C25.9858 85.5466 22.4443 87.8704 18.9485 90.2235L15.9237 92.2576C15.8097 92.3219 15.7132 92.4074 15.6412 92.5081C15.5692 92.6088 15.5235 92.7221 15.5072 92.8401C15.4708 93.1373 15.5382 93.4372 15.7005 93.7C15.8509 93.9685 16.093 94.1893 16.393 94.3318C16.6127 94.4196 16.9589 94.5136 17.1769 94.3672L26.7732 87.9167C28.3444 86.8611 29.928 85.8194 31.4676 84.7284C32.9047 83.7412 34.2376 82.6427 35.4502 81.4461C36.6208 80.2564 37.6665 78.9466 39.0849 77.9619L38.881 78.1021C39.3093 77.8065 39.7724 77.5518 40.2624 77.3424C40.8442 77.0958 40.744 76.3053 40.4839 75.9C40.2238 75.4948 39.6174 74.9754 39.0093 75.2328H39.0005Z" fill="#87226C"/>
<path d="M35.92 81.7901C36.094 81.8045 36.2671 81.8266 36.4385 81.8564C36.5299 81.8733 36.6143 81.8918 36.7092 81.9118C36.7426 81.9118 36.776 81.9303 36.8094 81.935C36.5053 81.8841 36.7144 81.9103 36.7935 81.935C37.1356 82.0369 37.4697 82.1584 37.7936 82.2986C38.4579 82.5806 39.0907 82.915 39.7462 83.2063C41.2609 83.8667 42.9319 84.2045 44.6235 84.1925C46.3851 84.1833 48.1451 84.0938 49.8961 83.9244C51.6273 83.778 53.355 83.6038 55.0862 83.4621C57.0195 83.2987 58.9652 83.1739 60.9125 83.1708H60.6366C63.1728 83.1708 65.7124 83.3927 68.1572 84.0122C68.2929 84.0323 68.4323 84.0214 68.5618 83.9807C68.6914 83.9399 68.8069 83.8706 68.8971 83.7795C69.0761 83.5682 69.1526 83.3034 69.1098 83.0429C69.0671 82.7314 68.9175 82.4385 68.681 82.2031C68.464 82 68.1853 81.8557 67.8777 81.787C64.8776 81.0258 61.7474 80.8748 58.64 80.9672C55.5326 81.0597 52.4745 81.4064 49.3952 81.673C47.6799 81.8271 45.9539 81.9658 44.228 81.9704H44.504C43.6501 81.9769 42.7978 81.9056 41.9608 81.7577C41.8571 81.7377 41.7534 81.7177 41.6514 81.6946C41.5864 81.6807 41.2331 81.6191 41.5495 81.6745C41.3488 81.6302 41.1529 81.5704 40.9642 81.4958C40.6236 81.3761 40.2904 81.2408 39.9659 81.0905C38.5792 80.4633 37.2329 79.6897 35.6388 79.5587C35.5029 79.541 35.3641 79.553 35.2347 79.5936C35.1053 79.6342 34.9894 79.7021 34.8971 79.7914C34.7181 80.0027 34.6417 80.2675 34.6845 80.528C34.7688 81.0566 35.2399 81.7285 35.9148 81.7839L35.92 81.7901Z" fill="#87226C"/>
<path d="M98.8649 95.3883C98.9362 95.4113 99.0106 95.4258 99.0863 95.4315C99.0863 95.4315 98.886 95.3852 99.002 95.413L99.1109 95.4376C99.2867 95.4777 99.4501 95.5239 99.6189 95.5701C99.646 95.5755 99.6725 95.5833 99.6979 95.5933L99.9106 95.6641C100.074 95.7196 100.238 95.7797 100.399 95.8414C100.967 96.0637 101.519 96.318 102.05 96.6026C103.224 97.219 104.334 97.9371 105.461 98.6259L112.843 103.147L117.001 105.694C117.188 105.79 117.394 105.853 117.607 105.881C117.949 105.944 118.297 105.981 118.646 105.99C118.92 106.011 119.195 105.999 119.465 105.953C119.527 105.939 119.762 105.878 119.62 105.799L112.062 101.167L108.294 98.8632C107.139 98.1559 105.999 97.4255 104.798 96.7783C103.411 95.9981 101.878 95.4369 100.269 95.1202C99.9276 95.0584 99.5807 95.0218 99.2322 95.0108C98.9586 94.9902 98.6831 95.0021 98.4132 95.0462C98.3042 95.0709 98.1741 95.0971 98.2585 95.2096C98.3429 95.322 98.7383 95.3729 98.8649 95.396V95.3883Z" fill="#87226C"/>
<path d="M98.9308 74.4532C102.473 74.948 105.959 75.7116 109.35 76.7355C112.693 77.7424 115.927 79.0069 119.016 80.514C120.781 81.3707 122.494 82.3025 124.155 83.3093C124.345 83.4233 124.66 83.4033 124.858 83.3756C125.206 83.3278 125.541 83.2233 125.844 83.0674C126.075 82.9456 126.899 82.4417 126.435 82.1628C123.473 80.37 120.338 78.8077 117.065 77.4936C113.758 76.1632 110.325 75.0857 106.806 74.2729C104.843 73.8219 102.857 73.4562 100.85 73.1758C100.531 73.1463 100.209 73.1727 99.9017 73.2533C99.5945 73.334 99.3087 73.4674 99.0609 73.6458C98.8851 73.7675 98.6531 73.9324 98.6232 74.1404C98.6159 74.2174 98.6436 74.2938 98.7002 74.3529C98.7568 74.4121 98.8378 74.4493 98.9255 74.4563L98.9308 74.4532Z" fill="#87226C"/>
<path d="M3.29466 69.7942C5.90813 68.8123 8.38483 67.5715 10.6764 66.0958C11.3794 65.6335 12.0825 65.162 12.7486 64.6642C12.9419 64.5209 13.1493 64.2404 13.072 64.0031C12.9946 63.7658 12.6554 63.6256 12.4041 63.5855C11.9804 63.5282 11.5477 63.551 11.1348 63.6522C10.722 63.7535 10.3386 63.9309 10.0103 64.1726C9.7537 64.3637 9.49358 64.5512 9.22995 64.7351C9.10867 64.8214 8.98565 64.9046 8.86262 64.9894C8.80468 65.0353 8.743 65.0776 8.67807 65.1157C8.65698 65.125 8.95577 64.9308 8.82747 65.0156L8.70268 65.0972C8.17307 65.4445 7.63291 65.7783 7.08221 66.0989C6.53209 66.4209 5.96967 66.7276 5.40022 67.0235C5.12077 67.1668 4.8378 67.307 4.55483 67.4442L4.31405 67.5582C4.25254 67.5875 3.99417 67.7123 4.26484 67.5828C4.5355 67.4534 4.27538 67.5829 4.21387 67.6044L3.97133 67.7138C3.30111 68.0128 2.62035 68.2927 1.92904 68.5537C1.57126 68.6761 1.25959 68.8837 1.02917 69.1531C0.89911 69.3411 0.841111 69.6154 1.04675 69.7834C1.60213 70.2457 2.68831 70.0361 3.29994 69.805L3.29466 69.7942Z" fill="#1F94BC"/>
<path d="M93.7443 10.2342L93.9007 17.7466C93.9007 17.9114 94.3594 17.9762 94.4473 17.9885C94.7847 18.027 95.1259 18.0332 95.4649 18.007C95.8398 17.9905 96.2116 17.9388 96.5739 17.8529C96.8253 17.7897 97.1768 17.725 97.3473 17.5354C97.3921 17.4843 97.4409 17.4359 97.4931 17.3906C97.5178 17.3675 97.5459 17.3459 97.5705 17.3243C97.6918 17.2195 97.4721 17.3752 97.5547 17.3351C97.6373 17.295 97.6742 17.2658 97.7304 17.2334C97.9255 17.1302 97.4967 17.3166 97.7093 17.2334C97.7638 17.2149 97.9079 17.1748 97.6636 17.2426C97.4193 17.3104 97.5916 17.2719 97.6478 17.2534C97.6636 17.2534 97.1961 17.3351 97.3965 17.3043C97.4264 17.3043 96.8692 17.3628 97.0977 17.3443C97.1258 17.3443 96.5704 17.3675 96.7954 17.3644C96.8112 17.3644 96.3367 17.349 96.5405 17.3644C96.5769 17.3715 96.6141 17.3741 96.6513 17.3721C96.6126 17.3721 96.2646 17.3228 96.4843 17.3613L96.595 17.3798C96.7198 17.3952 96.3578 17.3151 96.4755 17.3567C96.5441 17.3813 96.6196 17.3937 96.6882 17.4168L96.7936 17.4538C96.8147 17.4538 96.936 17.5031 96.827 17.4645C96.7181 17.426 96.8569 17.48 96.8815 17.4923C96.9141 17.5078 96.9458 17.5247 96.9764 17.5431C97.2563 17.7043 97.4956 17.9141 97.6794 18.1595L97.6039 18.0578C98.226 18.9038 98.2383 19.9856 97.8534 20.9117L97.9026 20.7977C97.4228 21.8964 96.465 22.7501 95.4421 23.4836C95.2575 23.6162 95.5721 23.7579 95.6565 23.7826C97.574 24.3297 99.5882 24.4406 101.59 24.2911L99.792 24.043C100.172 25.752 99.5249 27.4409 98.9871 29.0667C98.5389 30.4181 98.1733 31.8481 98.4703 33.2566C98.6237 34.0134 99.0165 34.7171 99.604 35.2876C99.7551 35.4325 100.26 35.4494 100.437 35.4571C100.89 35.4785 101.344 35.4511 101.789 35.3755C102 35.3385 103.314 35.1104 102.949 34.7591C102.789 34.6073 102.645 34.4438 102.518 34.2706L102.594 34.3738C101.822 33.2951 101.76 31.9699 101.956 30.7432C102.195 29.2531 102.864 27.8508 103.205 26.3792C103.432 25.5065 103.46 24.6032 103.288 23.721C103.251 23.5499 102.871 23.496 102.741 23.479C102.326 23.4366 101.907 23.4366 101.492 23.479L101.326 23.4914L101.629 23.4729C101.534 23.488 101.437 23.4916 101.34 23.4836C101.258 23.4836 101.176 23.4836 101.093 23.4836C100.741 23.4836 101.358 23.4836 101.184 23.4836C101.01 23.4836 100.833 23.4729 100.657 23.4621C100.574 23.4621 100.492 23.4528 100.411 23.4436L100.608 23.4605L100.442 23.4436C100.114 23.4081 99.7903 23.3557 99.4669 23.2987C99.2173 23.2556 99.6532 23.3434 99.4282 23.291L99.1874 23.2371C99.0011 23.1924 98.8166 23.1431 98.6338 23.0907L98.8482 23.3881C100.231 22.3942 101.557 21.0874 101.613 19.4339C101.652 18.6773 101.36 17.9362 100.796 17.3628C100.161 16.7464 99.1347 16.5276 98.2208 16.4922C97.2115 16.445 96.2013 16.5685 95.2452 16.8559C94.7391 16.9981 94.2886 17.2618 93.9446 17.6171L97.3912 17.4091L97.2348 9.89675C97.2348 9.73033 96.7761 9.66869 96.6882 9.65482C96.2736 9.60464 95.8531 9.60464 95.4386 9.65482C95.018 9.68232 94.6039 9.76115 94.2083 9.88905C94.0536 9.94606 93.7284 10.0431 93.732 10.225L93.7443 10.2342Z" fill="#1F94BC"/>
<path d="M57.3379 87.9C57.5857 87.7705 57.2114 87.9647 57.1622 87.9847C57.2131 87.9647 57.2624 87.9385 57.3133 87.9169C57.4135 87.8722 57.5172 87.8321 57.6227 87.7936L57.7791 87.7397L57.8599 87.715C57.9982 87.6719 57.8945 87.7027 57.5488 87.8075C57.6578 87.7782 57.765 87.7489 57.874 87.7243C57.983 87.6996 58.0937 87.6796 58.2044 87.6611L58.2589 87.6519C58.4346 87.6257 58.3327 87.6395 57.9636 87.6919L58.1025 87.675C58.3274 87.6519 58.5524 87.6426 58.7791 87.638C59.0375 87.638 58.5612 87.638 58.5436 87.638C58.5999 87.638 58.6579 87.638 58.7194 87.638C58.8319 87.638 58.9461 87.6519 59.0586 87.6626C59.1711 87.6734 59.2835 87.6873 59.396 87.7043L59.563 87.732C59.8108 87.7705 59.1552 87.6457 59.3995 87.6996C59.8411 87.7954 60.2709 87.9291 60.6826 88.0987L60.3627 87.9647C60.874 88.1815 61.3475 88.4612 61.7687 88.7953L61.5332 88.6042C62.0419 89.0275 62.4561 89.5303 62.7547 90.0866L62.6212 89.8462C63.1273 90.7708 63.4859 91.8588 64.3453 92.5907C64.9733 93.1347 65.7982 93.4693 66.6776 93.5369C67.0731 93.5708 67.472 93.5538 67.8657 93.6062C68.2594 93.6586 67.5634 93.5276 67.8042 93.5893L67.994 93.6371C68.1595 93.6854 68.3215 93.7425 68.4791 93.8081L68.1575 93.674C68.7909 93.972 69.3727 94.3477 69.8852 94.7897L69.6655 94.5986C70.1365 94.9808 70.5917 95.3815 71.0821 95.7436C71.5927 96.1085 72.1581 96.4102 72.7623 96.6404C73.531 96.9442 74.3745 97.0739 75.2152 97.0176C76.056 96.9613 76.8672 96.7209 77.5745 96.3184C77.8451 96.1643 78.1457 95.8777 78.1984 95.5787C78.2176 95.4429 78.192 95.3052 78.1247 95.1818C78.0575 95.0584 77.9513 94.9544 77.8188 94.8822C77.0982 94.4923 76.0612 94.6495 75.3881 95.0455C75.3318 95.0794 75.128 95.1811 75.4127 95.0455C75.6974 94.9099 75.5006 95.0039 75.432 95.0301C75.2791 95.0902 75.0893 95.0995 75.6412 94.9762L75.5216 95.0055C75.3617 95.0394 75.1701 95.0224 75.7396 94.9808L75.6166 94.9931C75.555 94.9931 75.49 94.9931 75.4285 94.9931C75.4636 94.9931 75.9066 95.0116 75.6412 94.9931C75.534 94.9931 75.4303 94.97 75.323 94.9561C75.1684 94.9361 75.7361 95.0517 75.4865 94.987L75.3266 94.9469C75.1 94.885 74.8791 94.8082 74.6657 94.7173L74.9856 94.8514C74.3967 94.5852 73.854 94.2469 73.3739 93.8466L73.6094 94.0362C72.7851 93.3674 71.9925 92.6061 70.9889 92.1377C70.354 91.8269 69.6539 91.6319 68.9308 91.5644C68.6162 91.5398 68.2998 91.5444 67.987 91.5213C67.9044 91.5213 67.8253 91.5043 67.7444 91.4951C67.4738 91.4643 68.096 91.5906 67.813 91.5074C67.7081 91.478 67.6054 91.443 67.5054 91.4026L67.827 91.5382C67.6212 91.4484 67.4308 91.3337 67.2611 91.1977L67.4966 91.3872C67.1073 91.0388 66.7929 90.6316 66.5686 90.1852L66.7005 90.4256C66.3279 89.7461 66.0343 89.028 65.5914 88.3792C65.1541 87.7654 64.5802 87.235 63.9042 86.8197C62.4261 85.8874 60.4892 85.4837 58.686 85.6208C57.4378 85.7175 56.2307 86.0605 55.155 86.624C54.8445 86.7893 54.6204 87.0549 54.5311 87.3637C54.5111 87.4993 54.5361 87.6372 54.6031 87.7607C54.6702 87.8842 54.7763 87.9882 54.909 88.0602C55.663 88.467 56.6296 88.2636 57.3397 87.8969L57.3379 87.9Z" fill="#1F94BC"/>
<path d="M81.0899 98.2134C81.4653 98.2169 81.8368 98.1475 82.1779 98.01C82.5976 97.852 82.977 97.622 83.2939 97.3335C83.4802 97.1532 83.7737 96.8712 83.7368 96.6093C83.7292 96.5052 83.6762 96.4076 83.5889 96.3368C83.5015 96.2659 83.3865 96.2272 83.2675 96.2286C82.8917 96.2253 82.5196 96.2947 82.1779 96.432C81.7584 96.5904 81.379 96.8204 81.0618 97.1085C80.8755 97.2888 80.582 97.5708 80.6189 97.8328C80.627 97.937 80.6803 98.0346 80.7679 98.1054C80.8555 98.1762 80.9708 98.2148 81.0899 98.2134Z" fill="#1F94BC"/>
<path d="M62.3781 39.8183C63.0811 41.1679 63.9899 42.4276 65.0795 43.5629C65.2907 43.7698 65.5713 43.9128 65.8809 43.9713C66.3221 44.0727 66.7811 44.101 67.2342 44.0545C67.5857 44.0144 68.0128 43.9651 68.2888 43.7601C68.4434 43.6461 68.6526 43.4365 68.4733 43.2501C67.3849 42.1144 66.4768 40.8547 65.7737 39.5055C65.6595 39.2866 65.1937 39.151 64.9722 39.0971C64.531 38.9957 64.072 38.9675 63.6189 39.0139C63.2006 39.0617 62.0793 39.2435 62.3781 39.8183Z" fill="#1F94BC"/>
<path d="M67.6021 37.9687C68.3051 39.3179 69.2133 40.5776 70.3017 41.7133C70.5132 41.9199 70.7937 42.0628 71.1031 42.1216C71.5444 42.2231 72.0034 42.2513 72.4565 42.2049C72.808 42.1648 73.2368 42.1155 73.511 41.9105C73.6657 41.7965 73.873 41.5869 73.6955 41.4005C72.6065 40.2651 71.6983 39.0054 70.9959 37.6559C70.8817 37.437 70.4142 37.3014 70.1945 37.2475C69.7532 37.1461 69.2942 37.1179 68.8411 37.1643C68.4211 37.212 67.2998 37.3939 67.6003 37.9687H67.6021Z" fill="#1F94BC"/>
<path d="M67.0864 49.5397C68.0987 50.2824 69.1462 51.0452 70.3502 51.5353C71.5084 52.0053 72.7088 52.201 73.9637 51.9298C76.3329 51.4182 77.92 49.5443 78.3787 47.5164C78.6705 46.2296 78.5457 44.8874 78.1942 43.6192C78.0853 43.3203 77.922 43.0388 77.7108 42.7855C77.466 42.4514 77.1808 42.1414 76.8602 41.8609C76.6844 41.7145 76.4278 41.4464 76.1747 41.4279C75.9691 41.411 75.999 41.582 76.0288 41.7192C76.0851 41.9226 76.136 42.126 76.1782 42.3356C76.1976 42.4342 76.2169 42.5313 76.2327 42.6299C76.2134 42.5159 76.2327 42.6623 76.2327 42.6823L76.2538 42.8472C76.3051 43.2627 76.3221 43.6808 76.3048 44.0985C76.2739 44.9279 76.0758 45.7459 75.7195 46.5147L75.7687 46.413C74.9954 48.011 73.3415 49.3101 71.3326 49.552L71.4574 49.5381C70.9552 49.5945 70.4459 49.5788 69.9494 49.4919C69.6808 49.4453 69.4169 49.3799 69.1603 49.2962C69.0478 49.2608 68.9371 49.2222 68.8263 49.1806C68.9705 49.2361 68.7807 49.1591 68.7508 49.1467L68.5574 49.062C68.3202 48.9541 68.0899 48.8355 67.865 48.7106C67.7525 48.6459 67.64 48.5812 67.5293 48.5134L67.3535 48.4024C67.2393 48.3331 67.5416 48.5257 67.3781 48.4163C66.9247 48.1189 66.4888 47.7999 66.0547 47.4917C65.9914 47.4439 65.6522 47.1928 65.5116 47.2868C65.371 47.3808 65.5555 47.7337 65.5907 47.7999C65.941 48.4676 66.4533 49.0603 67.0916 49.5366L67.0864 49.5397Z" fill="#1F94BC"/>
</svg>
