<svg width="141" height="141" viewBox="0 0 141 141" fill="none" xmlns="http://www.w3.org/2000/svg">
<circle cx="70.5" cy="70.5" r="70.5" fill="#87226C"/>
<path d="M38 63.4102V93.8892C38 95.762 38.7103 97.558 39.9747 98.8822C41.2391 100.206 42.9539 100.95 44.742 100.95H95.3305C97.1186 100.95 98.8334 100.206 100.098 98.8822C101.362 97.558 102.072 95.762 102.072 93.8892V63.4102H38ZM82.5405 80.6972L76.5249 85.2738C76.3352 85.4188 76.1941 85.6228 76.1215 85.8568C76.049 86.0908 76.0488 86.3428 76.121 86.5768L78.4185 93.9827C78.4895 94.2167 78.4883 94.468 78.4152 94.7012C78.3421 94.9344 78.2008 95.1375 78.0112 95.2818C77.8217 95.4262 77.5936 95.5043 77.3593 95.5052C77.1249 95.5062 76.8963 95.4298 76.7057 95.287L70.6901 90.7093C70.4999 90.5652 70.271 90.4876 70.0362 90.4876C69.8014 90.4876 69.5726 90.5652 69.3823 90.7093L63.3668 95.287C63.1762 95.4298 62.9475 95.5062 62.7132 95.5052C62.4789 95.5043 62.2508 95.4262 62.0612 95.2818C61.8717 95.1375 61.7304 94.9344 61.6572 94.7012C61.5841 94.468 61.583 94.2167 61.6539 93.9827L63.9515 86.5768C64.0237 86.3428 64.0235 86.0908 63.9509 85.8568C63.8784 85.6228 63.7372 85.4188 63.5475 85.2738L57.5319 80.6972C57.3455 80.5508 57.2076 80.347 57.1374 80.1144C57.0671 79.8817 57.0682 79.6318 57.1405 79.3999C57.2127 79.1679 57.3525 78.9654 57.5401 78.8208C57.7278 78.6762 57.954 78.5968 58.187 78.5936H65.6219C65.8567 78.593 66.0853 78.5149 66.2752 78.3703C66.4652 78.2257 66.6067 78.0221 66.6797 77.7884L68.9773 70.3825C69.0507 70.1487 69.1927 69.9451 69.383 69.8008C69.5734 69.6564 69.8024 69.5787 70.0374 69.5787C70.2724 69.5787 70.5013 69.6564 70.6917 69.8008C70.882 69.9451 71.024 70.1487 71.0974 70.3825L73.395 77.7884C73.468 78.0221 73.6095 78.2257 73.7994 78.3703C73.9894 78.5149 74.218 78.593 74.4528 78.5936H81.8877C82.1205 78.5972 82.3464 78.677 82.5337 78.8218C82.721 78.9665 82.8604 79.1691 82.9324 79.4009C83.0043 79.6328 83.0052 79.8825 82.935 80.1149C82.8647 80.3474 82.7268 80.551 82.5405 80.6972Z" fill="white"/>
<path d="M87.7021 56.3428C87.7145 56.3638 87.7207 56.3725 87.7021 56.3428V56.3428Z" fill="white"/>
<path d="M47.8438 56.3428C47.8549 56.3638 47.8611 56.3725 47.8438 56.3428V56.3428Z" fill="white"/>
<path d="M97.6088 44.8203H93.7925C93.8305 43.7626 93.8628 42.7038 93.8807 41.645C93.8941 40.8877 93.8807 39.9387 93.2502 39.4245C92.8887 39.1311 92.41 39.0306 91.9536 39.054L91.0933 39.151C90.1693 38.7548 89.0847 39.4198 88.6071 40.3407C88.1296 41.2616 88.1139 42.3543 88.1139 43.3991C88.1139 43.8728 88.1113 44.3466 88.1061 44.8203H73.9816C74.0196 43.7626 74.0519 42.7038 74.0698 41.645C74.0832 40.8877 74.0698 39.9387 73.4393 39.4245C73.0778 39.1311 72.5991 39.0306 72.1427 39.054L71.2824 39.151C70.3584 38.7548 69.2738 39.4198 68.7962 40.3407C68.3187 41.2616 68.3053 42.3555 68.2986 43.4003C68.2986 43.874 68.296 44.3477 68.2908 44.8214H54.0078C54.0469 43.7638 54.0792 42.705 54.0971 41.6461C54.1105 40.8888 54.0971 39.9399 53.4655 39.4256C53.104 39.1323 52.6264 39.0318 52.17 39.0552L51.3085 39.1522C50.3846 38.756 49.3 39.421 48.8235 40.3419C48.3471 41.2628 48.3325 42.3567 48.3259 43.4015C48.3259 43.8752 48.3232 44.3489 48.318 44.8226H42.4654C41.2816 44.8226 40.1463 45.3151 39.3093 46.1918C38.4722 47.0685 38.002 48.2575 38.002 49.4973V60.3742H102.073V49.495C102.073 48.881 101.958 48.273 101.733 47.7058C101.509 47.1385 101.18 46.6231 100.766 46.189C100.351 45.7549 99.8588 45.4106 99.3172 45.1758C98.7755 44.9409 98.195 44.8201 97.6088 44.8203ZM56.2005 54.0668C56.2005 54.5343 56.1975 54.9998 56.1915 55.4634L56.1848 56.2195C56.1962 56.4154 56.1823 56.6119 56.1435 56.8039C56.0833 57.0166 55.8992 57.0832 55.6972 57.0925C55.4952 57.1019 55.3 57.0925 55.1013 57.0984C54.655 57.0984 54.2153 57.1054 53.7723 57.1066C52.8864 57.1066 52.0004 57.1066 51.1144 57.1066L49.7854 57.096C49.3714 57.096 48.9485 57.1124 48.5368 57.0715C47.7356 56.9909 47.0415 56.4194 46.5371 55.7918C46.2263 55.4247 46.0489 54.9547 46.0361 54.4642C46.0093 53.5538 46.0361 52.6387 46.0361 51.7283C46.0361 49.8436 46.0361 47.9589 46.0361 46.0742C46.0361 45.7236 46.767 46.2519 46.8619 46.3243C47.0945 46.502 47.3055 46.7088 47.4901 46.9402C47.5727 47.0442 47.7601 47.2733 47.7601 47.4322V51.3952V54.8931V55.4856H47.7992C48.9061 55.4988 50.0134 55.5051 51.1211 55.5043C51.6842 55.5043 52.2473 55.5043 52.8105 55.5043L53.6407 55.4973C53.856 55.4973 54.1149 55.5323 54.3292 55.4716C54.3815 55.4354 54.4208 55.3819 54.4407 55.3196C54.4673 55.024 54.4733 54.7268 54.4586 54.4303L54.4653 53.4696C54.4809 51.1229 54.4809 48.7762 54.4653 46.4295C54.4653 46.0789 55.1973 46.6072 55.291 46.6796C55.5234 46.8572 55.7343 47.0636 55.9193 47.2943C56.0029 47.3995 56.1893 47.6274 56.1893 47.7875C56.2057 49.8771 56.2094 51.9702 56.2005 54.0668ZM76.2479 54.0668C76.2479 54.5343 76.245 54.9998 76.239 55.4634L76.2323 56.2195C76.2437 56.4154 76.2298 56.6119 76.191 56.8039C76.1308 57.0166 75.9466 57.0832 75.7447 57.0925C75.5427 57.1019 75.3474 57.0925 75.1488 57.0984C74.7025 57.0984 74.2628 57.1054 73.8198 57.1066C72.9338 57.1066 72.0478 57.1066 71.1618 57.1066L69.8329 57.096C69.4189 57.096 68.996 57.1124 68.5842 57.0715C67.783 56.9909 67.0879 56.4194 66.5846 55.7918C66.2733 55.425 66.0958 54.9548 66.0836 54.4642C66.0568 53.5538 66.0836 52.6387 66.0836 51.7283C66.0836 49.8436 66.0836 47.9589 66.0836 46.0742C66.0836 45.7236 66.8145 46.2519 66.9093 46.3243C67.1417 46.5023 67.3527 46.7091 67.5376 46.9402C67.6201 47.0442 67.8076 47.2733 67.8076 47.4322V51.3952L67.8054 54.8954V55.4879H67.8444C68.9513 55.5012 70.0586 55.5074 71.1663 55.5066C71.7295 55.5066 72.2926 55.5066 72.8557 55.5066L73.6859 55.4996C73.9013 55.4996 74.1602 55.5347 74.3744 55.4739C74.4267 55.4377 74.466 55.3842 74.486 55.322C74.512 55.0263 74.518 54.7291 74.5038 54.4326L74.5105 53.472C74.5262 51.1253 74.5262 48.7786 74.5105 46.4319C74.5105 46.0813 75.2425 46.6095 75.3363 46.682C75.5686 46.8595 75.7796 47.066 75.9645 47.2967C76.0482 47.4019 76.2345 47.6298 76.2345 47.7899C76.2524 49.8779 76.2557 51.9702 76.2446 54.0668H76.2479ZM96.0588 54.0668C96.0588 54.5343 96.0559 54.9998 96.0499 55.4634L96.0432 56.2195C96.0546 56.4154 96.0407 56.6119 96.0019 56.8039C95.9417 57.0166 95.7576 57.0832 95.5556 57.0925C95.3536 57.1019 95.1583 57.0925 94.9597 57.0984C94.5134 57.0984 94.0737 57.1054 93.6307 57.1066C92.7447 57.1066 91.8588 57.1066 90.9728 57.1066L89.6438 57.096C89.2298 57.096 88.8069 57.1124 88.3951 57.0715C87.594 56.9909 86.8988 56.4194 86.3955 55.7918C86.0842 55.425 85.9068 54.9548 85.8945 54.4642C85.8677 53.5538 85.8945 52.6387 85.8945 51.7283C85.8945 49.8436 85.8945 47.9589 85.8945 46.0742C85.8945 45.7236 86.6254 46.2519 86.7202 46.3243C86.9526 46.5023 87.1636 46.7091 87.3485 46.9402C87.431 47.0442 87.6185 47.2733 87.6185 47.4322V51.3952V54.8931V55.4856H87.6576C88.7645 55.4988 89.8718 55.5051 90.9795 55.5043C91.5433 55.5043 92.1065 55.5043 92.6689 55.5043L93.4991 55.4973C93.7144 55.4973 93.9733 55.5323 94.1875 55.4716C94.2399 55.4354 94.2792 55.3819 94.2991 55.3196C94.3252 55.024 94.3311 54.7268 94.317 54.4303L94.3237 53.4696C94.3393 51.1229 94.3412 48.7762 94.3293 46.4295C94.3293 46.0789 95.0613 46.6072 95.155 46.6796C95.3873 46.8572 95.5983 47.0636 95.7832 47.2943C95.8669 47.3995 96.0533 47.6274 96.0533 47.7875C96.0659 49.8771 96.0667 51.9702 96.0555 54.0668H96.0588Z" fill="white"/>
</svg>
