<svg width="137" height="131" viewBox="0 0 137 131" fill="none" xmlns="http://www.w3.org/2000/svg">
<path d="M34.5427 32.9492H38.6054C39.1137 32.9648 39.6223 32.9332 40.1248 32.8546C41.479 32.6023 43.1189 31.8398 43.2098 30.2796C43.2098 30.1813 43.2098 30.083 43.2098 29.9847V10.0383C43.2098 9.1608 43.2265 8.28332 43.2098 7.40584C43.1894 6.34471 42.2248 5.67315 41.2582 5.5303C41.0276 5.50064 40.7951 5.48762 40.5626 5.49134H10.131C9.25146 5.48887 8.38382 5.69418 7.5987 6.09055C7.00645 6.3715 6.52004 6.83515 6.21106 7.41326C6.0885 7.69098 6.03076 7.99296 6.04224 8.29631C6.0274 9.24428 6.04224 10.1941 6.04224 11.1421V30.9234C6.03482 31.1481 6.07007 31.3722 6.14613 31.5838C6.54684 32.5874 7.58014 32.9343 8.58563 32.9492C10.0883 32.9752 11.5909 32.9492 13.0917 32.9492H20.1672C20.2247 32.9492 20.2804 32.9492 20.3379 32.9492H20.3602C20.0819 32.9677 20.0429 32.9121 20.1561 32.9343C20.3082 32.964 20.2897 33.0215 20.0949 32.9065C20.2006 32.9696 20.3286 33.0011 20.4362 33.0661L20.2117 32.9306C21.0057 33.4575 21.7775 34.0252 22.5585 34.5724L27.1833 37.8152L30.671 40.2603C30.7675 40.3289 30.8565 40.3975 30.9585 40.4625C31.0981 40.5655 31.2502 40.6502 31.4112 40.7148C31.7987 40.8401 32.2079 40.8843 32.6133 40.8446C33.2588 40.808 33.8901 40.6401 34.4685 40.3512C34.9248 40.1174 35.4647 39.7464 35.6056 39.214C35.6397 39.0568 35.6534 38.896 35.6465 38.7353C35.6465 38.496 35.6465 38.2549 35.6465 38.0155L35.6223 33.2219C35.6223 33.1477 35.6223 33.0735 35.6223 32.9993L35.6075 33.2145C35.6292 32.989 35.6988 32.7708 35.8116 32.5744L35.6743 32.7989C35.7244 32.721 35.78 32.6524 35.8357 32.58C35.9748 32.3945 35.7466 32.6301 35.7411 32.6524C35.7411 32.619 35.8338 32.5837 35.8598 32.5615C35.9785 32.4539 35.5389 32.747 35.6743 32.6746C35.8431 32.58 35.2216 32.849 35.4572 32.7692C35.4795 32.7692 34.9322 32.9213 35.1623 32.8638C34.9925 32.9119 34.8174 32.9381 34.641 32.9418C34.4555 32.9418 34.4258 32.9529 34.5445 32.9418C35.0247 32.9334 35.5001 32.8444 35.9507 32.6783C36.2587 32.5633 36.7354 32.3518 36.9432 32.068C37.0786 31.8825 37.1992 31.6357 36.9822 31.4447C36.7651 31.2536 36.3477 31.1905 36.0435 31.1979C34.4295 31.2313 32.0698 32.0012 32.0085 33.938C31.9993 34.2311 32.0085 34.5279 32.0085 34.821L32.029 38.6463C32.029 39.008 32.0438 39.3716 32.029 39.7334L32.0456 39.5182C32.034 39.6285 32.0013 39.7356 31.9492 39.8336L32.0865 39.6091C32.0123 39.7278 31.8527 39.8299 32.1607 39.5887L32.1199 39.6202C32.291 39.4975 32.4783 39.3988 32.6764 39.3271C33.1324 39.1477 33.6245 39.079 34.1123 39.1268C34.5 39.1973 34.2978 39.1824 34.1698 39.1156L34.3961 39.2511C34.0251 39.0155 33.6856 38.7557 33.3313 38.509L30.8454 36.767L25.1334 32.7618C24.6566 32.4279 24.1817 32.0921 23.705 31.76C23.1593 31.3865 22.511 31.192 21.8498 31.2035H15.0471C13.3978 31.2035 11.7468 31.1794 10.0976 31.2035C10.0698 31.2017 10.0419 31.2017 10.0141 31.2035C10.0141 31.2035 10.4333 31.2425 10.2181 31.2035C10.0029 31.1645 10.5131 31.3204 10.2979 31.2258C10.2046 31.1878 10.1135 31.1444 10.0252 31.0959L10.2534 31.2313C10.0493 31.1033 9.87684 30.9308 9.7488 30.7267L9.86196 30.9122C9.63749 30.5227 9.64862 30.1349 9.64862 29.7101V10.2312C9.64862 9.30364 9.64862 8.36123 9.64862 7.42625C9.64862 7.37245 9.64862 7.32051 9.64862 7.26671L9.63378 7.4819C9.65706 7.25687 9.72788 7.03934 9.84155 6.84374L9.70427 7.06821C9.7692 6.96618 9.8601 6.88269 9.92503 6.78623L9.7692 6.92536C9.79889 6.89939 9.83042 6.87527 9.86381 6.85116C10.0623 6.68976 9.50577 7.05151 9.73396 6.93464L9.43342 7.06635C9.60595 7.00142 9.50763 7.0311 9.1366 7.15169L9.19597 7.1387C8.97271 7.19822 8.74248 7.22754 8.51142 7.2259C8.53554 7.2259 8.55595 7.2259 8.58006 7.2259H35.5704C36.767 7.2259 37.9654 7.24259 39.1638 7.2259H39.1786C39.3642 7.2259 39.1304 7.25558 38.9764 7.21105L39.0395 7.22033C39.1675 7.2463 39.1211 7.23332 38.9004 7.17952C39.0061 7.23703 39.1267 7.26671 39.2324 7.32793L39.008 7.1925C39.2116 7.32104 39.384 7.49343 39.5126 7.6971L39.3994 7.51158C39.6239 7.90116 39.6109 8.28888 39.6109 8.71371V28.1926C39.6109 29.1202 39.6109 30.0626 39.6109 30.9976C39.6109 31.0514 39.6109 31.1033 39.6109 31.1571L39.6276 30.9419C39.6034 31.1668 39.5327 31.3841 39.4198 31.5801L39.5571 31.3556C39.5145 31.4236 39.4674 31.4887 39.4161 31.5504C39.3938 31.5764 39.3549 31.6079 39.3345 31.6376C39.4773 31.4205 39.5441 31.4688 39.4458 31.5356C39.4142 31.5578 39.3771 31.5819 39.3475 31.6061C39.6406 31.3612 39.6443 31.4335 39.533 31.4892C39.7586 31.3735 40.0008 31.2934 40.2509 31.2517C40.3214 31.2369 40.9577 31.2016 40.672 31.1998H36.0398C35.5593 31.2054 35.0835 31.2945 34.6336 31.4632C34.3256 31.5782 33.8488 31.7897 33.6411 32.0736C33.5056 32.2591 33.3851 32.5058 33.6021 32.6969C33.8192 32.888 34.2366 32.9492 34.5427 32.9492Z" fill="#87226C"/>
<path d="M110.629 11.7859C109.831 10.1434 108.733 8.66432 107.392 7.42451C106.029 6.20129 104.371 5.35413 102.582 4.96646C100.358 4.50643 98.0482 4.72356 95.9495 5.58978C93.8532 6.44314 92.1595 8.06824 90.9815 9.97532C89.0021 13.1773 88.7386 17.3383 89.8462 20.8891C90.4417 22.7961 91.4286 24.5548 92.525 26.2152C93.6508 27.9618 94.8968 29.628 96.2538 31.2018C98.7211 33.9937 101.819 36.0882 104.658 38.4628C105.055 38.7942 105.447 39.1318 105.836 39.4757C106.069 39.6834 106.578 39.6779 106.845 39.6333C107.322 39.5602 107.779 39.3863 108.184 39.1232C108.908 38.6371 109.622 38.1344 110.332 37.6279C112.133 36.3454 113.906 35.0239 115.651 33.6635C117.606 32.1349 119.525 30.5469 121.335 28.8402C122.263 27.9701 123.159 27.0667 124.005 26.1168C124.348 25.7347 124.678 25.3432 124.994 24.9388C125.335 24.5344 125.638 24.0998 125.901 23.6402C126.259 22.8974 126.562 22.1292 126.808 21.3417C127.414 19.6052 127.788 17.7963 127.921 15.9618C128.034 13.936 127.735 11.7859 126.726 10.0031C125.799 8.36692 124.352 7.17778 122.68 6.35224C120.925 5.49373 118.962 5.15392 117.02 5.37273C115.317 5.57608 113.683 6.16141 112.238 7.08502C111.455 7.57352 110.731 8.1492 110.078 8.80102C109.846 9.03477 109.614 9.26851 109.397 9.51525C109.18 9.76198 109.722 9.20729 109.499 9.41136C109.358 9.54122 109.219 9.67479 109.078 9.80836L108.327 10.5152C108.106 10.7248 107.798 11.0476 107.789 11.3834C107.789 11.5201 107.836 11.6527 107.922 11.7588C108.008 11.865 108.128 11.9381 108.262 11.9659C108.657 12.0556 109.069 12.0318 109.451 11.8972C109.916 11.7644 110.346 11.5314 110.711 11.2145C111.121 10.8287 111.538 10.4484 111.943 10.0551C112.128 9.88071 112.286 9.69334 112.453 9.50968C112.62 9.32602 112.214 9.75085 112.403 9.55977C112.479 9.48371 112.555 9.40579 112.633 9.33159C112.874 9.10155 113.124 8.88079 113.386 8.67301C113.453 8.62107 113.709 8.42628 113.436 8.63035C113.163 8.83441 113.395 8.66189 113.458 8.61736C113.592 8.52275 113.727 8.43185 113.865 8.34651C114.002 8.26118 114.115 8.19439 114.236 8.12204C114.479 7.9829 113.787 8.3595 114.033 8.23335C114.109 8.19439 114.186 8.15358 114.263 8.11647C114.377 8.06267 114.492 8.00888 114.608 7.96064C114.673 7.93096 114.74 7.90499 114.807 7.87716C115.113 7.75287 114.367 8.0367 114.601 7.95693C114.835 7.87716 115.1 7.79183 115.356 7.7269L115.44 7.70649C115.566 7.67495 115.751 7.65269 115.161 7.76771L115.325 7.73432C115.451 7.7102 115.577 7.68979 115.696 7.67124C115.814 7.65269 115.924 7.64156 116.039 7.63043L116.196 7.61559H116.274C116.491 7.59889 115.877 7.63414 116.05 7.62858C116.479 7.60998 116.909 7.623 117.336 7.66753C117.434 7.67681 117.53 7.68979 117.629 7.70278C117.846 7.73061 117.374 7.66197 117.46 7.67681L117.629 7.70649C117.805 7.73803 117.979 7.77513 118.152 7.81594C118.737 7.95649 119.306 8.1573 119.849 8.41515L119.586 8.28715C120.808 8.84688 121.894 9.66529 122.769 10.6858L122.604 10.4855C123.515 11.6303 124.117 12.9905 124.35 14.4351L124.305 14.1809C124.602 15.9303 124.472 17.7298 124.12 19.4625C124.031 19.9058 123.925 20.3474 123.808 20.787L123.884 20.5032C123.575 21.6698 123.171 22.8095 122.678 23.9111C122.645 23.9816 122.608 24.0502 122.58 24.1207C122.686 23.861 122.793 23.7849 122.669 23.9686C122.599 24.0743 122.526 24.1782 122.452 24.2821C122.315 24.4676 122.172 24.6661 122.025 24.8535C121.693 25.2802 121.344 25.6902 120.985 26.0909C120.795 26.3024 120.602 26.5107 120.406 26.716C120.315 26.8125 120.103 27.0277 120.504 26.6159L120.356 26.768C120.248 26.8774 120.142 26.9869 120.035 27.0945C118.233 28.8677 116.334 30.5399 114.347 32.1034C113.401 32.864 112.442 33.6091 111.471 34.3388L111.141 34.5855C110.896 34.771 111.548 34.2831 111.303 34.4668L111.117 34.6004L110.473 35.0771C110.078 35.3665 109.682 35.6541 109.286 35.9398C108.383 36.5909 107.466 37.2198 106.552 37.8561L106.511 37.8839L108.859 37.5296C106.236 35.2107 103.305 33.2498 100.78 30.8196C100.06 30.1183 99.3801 29.3769 98.7434 28.599L98.9085 28.7994C97.845 27.4848 96.85 26.1164 95.9273 24.6995C94.9919 23.3329 94.204 21.8709 93.5768 20.3381C93.2326 19.474 92.9747 18.5779 92.807 17.663L92.8515 17.919C92.5215 15.9995 92.6063 14.0317 93.1001 12.1477L93.0259 12.4297C93.277 11.488 93.6512 10.5835 94.1389 9.73972L94.2298 9.59131C94.3189 9.43919 94.0332 9.89369 94.1742 9.68035C94.2373 9.58389 94.3003 9.49484 94.3597 9.39281C94.5063 9.18318 94.6602 8.98097 94.8216 8.78432C94.8958 8.69342 94.9719 8.59881 95.0498 8.51904C95.1277 8.43927 95.4524 8.10534 95.0498 8.50049C95.2353 8.31497 95.4208 8.12946 95.6175 7.96621C95.7065 7.88829 95.803 7.81409 95.8902 7.73803C95.9774 7.66197 96.1518 7.56365 95.6935 7.88273L95.8642 7.76029C95.9607 7.69536 96.0497 7.63228 96.1573 7.57478L96.2761 7.50242C96.623 7.30022 95.9644 7.66568 96.1165 7.58776C96.315 7.48759 96.5135 7.39297 96.7176 7.30949L96.7825 7.28352C96.9569 7.21488 96.8697 7.25013 96.5154 7.38555L96.6489 7.33918C96.7807 7.2928 96.9142 7.25198 97.0496 7.21302C97.1851 7.17407 97.276 7.15552 97.391 7.12583C96.764 7.28537 97.2055 7.16665 97.3613 7.13882C97.6173 7.0943 97.8752 7.0609 98.1349 7.03864L98.3111 7.02566C98.5078 7.01082 97.8826 7.0405 98.1572 7.03493C98.2759 7.03493 98.3946 7.03493 98.5133 7.03493C98.7749 7.03493 99.0365 7.04606 99.2981 7.07018C99.4391 7.08131 99.5819 7.09986 99.7229 7.11656C99.8101 7.12769 99.9622 7.16665 99.5912 7.0943C99.6728 7.11099 99.7563 7.12212 99.8379 7.13696C100.105 7.18767 100.37 7.24951 100.634 7.32248C101.177 7.47466 101.707 7.67327 102.216 7.91612L101.953 7.78997C103.346 8.47881 104.574 9.45953 105.554 10.6654L105.39 10.4651C106.11 11.3545 106.729 12.3207 107.236 13.3461C107.377 13.6262 107.726 13.7171 108.008 13.7264C108.461 13.7311 108.909 13.6294 109.316 13.4296C109.735 13.2546 110.105 12.9801 110.394 12.63C110.555 12.4037 110.754 12.0846 110.609 11.7971L110.629 11.7859Z" fill="#87226C"/>
<path d="M90.3953 106.488H100.289L98.0013 103.737C97.8554 108.789 97.6247 113.837 97.3094 118.881C97.2661 119.587 97.2203 120.294 97.1721 121.003C97.1498 121.341 97.1276 121.678 97.1034 122.018C97.1073 122.347 97.0686 122.675 96.9884 122.993L97.0404 122.865C96.8549 123.262 96.315 123.292 95.9273 123.366L96.0627 123.34C94.5786 123.613 93.0945 123.58 91.5937 123.583C90.9481 123.583 90.2951 123.598 89.6569 123.641C89.2568 123.68 88.8548 123.695 88.453 123.687C88.2918 123.683 88.1315 123.662 87.9743 123.626L87.8686 123.596C87.7257 123.565 88.0541 123.693 87.9372 123.622C87.9066 123.605 87.875 123.59 87.8426 123.576C87.7462 123.518 87.8018 123.556 88.0114 123.685C87.9001 123.604 87.9706 123.665 88.2248 123.871C88.0764 123.736 88.5197 124.164 88.4678 124.112L88.7479 124.429C89.2253 125.123 89.3805 125.337 89.2136 125.071C89.4826 125.526 89.3805 125.385 89.3286 125.257C89.5011 125.641 89.4065 125.474 89.3861 125.381C89.3768 125.337 89.3657 125.29 89.3527 125.247C89.3026 125.082 89.3694 125.444 89.3527 125.264C89.3434 125.129 89.3323 124.997 89.3342 124.862C89.3342 124.153 89.4584 123.439 89.5197 122.732C89.5809 122.025 89.6384 121.266 89.6848 120.534C89.9129 116.942 89.8703 113.349 89.8536 109.755V107.824C89.8536 107.473 89.8053 107.108 89.9278 106.772L89.8777 106.9C89.9153 106.792 89.9801 106.696 90.0659 106.621C90.1518 106.545 90.2556 106.493 90.3675 106.47L90.232 106.496C90.2831 106.489 90.3345 106.484 90.386 106.483C90.9426 106.466 90.0985 105.273 89.9909 105.127C89.7154 104.736 89.3981 104.376 89.0447 104.054C88.8592 103.893 88.5531 103.563 88.3027 103.57C87.9836 103.57 87.7016 103.674 87.5606 103.969C87.4457 104.199 87.3884 104.454 87.3937 104.711C87.3937 104.863 87.4048 105.017 87.4048 105.171L87.4159 107.985C87.4159 110.471 87.4586 112.957 87.3677 115.443C87.3244 116.592 87.2626 117.739 87.1822 118.884C87.1389 119.466 87.0907 120.046 87.0375 120.624C86.9893 121.144 86.9095 121.665 86.8965 122.186C86.8815 122.57 86.9355 122.952 87.056 123.316C87.3918 124.259 88.0801 125.112 88.811 125.776C89.1595 126.121 89.5868 126.376 90.0558 126.518C90.3111 126.577 90.5731 126.602 90.8349 126.592C91.6456 126.583 92.4526 126.496 93.2615 126.487C94.3745 126.476 95.5025 126.509 96.6211 126.433C97.2048 126.395 97.7854 126.319 98.3594 126.207C98.6123 126.17 98.8609 126.107 99.1014 126.021C99.2138 125.968 99.3109 125.887 99.3839 125.786C99.4568 125.685 99.5032 125.568 99.5188 125.444C99.5619 125.182 99.5854 124.916 99.5893 124.65C99.6097 124.359 99.6301 124.066 99.6487 123.774C99.6895 123.19 99.7266 122.606 99.7637 122.021C100.061 117.379 100.285 112.731 100.437 108.08C100.456 107.494 100.474 106.909 100.491 106.323C100.469 106.085 100.386 105.857 100.25 105.661C100.066 105.332 99.8521 105.021 99.6097 104.733C99.4085 104.494 99.193 104.266 98.9641 104.053C98.8287 103.926 98.4447 103.568 98.2128 103.568H88.3194C87.7628 103.568 88.6125 104.787 88.7127 104.923C88.9882 105.314 89.3055 105.674 89.6588 105.997C89.8258 106.179 90.1244 106.488 90.3953 106.488Z" fill="#87226C"/>
<path d="M98.7899 107.848C100.339 108 101.877 108.093 103.428 107.919C105.179 107.726 106.851 107.08 108.277 106.045C110.379 104.513 111.499 102.073 112.358 99.6949C112.872 98.2572 113.329 96.7842 114.028 95.4281L113.904 95.6674C114.101 95.2756 114.342 94.9078 114.623 94.571C114.65 94.5312 114.683 94.4955 114.72 94.4653C114.653 94.5024 114.507 94.6749 114.666 94.5284C114.722 94.4783 114.852 94.3317 114.915 94.3243C114.915 94.3243 114.579 94.5339 114.768 94.43C114.837 94.3929 115.048 94.2798 114.75 94.43C114.451 94.5803 114.627 94.4913 114.692 94.4616C114.84 94.3948 115.015 94.3948 114.425 94.5544L114.54 94.5191C114.757 94.4486 114.212 94.5915 114.232 94.5896C114.281 94.5869 114.329 94.5788 114.377 94.5655C114.54 94.5265 113.937 94.5952 114.104 94.597H114.251C114.436 94.5859 114.037 94.597 114.03 94.5859C114.116 94.6052 114.205 94.6152 114.293 94.6156C114.328 94.6156 114.412 94.6156 114.44 94.6415C114.44 94.6415 114.119 94.5562 114.29 94.61C114.375 94.636 114.462 94.6601 114.547 94.6916C114.729 94.7597 114.905 94.8409 115.074 94.9347L114.84 94.8029C115.387 95.12 115.856 95.5555 116.213 96.0774L116.089 95.8919C116.62 96.6896 116.807 97.632 116.809 98.58V98.3555C116.77 101.73 114.469 104.687 114.935 108.119C114.972 108.386 115.436 108.49 115.62 108.512C116.972 108.728 118.328 108.544 119.684 108.501H120.079H120.265C120.45 108.501 119.873 108.483 120.122 108.501C120.376 108.515 120.628 108.541 120.879 108.581C120.938 108.59 120.998 108.6 121.064 108.613L121.17 108.633L121.02 108.6C121.132 108.638 121.247 108.671 121.363 108.698C121.608 108.779 121.845 108.882 122.072 109.006L121.838 108.876C122.284 109.128 122.665 109.481 122.951 109.906L122.827 109.72C123.495 110.752 123.597 112.024 123.632 113.221C123.68 114.792 123.697 116.365 123.73 117.938C123.747 118.777 123.775 119.608 123.767 120.458V120.231C123.753 121.437 123.634 122.667 123.072 123.756L123.196 123.519C123.054 123.781 122.886 124.03 122.697 124.261C122.658 124.309 122.615 124.359 122.573 124.405L122.51 124.476C122.426 124.572 122.643 124.348 122.63 124.352C122.532 124.389 122.411 124.559 122.328 124.63C122.244 124.7 122.109 124.795 122.003 124.882C121.972 124.908 122.33 124.659 122.198 124.745L122.118 124.797C122.055 124.838 121.993 124.877 121.933 124.914C121.872 124.951 121.816 124.982 121.766 125.008C121.465 125.166 121.697 125.047 121.766 125.008C121.836 124.971 122.066 124.851 121.766 125.008L121.528 125.112L121.343 125.186C121.05 125.299 121.68 125.069 121.562 125.108C121.443 125.147 121.291 125.201 121.153 125.242C121.016 125.283 120.897 125.314 120.768 125.348L120.638 125.379C120.573 125.4 121.144 125.264 120.955 125.305L120.725 125.355C120.45 125.411 120.168 125.457 119.894 125.496C119.749 125.517 119.604 125.531 119.46 125.55C119.404 125.55 119.92 125.504 119.74 125.52L119.64 125.53L119.408 125.552C118.72 125.607 118.028 125.632 117.339 125.645C116.948 125.645 116.558 125.645 116.167 125.645L115.627 125.635H115.356C115.297 125.635 115.236 125.635 115.171 125.635C115.23 125.635 115.503 125.648 115.297 125.635C113.766 125.571 112.24 125.423 110.726 125.194C110.295 125.127 109.866 125.054 109.436 124.975L108.837 124.86L108.548 124.799L108.424 124.771C108.266 124.737 108.689 124.836 108.459 124.771C107.668 124.589 106.904 124.304 106.186 123.923L106.42 124.055C105.379 123.463 104.487 122.654 103.587 121.871L100.589 119.259C100.352 119.051 99.9252 119.031 99.6358 119.04C99.1546 119.059 98.6816 119.171 98.2426 119.369C97.9068 119.523 97.4876 119.717 97.2853 120.04C97.1555 120.246 97.059 120.497 97.2853 120.689C98.7398 121.957 100.165 123.274 101.669 124.481C102.393 125.084 103.197 125.583 104.058 125.965C104.989 126.327 105.956 126.591 106.941 126.752C108.829 127.118 110.74 127.351 112.661 127.45C114.564 127.574 116.474 127.553 118.375 127.387C121.899 127.027 126.231 125.717 127.107 121.782C127.273 120.911 127.342 120.025 127.313 119.139C127.313 118.211 127.281 117.283 127.262 116.356L127.203 113.369C127.186 112.545 127.19 111.716 127.094 110.898C127.032 110.154 126.815 109.431 126.455 108.776C126.011 108.021 125.33 107.435 124.519 107.106C122.74 106.353 120.788 106.689 118.925 106.735C118.807 106.735 118.686 106.735 118.567 106.735C118.506 106.739 118.444 106.739 118.382 106.735C118.402 106.735 118.764 106.757 118.51 106.735C118.256 106.713 118.037 106.696 117.799 106.657L118.484 107.051C118.44 106.735 118.42 106.417 118.423 106.099V106.323C118.46 104.283 119.337 102.428 119.892 100.506C120.389 98.7803 120.729 96.6358 119.757 95.0088C119.32 94.2574 118.68 93.6445 117.91 93.2408C117.141 92.8371 116.273 92.659 115.406 92.727C113.912 92.8223 112.505 93.4664 111.457 94.5358C110.813 95.2129 110.405 96.0941 110.038 96.9475C109.18 98.9362 108.665 101.062 107.667 102.991L107.791 102.754C107.488 103.34 107.134 103.899 106.734 104.424C106.632 104.555 106.526 104.685 106.416 104.81C106.37 104.863 106.324 104.917 106.275 104.969C106.227 105.021 106.21 105.04 106.177 105.073C106.069 105.192 106.377 104.876 106.26 104.986C106.026 105.217 105.779 105.434 105.518 105.635C105.488 105.653 105.46 105.673 105.433 105.696C105.411 105.719 105.745 105.485 105.619 105.57L105.411 105.706L105.225 105.815L105.103 105.884C104.917 105.997 105.305 105.78 105.316 105.778C105.232 105.805 105.152 105.843 105.077 105.889C104.99 105.928 104.903 105.963 104.815 105.999C104.535 106.11 105.264 105.85 104.977 105.939C104.875 105.971 104.773 106.002 104.671 106.03L104.554 106.062C104.368 106.116 104.891 105.988 104.839 105.995C104.749 106.012 104.654 106.036 104.565 106.052C104.368 106.09 104.166 106.104 103.969 106.142C103.932 106.142 104.398 106.101 104.216 106.114H104.096L103.812 106.132C103.626 106.132 103.431 106.147 103.242 106.147C103.133 106.147 103.023 106.147 102.914 106.147H102.791C102.53 106.147 103.086 106.16 102.899 106.147C102.712 106.134 102.489 106.127 102.283 106.112C101.847 106.082 101.413 106.039 100.984 105.997C100.537 105.961 100.087 106.01 99.6581 106.143C99.224 106.258 98.8188 106.463 98.4689 106.744C98.2983 106.902 97.9996 107.179 98.1109 107.446C98.2222 107.713 98.5283 107.817 98.7936 107.839L98.7899 107.848Z" fill="#87226C"/>
<path d="M25.3151 88.054C23.6302 87.7701 21.9006 87.9227 20.2914 88.4974C19.0239 88.9667 17.809 89.5673 16.6665 90.2895C14.6535 91.5152 12.8393 93.041 11.2866 94.8142C9.70029 96.612 8.43122 98.6664 7.53368 100.89C6.58485 103.319 6.14293 105.917 6.23509 108.524C6.35615 112.873 8.12619 117.013 11.1864 120.105C13.5814 122.506 16.7927 124.025 20.0911 124.699C23.2308 125.31 26.4682 125.205 29.5615 124.391C32.4769 123.641 35.2185 122.331 37.6332 120.534C39.9912 118.812 41.9267 116.576 43.2932 113.996C44.6185 111.435 45.1494 108.537 44.8182 105.672C44.3729 101.88 42.4065 98.3686 39.7778 95.6545C38.0432 93.8662 35.9525 92.4563 33.73 91.3469C31.4389 90.2064 28.9853 89.4267 26.456 89.0354C25.2356 88.842 24.0019 88.7434 22.7662 88.7405C22.4898 88.7405 22.0445 88.7145 21.8126 88.926C21.7711 88.9675 21.7381 89.0168 21.7156 89.0711C21.6931 89.1253 21.6815 89.1835 21.6815 89.2423C21.6815 89.301 21.6931 89.3592 21.7156 89.4135C21.7381 89.4677 21.7711 89.517 21.8126 89.5586C22.0666 89.8606 22.3917 90.0946 22.7588 90.2394C23.1925 90.4494 23.6634 90.5717 24.1446 90.5993C24.8495 90.5993 25.5545 90.6327 26.2557 90.7013C26.4171 90.718 26.5785 90.7347 26.7399 90.7551L26.8772 90.7718C27.0738 90.7978 26.4412 90.7125 26.6378 90.7403L26.9124 90.7811C27.2686 90.8349 27.6211 90.898 27.9735 90.9666C28.326 91.0353 28.6525 91.1187 28.9902 91.2004C29.018 91.2004 28.4559 91.0594 28.7137 91.1299L28.8158 91.1558L29.0495 91.2208C29.235 91.2709 29.4057 91.3246 29.5838 91.3784C29.9153 91.4823 30.2442 91.5936 30.5707 91.7124L30.8323 91.8088C30.8954 91.8311 30.3518 91.6233 30.5336 91.6938L30.6616 91.7439C30.8342 91.8126 31.0067 91.883 31.1755 91.9554C31.4964 92.0908 31.8118 92.2355 32.1235 92.3858C32.2793 92.4619 32.4351 92.5398 32.5873 92.6195L32.68 92.6678C32.8563 92.7587 32.2923 92.46 32.4667 92.5546L32.7097 92.6863C33.3244 93.0267 33.9213 93.3982 34.4981 93.7994L34.6947 93.9385C34.8413 94.0424 34.396 93.7215 34.5426 93.8291L34.6242 93.8903C34.7726 93.9998 34.9192 94.1092 35.0639 94.2242C35.3335 94.4357 35.5981 94.6546 35.8579 94.8809C36.1176 95.1073 36.3779 95.3484 36.6389 95.6044C36.7613 95.725 36.8819 95.8456 37.0006 95.9755C37.1509 96.1313 36.7817 95.7417 36.9858 95.9606L37.1713 96.1628C38.1754 97.279 39.0326 98.5191 39.7221 99.8527L39.6015 99.6171C40.5046 101.332 41.0838 103.198 41.3101 105.123C41.3629 105.622 41.3889 106.123 41.388 106.624V106.407C41.3637 108.775 40.7531 111.101 39.6108 113.176C39.291 113.764 38.9367 114.332 38.5497 114.877L38.6758 114.692C37.1818 116.756 35.3104 118.519 33.1605 119.886C32.5421 120.282 31.9114 120.647 31.2683 120.981L31.502 120.86C29.9821 121.646 28.3776 122.255 26.7195 122.676C26.5191 122.727 26.3188 122.775 26.1166 122.819L25.8142 122.884L25.6639 122.916C25.4394 122.96 25.996 122.853 25.7715 122.895C25.3615 122.97 24.9478 123.036 24.5341 123.081C24.1204 123.125 23.6956 123.172 23.2745 123.198C23.0723 123.209 22.8682 123.218 22.666 123.224C22.5658 123.224 22.4638 123.224 22.3636 123.224C22.1521 123.224 22.8089 123.224 22.564 123.224H22.3896C21.9815 123.224 21.5733 123.206 21.1652 123.17C20.9574 123.153 20.7515 123.133 20.5456 123.111L20.3972 123.092C20.1133 123.057 20.7385 123.138 20.6532 123.127L20.336 123.079C19.9365 123.017 19.5395 122.939 19.145 122.845C19.0392 122.821 18.6441 122.719 19.0745 122.83C19.5049 122.942 19.0912 122.83 18.9873 122.804C18.8018 122.751 18.607 122.693 18.4178 122.632C18.2285 122.571 18.03 122.498 17.8371 122.428C17.557 122.326 18.3324 122.613 18.1191 122.537L17.9818 122.482L17.6868 122.361C17.4976 122.279 17.3121 122.194 17.1303 122.105C17.0468 122.066 16.9633 122.025 16.8817 121.983L16.7481 121.916C16.5014 121.79 17.1971 122.155 16.9559 122.025C16.5849 121.827 16.2324 121.615 15.8855 121.385L15.6517 121.228L15.5275 121.14C15.3141 120.992 15.8762 121.396 15.6703 121.244C15.4996 121.118 15.3308 120.99 15.1657 120.857C14.8355 120.592 14.5183 120.312 14.214 120.016C14.1398 119.944 14.0638 119.87 13.9895 119.794L13.8782 119.68C13.7484 119.549 14.1287 119.948 13.9487 119.755C13.7985 119.591 13.6482 119.424 13.5035 119.256C12.9053 118.55 12.3702 117.793 11.9044 116.994C11.7597 116.747 11.6205 116.493 11.487 116.234L11.6094 116.469C10.3828 114.026 9.754 111.326 9.77468 108.592V108.811C9.79389 105.71 10.5756 102.662 12.0509 99.9343C12.449 99.1983 12.8913 98.4871 13.3755 97.8046L13.2475 97.9901C14.8944 95.6948 16.9533 93.7253 19.3193 92.1817C19.992 91.7415 20.6867 91.3359 21.4008 90.9666L21.1652 91.0872C22.0255 90.6294 22.9314 90.2632 23.8681 89.9945L24.1946 89.9129L24.3579 89.8776C24.5137 89.8387 24.0889 89.9222 24.3208 89.8776C24.5527 89.8331 24.7864 89.8053 25.0202 89.7867C25.1315 89.7867 25.2409 89.7701 25.3522 89.7663C25.6194 89.7663 25.3151 89.733 25.2465 89.7663C25.3018 89.7579 25.3581 89.7579 25.4135 89.7663C25.5229 89.7663 25.6342 89.7775 25.7437 89.7867C25.8012 89.7867 26.0924 89.8294 25.7696 89.7867C25.4469 89.7441 25.74 89.7867 25.7956 89.7867C26.1481 89.8461 26.6082 89.9092 26.9606 89.7867C27.174 89.7107 27.404 89.5326 27.3224 89.2692C27.2278 88.9594 26.9161 88.7126 26.6527 88.5642C26.2422 88.313 25.7887 88.14 25.3151 88.054Z" fill="#87226C"/>
<path d="M16.2287 110.244L17.7128 111.946C18.2415 112.547 18.7554 113.168 19.336 113.721C19.9021 114.282 20.5556 114.748 21.2709 115.099C22.1201 115.496 23.0236 115.763 23.9516 115.893C24.6383 115.992 25.3321 116.033 26.0256 116.016C26.8739 116.022 27.7205 115.937 28.5505 115.762C29.9004 115.447 31.1661 114.844 32.2607 113.994C33.3744 113.128 34.2649 112.009 34.8579 110.729C34.9499 110.546 35.0022 110.345 35.0115 110.141C35.0207 109.936 34.9867 109.732 34.9117 109.541C34.7274 109.103 34.4006 108.74 33.9842 108.51C33.5761 108.268 33.0977 108.172 32.628 108.239C32.244 108.319 31.8044 108.504 31.63 108.887C31.3511 109.496 30.9951 110.067 30.5707 110.586L30.8267 110.274C30.2953 110.916 29.6698 111.473 28.9716 111.927L29.3129 111.71C28.6899 112.111 28.0144 112.423 27.3057 112.638L27.7082 112.519C26.9827 112.722 26.2352 112.836 25.4821 112.858L25.9236 112.842C25.0352 112.881 24.1451 112.825 23.2689 112.673L23.7271 112.762C23.2823 112.678 22.8472 112.548 22.4285 112.376L22.883 112.575C22.5446 112.422 22.2227 112.236 21.9221 112.018L22.3246 112.309C21.7241 111.842 21.175 111.312 20.6866 110.729L20.9964 111.079C20.3656 110.363 19.7386 109.645 19.1078 108.929C18.8107 108.541 18.4054 108.248 17.9428 108.089C17.5569 107.97 17.0152 107.94 16.6442 108.133C16.457 108.214 16.2919 108.339 16.1627 108.497C16.0336 108.654 15.9443 108.841 15.9022 109.041C15.8666 109.25 15.8746 109.464 15.9257 109.671C15.9768 109.877 16.0698 110.07 16.199 110.239L16.2287 110.244Z" fill="#87226C"/>
<path d="M18.7038 99.4168C18.6329 100.735 18.758 102.056 19.0749 103.337C19.1175 103.551 19.2043 103.754 19.3298 103.933C19.4554 104.112 19.6168 104.263 19.8039 104.376C20.2081 104.599 20.6805 104.665 21.1303 104.561C21.6132 104.451 22.0408 104.172 22.3362 103.775C22.5699 103.424 22.7759 102.951 22.6627 102.522C22.4291 101.621 22.3008 100.696 22.2805 99.7656V100.196C22.2805 99.9529 22.2805 99.7099 22.2898 99.4669C22.3126 99.2491 22.2892 99.029 22.2211 98.8209C22.153 98.6128 22.0418 98.4214 21.8947 98.2592C21.5745 97.9454 21.1445 97.769 20.6962 97.7676C20.2016 97.7658 19.7226 97.9408 19.3457 98.2611C19.0229 98.556 18.7075 98.9697 18.6871 99.4261L18.7038 99.4168Z" fill="#87226C"/>
<path d="M28.6195 98.3646C28.5857 99.994 28.752 101.621 29.1149 103.21C29.3208 104.09 30.4505 104.366 31.2241 104.169C31.9977 103.973 32.955 103.336 32.7398 102.418C32.4761 101.291 32.3189 100.141 32.2704 98.9842L32.2853 99.3552C32.2717 99.0077 32.268 98.6608 32.2741 98.3145C32.2909 98.1262 32.2623 97.9366 32.1906 97.7616C32.119 97.5867 32.0064 97.4315 31.8623 97.309C31.5129 97.0433 31.0822 96.907 30.6435 96.9232C30.1531 96.9259 29.6756 97.0801 29.2762 97.3647C28.9813 97.5984 28.6269 97.9546 28.6214 98.3572L28.6195 98.3646Z" fill="#87226C"/>
<path d="M15.0215 37.0471C13.8088 39.9439 12.7742 42.9121 11.9234 45.935C9.36992 55.0297 8.46828 64.5086 9.26129 73.9215C9.52647 77.0508 9.98307 80.1609 10.6285 83.2343C10.7102 83.6214 10.7949 84.0079 10.8827 84.3938C10.967 84.6716 11.0921 84.9354 11.2537 85.1766C11.4944 85.5882 11.7608 85.9841 12.0514 86.3621C12.2623 86.6691 12.5062 86.9522 12.7786 87.2062C12.8213 87.2414 13.0903 87.4714 13.0402 87.2525C12.1701 83.4021 11.597 79.4904 11.3261 75.5522C11.0558 71.6286 11.0806 67.6902 11.4003 63.7703C11.5796 61.5577 11.8523 59.355 12.2184 57.1623L12.2035 57.2532C12.9707 52.6613 14.1466 48.1471 15.7172 43.7645C16.1624 42.5277 16.6392 41.3027 17.1475 40.0895C17.2105 39.9392 17.0306 39.6461 16.9786 39.5441C16.7744 39.1569 16.5425 38.7849 16.2848 38.431C16.0394 38.0678 15.7685 37.7224 15.4741 37.3977C15.4389 37.3587 15.0567 36.9691 15.0215 37.0508V37.0471Z" fill="#87226C"/>
<path d="M117.219 40.3973C119.419 43.9309 121.138 47.7421 122.33 51.7303C122.667 52.8564 122.964 53.9973 123.222 55.1456L123.159 54.8636C124.461 60.7132 124.703 66.749 123.873 72.6841C123.638 74.3582 123.315 76.019 122.907 77.6595L122.977 77.3794C122.359 79.8582 121.539 82.2822 120.526 84.6274C120.239 85.2953 119.935 85.9551 119.612 86.6068C119.553 86.7452 119.54 86.8984 119.573 87.0448C119.607 87.1912 119.685 87.3235 119.797 87.4231C120.106 87.6961 120.49 87.87 120.899 87.9221C121.376 88.0071 121.867 87.9766 122.33 87.8331C122.66 87.7125 123.027 87.5455 123.19 87.2116C124.597 84.3422 125.702 81.3351 126.491 78.2383C128.915 68.7774 128.534 58.8154 125.394 49.5672C124.374 46.553 123.047 43.6512 121.435 40.9075C121.231 40.5624 121.023 40.2198 120.81 39.8797C120.363 39.1636 119.326 38.9763 118.538 39.1136C118.156 39.1803 117.695 39.2879 117.425 39.5866C117.239 39.7944 117.054 40.1153 117.228 40.3973H117.219Z" fill="#87226C"/>
<path d="M80.4999 8.69696C76.3462 7.79809 72.1283 7.22742 67.885 6.99024C63.6946 6.7483 59.4915 6.84446 55.3165 7.27778C53.1274 7.51153 50.9254 7.91409 48.9423 8.91215C48.7456 9.01048 49.8049 10.3963 49.8995 10.5187C50.1633 10.8683 50.4509 11.1993 50.7603 11.5093C50.8401 11.5854 51.1016 11.8989 51.2259 11.8358C52.7184 11.1205 54.3131 10.6417 55.9528 10.4167C57.6428 10.1495 59.3551 10.0234 61.0618 9.92506C64.6187 9.71787 68.1854 9.74824 71.7381 10.016C73.7528 10.1681 75.7595 10.3956 77.7581 10.6986L77.6672 10.6838C79.3256 10.9312 80.9742 11.2342 82.6129 11.5928C82.7984 11.6318 82.6871 11.4388 82.6408 11.335C82.4736 11.0022 82.2735 10.6872 82.0434 10.3944C81.7648 10.0066 81.4644 9.63502 81.1437 9.28132L80.8839 9.00862C80.7741 8.88926 80.6494 8.78452 80.5129 8.69696H80.4999Z" fill="#87226C"/>
<path d="M68.5902 39.1418C66.9695 39.1053 65.3722 39.5328 63.9865 40.3741C62.6008 41.2153 61.4844 42.4352 60.7691 43.8899C60.0537 45.3446 59.7692 46.9735 59.9489 48.5845C60.1287 50.1956 60.7653 51.7217 61.7837 52.983C62.8578 54.3131 64.3809 55.3223 66.0746 55.5801C69.5122 56.0903 72.7716 53.3076 73.9422 50.037C74.6416 48.0854 74.7659 45.9019 74.1073 43.9373C73.4488 41.9727 71.9665 40.2567 70.0409 39.485" fill="#1C94BC"/>
<path d="M68.8849 37.5498C67.0492 37.5189 65.2375 37.9705 63.6312 38.8596C62.8256 39.2922 62.0777 39.8245 61.405 40.4438C60.6556 41.1468 60.0041 41.9473 59.4682 42.824C57.6613 45.7811 57.6799 49.8735 59.4534 52.8417C60.3921 54.4167 61.763 55.8099 63.4698 56.5316C64.4273 56.9605 65.4597 57.1975 66.5085 57.2291C67.5216 57.2285 68.5265 57.0482 69.4767 56.6967C71.1574 56.1141 72.6601 54.9343 73.7843 53.5726C74.9736 52.1207 75.781 50.3944 76.1329 48.5508C76.5428 46.5493 76.3451 44.4711 75.5652 42.5828C74.8534 40.9332 73.6505 39.5431 72.1202 38.6017C71.6892 38.3542 71.2388 38.142 70.7734 37.9672C70.382 37.8095 69.7531 37.945 69.3951 38.1101C68.9612 38.3054 68.6071 38.6432 68.3914 39.0673C68.2319 39.4384 68.1503 39.8947 68.3525 40.2769C68.5547 40.659 68.883 40.8631 69.2986 41.0301L69.3635 41.056L68.9702 40.8965C69.5209 41.1272 70.0386 41.4298 70.51 41.7962L70.1872 41.5439C70.7834 42.0189 71.3039 42.5819 71.7307 43.2136L71.5006 42.8722C71.9633 43.5631 72.3145 44.3225 72.5414 45.1225L72.4301 44.7255C72.6673 45.6059 72.7699 46.5172 72.7343 47.4284L72.751 47.0166C72.7078 47.9572 72.5375 48.8877 72.2445 49.7826L72.3781 49.38C72.134 50.1078 71.8019 50.803 71.3893 51.4503L71.6305 51.0793C71.2439 51.676 70.7916 52.2274 70.2818 52.723L70.6195 52.3798C70.1648 52.8188 69.6626 53.2058 69.1224 53.5337L69.5472 53.2777C69.1104 53.5384 68.6479 53.7535 68.167 53.9195L68.6382 53.7618C68.2022 53.9068 67.7519 54.0045 67.295 54.0531L67.7625 54.0067C67.3216 54.0494 66.8772 54.042 66.438 53.9845L66.8795 54.0438C66.3991 53.9754 65.9284 53.8508 65.477 53.6728L65.8703 53.8323C65.2594 53.5823 64.6858 53.2496 64.1654 52.8436L64.4882 53.0958C63.8425 52.584 63.2794 51.9758 62.8186 51.2927L63.0505 51.6377C62.5566 50.8931 62.1812 50.0764 61.9374 49.2168L62.0487 49.6138C61.7984 48.7084 61.6895 47.7697 61.7259 46.8311L61.7092 47.241C61.7447 46.4434 61.8895 45.6544 62.1396 44.8962L62.0061 45.3006C62.2152 44.6842 62.4973 44.095 62.8464 43.5456L62.6071 43.9166C62.9571 43.3788 63.3652 42.8811 63.8241 42.4325L63.4957 42.7553C63.9763 42.2931 64.5057 41.8845 65.0745 41.5365L64.6496 41.7925C65.2207 41.4481 65.8279 41.1676 66.4602 40.9559L65.989 41.1117C66.5778 40.9188 67.1853 40.7888 67.8015 40.724L67.334 40.7703C67.654 40.7394 67.9754 40.7271 68.2968 40.7332C68.7891 40.7315 69.2676 40.5701 69.6603 40.2732C70.0227 40.0031 70.275 39.611 70.3709 39.1694C70.4102 38.9659 70.4013 38.756 70.345 38.5566C70.2886 38.3572 70.1863 38.1738 70.0462 38.021C69.7352 37.7212 69.3207 37.5524 68.8886 37.5498H68.8849Z" fill="#1C94BC"/>
<path d="M66.9147 57.8395C62.4048 56.2924 57.0101 59.2457 55.4889 63.7648C54.8619 65.62 54.8062 67.618 54.7839 69.5788C54.7382 73.4128 54.7914 77.2467 54.9435 81.0807C54.9583 81.4517 54.9899 81.8709 55.2626 82.1307C55.5353 82.3904 55.9749 82.4052 56.3645 82.3941L80.8523 81.7003C81.7825 77.1526 81.9611 72.4831 81.381 67.8777C81.0916 65.5754 80.5907 63.2398 79.3608 61.2734C76.8489 57.2533 71.2204 55.5355 66.8943 57.4685" fill="#1C94BC"/>
<path d="M67.9483 56.7096C64.5071 55.5446 60.5018 56.5631 57.6375 58.6705C56.2373 59.6833 55.089 61.0049 54.2816 62.5329C53.3781 64.2952 53.0999 66.2914 53.0219 68.2467C52.9366 70.4209 52.9607 72.6044 52.983 74.7805C53.0052 76.9565 53.0498 79.14 53.1462 81.3161C53.1703 81.8726 53.1963 82.444 53.5896 82.8874C54.0664 83.4217 54.8492 83.5886 55.5356 83.5942C56.619 83.5942 57.7099 83.5348 58.7933 83.5052L65.3567 83.3196L78.5746 82.9486L80.2442 82.9022C81.1309 82.8763 82.4536 82.5312 82.6559 81.4849C83.2121 78.7598 83.5004 75.9867 83.5166 73.2055C83.5315 70.4858 83.3534 67.6994 82.7746 65.0429C82.2811 62.7592 81.3387 60.4885 79.6468 58.83C78.1094 57.3418 76.1925 56.3047 74.1055 55.8321C71.4285 55.2187 68.6248 55.4881 66.1136 56.6002C65.7323 56.7676 65.4126 57.0496 65.199 57.4071C65.1204 57.543 65.0846 57.6994 65.0962 57.8559C65.1078 58.0124 65.1662 58.1618 65.264 58.2846C65.8743 58.9172 66.9744 58.6853 67.6756 58.3774C67.7536 58.3427 67.8315 58.3094 67.9094 58.2772C68.2804 58.1214 67.466 58.4404 67.7424 58.3403C67.8816 58.2902 68.0188 58.2419 68.1598 58.1974C68.3008 58.1529 68.4826 58.101 68.6459 58.0583L68.8889 57.9989C69.1746 57.9321 68.3787 58.1028 68.6514 58.0509C68.9612 57.9915 69.2729 57.9433 69.579 57.9117C69.746 57.895 69.9129 57.8858 70.0817 57.8746C69.3712 57.9192 69.9853 57.8746 70.1597 57.8839C70.475 57.8839 70.7904 57.9025 71.1058 57.9321C71.2598 57.9488 71.8478 58.0416 71.2282 57.9321C71.3859 57.9581 71.5417 57.9822 71.6976 58.0119C72.3307 58.1366 72.9515 58.3173 73.5527 58.5518L73.2095 58.4182C74.1723 58.7946 75.0743 59.3109 75.8865 59.9505L75.6304 59.7483C76.5821 60.5054 77.3789 61.4389 77.9772 62.4976L77.8288 62.2342C79.2647 64.8091 79.6357 67.846 79.8379 70.7344L79.8175 70.432C80.0262 73.4304 79.9186 76.4424 79.4966 79.4183C79.3729 80.2618 79.2269 81.1009 79.0587 81.9357L81.4797 80.5165L71.5436 80.7985L61.6075 81.0805L58.7877 81.1603L57.4019 81.1992C57.1941 81.1992 56.9864 81.2159 56.7767 81.2141C56.6843 81.2036 56.5914 81.1987 56.4985 81.1992C56.4836 81.1992 56.8695 81.2753 56.7378 81.2308C56.684 81.2122 56.6283 81.2011 56.5764 81.1825L56.9177 81.3161C56.8362 81.282 56.759 81.2384 56.6877 81.1862L56.9437 81.3884C56.8612 81.3167 56.7916 81.2314 56.7378 81.1362L56.8843 81.4014C56.7942 81.1988 56.7426 80.9811 56.7322 80.7596L56.7526 81.0619C56.6766 79.908 56.6654 78.7486 56.6357 77.5928C56.6061 76.4371 56.5875 75.2609 56.5764 74.0941C56.5541 71.7955 56.5077 69.4785 56.6487 67.1837C56.7019 65.9454 56.9165 64.7193 57.2869 63.5365L57.1849 63.8463C57.4628 63.037 57.8565 62.2722 58.3536 61.5756L58.1403 61.8743C58.3592 61.57 58.5952 61.2783 58.8471 61.0005C58.9602 60.8781 59.0771 60.7575 59.1958 60.6406C59.2626 60.5738 59.3294 60.5089 59.398 60.4551L59.4908 60.3698C59.719 60.162 59.2348 60.5905 59.3684 60.4774C59.6462 60.239 59.936 60.0149 60.2366 59.8058C60.3837 59.7056 60.5321 59.6092 60.6818 59.5164C60.9601 59.3458 60.2384 59.7724 60.5872 59.5739L60.8339 59.4385C61.1567 59.2678 61.4869 59.1213 61.8245 58.9803C61.1029 59.2808 61.7522 59.0118 61.9488 58.9469C62.1455 58.882 62.305 58.8374 62.485 58.7911L62.7261 58.7317L62.8467 58.7039C62.2086 58.8541 62.4052 58.7948 62.5443 58.7688C62.7299 58.7336 62.9284 58.7002 63.1231 58.676C63.3179 58.6519 63.47 58.6352 63.6444 58.6241H63.7669C64.008 58.6074 63.4645 58.6334 63.4942 58.6352C63.5962 58.6352 63.7001 58.6352 63.8021 58.6352C64.0062 58.6352 64.2121 58.6445 64.4162 58.6612C64.5182 58.6612 64.6202 58.6798 64.7223 58.6909L64.8447 58.7076C64.5479 58.6631 64.4626 58.6501 64.5887 58.6705L64.6796 58.6853C65.0885 58.7547 65.4912 58.8571 65.8836 58.9914C66.2787 59.125 66.852 59.0415 67.2341 58.9283C67.6768 58.808 68.0787 58.5702 68.3973 58.2401C68.5958 57.9989 68.8184 57.6576 68.6941 57.3292C68.5698 57.0009 68.2786 56.8432 67.9521 56.73L67.9483 56.7096Z" fill="#1C94BC"/>
<path d="M92.5396 48.7234C91.2883 48.6945 90.0549 49.024 88.9848 49.6731C87.9146 50.3222 87.0525 51.2639 86.5 52.3869C85.9475 53.51 85.7278 54.7677 85.8667 56.0116C86.0056 57.2554 86.4974 58.4336 87.284 59.4072C88.1133 60.4349 89.2913 61.2122 90.5973 61.407C93.2501 61.8003 95.7657 59.6594 96.671 57.1402C97.2358 55.6278 97.2801 53.9704 96.7971 52.43C96.2888 50.9125 95.1461 49.5898 93.6583 48.9999" fill="#1C94BC"/>
<path d="M92.7682 47.4933C89.8334 47.4432 87.0655 49.0442 85.5332 51.5171C84.1177 53.7971 84.114 56.9489 85.4683 59.2567C86.188 60.483 87.251 61.5664 88.5719 62.134C89.2965 62.46 90.0766 62.6451 90.8704 62.6795C91.6571 62.6906 92.4392 62.5579 93.1782 62.288C94.4849 61.8101 95.6385 60.9884 96.5174 59.9097C97.4464 58.7939 98.0805 57.4626 98.3614 56.0381C98.6891 54.4853 98.5443 52.87 97.9459 51.4002C97.398 50.1147 96.4646 49.0309 95.2745 48.2985C94.9399 48.1054 94.59 47.9403 94.2282 47.805C93.9258 47.6826 93.4398 47.7864 93.1633 47.9144C92.8286 48.0666 92.5557 48.3283 92.3898 48.6565C92.3169 48.7994 92.2763 48.9565 92.2708 49.1168C92.2654 49.2771 92.2952 49.4366 92.3582 49.5841C92.5187 49.8643 92.7802 50.0726 93.0891 50.1666C92.7033 50.0089 93.0762 50.1666 93.1652 50.213C93.2542 50.2593 93.3711 50.3206 93.4694 50.3781C93.6676 50.4969 93.8584 50.6277 94.0408 50.7695L93.7904 50.5747C94.2438 50.937 94.6403 51.3654 94.9665 51.8455L94.781 51.582C95.1403 52.1185 95.4126 52.7082 95.588 53.3296L95.5027 53.0235C95.6795 53.6887 95.7577 54.3762 95.7346 55.0641L95.7475 54.7469C95.7276 55.2172 95.6655 55.6847 95.562 56.1438C95.5101 56.3739 95.4452 56.5983 95.3765 56.8247C95.3283 56.986 95.46 56.589 95.4006 56.7486L95.3524 56.8822C95.3153 56.9786 95.2782 57.0677 95.2374 57.166C95.1619 57.3441 95.0785 57.5185 94.9869 57.6891C94.9437 57.7708 94.8991 57.8505 94.8534 57.9285C94.8311 57.9693 94.807 58.0082 94.7829 58.0472C94.6437 58.2754 94.8404 57.9618 94.8404 57.9618C94.8775 57.9897 94.1929 58.8078 94.1243 58.8894C94.0557 58.971 93.9815 59.0378 93.911 59.112C93.7922 59.2326 94.1484 58.8894 94.0241 59.0026L93.924 59.0953C93.7811 59.2233 93.6327 59.3476 93.4787 59.4664C93.3989 59.5276 93.3155 59.5869 93.232 59.6426C93.1838 59.676 92.8869 59.8615 93.1429 59.7075C93.3989 59.5536 93.0984 59.7316 93.0465 59.7595C92.9593 59.8059 92.861 59.8522 92.7812 59.8949C92.6124 59.9747 92.438 60.0433 92.2636 60.1082C92.0892 60.1732 92.6068 60.0006 92.4491 60.0489L92.323 60.086C92.2172 60.1138 92.1115 60.1398 92.0039 60.162C91.8963 60.1843 91.8332 60.1954 91.7479 60.2084L91.618 60.2251C91.4511 60.2474 91.9482 60.1991 91.7813 60.2084C91.5836 60.2205 91.3853 60.2205 91.1876 60.2084L91.0541 60.1973C90.8166 60.1769 91.119 60.2344 91.1617 60.2158C91.0893 60.2455 90.8797 60.1657 90.8018 60.1472C90.683 60.1194 90.5662 60.0878 90.4511 60.0507L90.312 60.0044C90.2656 59.9877 90.0597 59.906 90.2601 59.9877C90.4604 60.0693 90.2897 59.9988 90.2434 59.9784L90.0783 59.9005C89.9682 59.8473 89.8606 59.7898 89.7555 59.7279C89.5446 59.6036 89.3414 59.4667 89.147 59.318L89.3956 59.5127C88.8999 59.1224 88.4659 58.6596 88.1081 58.1399L88.2936 58.4034C87.9023 57.8195 87.605 57.1779 87.4124 56.5019L87.4978 56.8098C87.3032 56.111 87.2169 55.3865 87.2418 54.6616V54.9769C87.2556 54.6494 87.2928 54.3233 87.3531 54.0011C87.3827 53.8527 87.4161 53.7043 87.4551 53.5578C87.4737 53.4891 87.4922 53.4223 87.5126 53.3537C87.5961 53.0754 87.4236 53.5986 87.5126 53.3333C87.6187 53.038 87.7477 52.7514 87.8985 52.4762C87.9374 52.4057 87.9764 52.3371 88.0191 52.2684C88.1656 52.0254 87.8744 52.4762 87.9968 52.3C88.0877 52.1683 88.1823 52.0384 88.2769 51.9141C88.3715 51.7898 88.4624 51.6841 88.5626 51.5746C88.6164 51.5153 88.6702 51.4578 88.7259 51.4002L88.7982 51.3279C88.9132 51.2054 88.5608 51.5487 88.6851 51.4355C88.9197 51.2194 89.1675 51.018 89.4271 50.8326C89.5477 50.7472 89.6813 50.6767 89.7981 50.5877C89.8223 50.5673 89.4809 50.7732 89.6126 50.6971L89.7017 50.6471L89.9428 50.5172C90.2285 50.3725 90.5346 50.2797 90.8222 50.1462C90.8518 50.1332 90.4734 50.2575 90.6218 50.2148L90.7517 50.174L91.0151 50.1035C91.1802 50.0627 91.3472 50.0274 91.516 49.9996C91.605 49.9848 91.7015 49.9736 91.785 49.9607C91.8351 49.9607 91.9705 49.9421 91.7405 49.9607C91.4807 49.9866 91.7201 49.9607 91.7646 49.9607C91.9501 49.9477 92.1356 49.944 92.31 49.9477C92.69 49.9485 93.0599 49.8254 93.3637 49.5971C93.6459 49.3897 93.8436 49.0873 93.9202 48.7455C94.0149 48.0313 93.4787 47.5063 92.7775 47.4933H92.7682Z" fill="#1C94BC"/>
<path d="M91.2469 63.156C87.7648 61.9613 83.6001 64.2412 82.4258 67.7307C81.9434 69.1647 81.8989 70.6989 81.8822 72.2183C81.8463 75.1865 81.8872 78.1479 82.0047 81.1025C82.0158 81.3938 82.0417 81.7129 82.2514 81.9132C82.461 82.1136 82.8079 82.1247 83.101 82.1173L102.009 81.5811C102.727 78.0705 102.865 74.4659 102.419 70.9104C102.194 69.1332 101.806 67.3319 100.858 65.8125C98.9198 62.7089 94.575 61.3825 91.2339 62.8758" fill="#1C94BC"/>
<path d="M92.0429 62.2845C89.3938 61.3922 86.3217 62.1658 84.1103 63.7798C83.0323 64.5504 82.144 65.5566 81.5132 66.722C80.8138 68.0558 80.5856 69.5752 80.5169 71.063C80.4409 72.7326 80.4631 74.4227 80.4798 76.0978C80.4947 77.8107 80.5361 79.5224 80.6041 81.2329C80.6227 81.6799 80.6394 82.0825 80.9195 82.4535C81.2349 82.8746 81.8378 83.0101 82.3294 83.0342C82.7301 83.0583 83.1382 83.0212 83.539 83.0082L84.8375 82.973L89.98 82.8264L100.228 82.537L101.526 82.4999C102.211 82.4795 103.231 82.2068 103.394 81.4054C103.825 79.3014 104.049 77.1602 104.062 75.0126C104.104 72.903 103.917 70.7951 103.506 68.7255C103.124 66.939 102.393 65.1674 101.055 63.8781C99.8621 62.7358 98.3786 61.9428 96.7661 61.5851C94.7135 61.1261 92.5678 61.3374 90.6441 62.188C90.3492 62.3168 90.102 62.5348 89.9373 62.8114C89.8767 62.9162 89.849 63.0369 89.858 63.1577C89.8669 63.2784 89.912 63.3937 89.9874 63.4885C90.4586 63.9783 91.3064 63.7983 91.8425 63.559C91.9186 63.5256 91.9984 63.4959 92.0744 63.4607C91.6181 63.6647 91.8889 63.5312 92.0151 63.4885C92.2006 63.4254 92.375 63.3698 92.5568 63.3234C92.6384 63.3011 92.7219 63.2881 92.8016 63.264C92.8016 63.264 92.3991 63.3419 92.6161 63.3048L92.7404 63.2807C92.9167 63.2492 93.0929 63.2251 93.2691 63.2065C93.3526 63.1972 93.4379 63.1898 93.5214 63.1843L93.6457 63.175C93.809 63.1657 93.3211 63.1861 93.4825 63.175C93.6439 63.1639 93.8535 63.175 94.0501 63.175C94.2468 63.175 94.3859 63.1935 94.5529 63.2121C94.6382 63.2121 94.7217 63.2306 94.8052 63.2418C94.9555 63.2603 94.5269 63.1972 94.6753 63.2232L94.8312 63.2492C95.1845 63.3132 95.5334 63.4 95.8756 63.5089L96.1168 63.5887C96.2021 63.6184 96.4414 63.7389 96.1483 63.5887C96.3078 63.6666 96.4804 63.726 96.6418 63.8039C96.9557 63.952 97.2599 64.12 97.5526 64.3066C97.6936 64.3975 97.8328 64.4921 97.9682 64.5942L98.0684 64.6684C98.2409 64.7964 97.9366 64.5589 98.0442 64.6498C98.1166 64.711 98.1908 64.7704 98.2613 64.8353C98.8855 65.3839 99.4113 66.0351 99.8159 66.761L99.7009 66.555C100.786 68.5345 101.07 70.8645 101.23 73.0832L101.215 72.8495C101.421 75.8262 101.224 78.817 100.63 81.7412L102.498 80.6466L86.8355 81.09L84.6094 81.1531C84.2383 81.1642 83.8822 81.1791 83.5186 81.1828H83.3776C83.3312 81.1828 83.2829 81.1828 83.2366 81.1828C83.4369 81.218 83.474 81.2199 83.3479 81.192C83.3887 81.2069 83.5575 81.3182 83.4277 81.218C83.6243 81.3701 83.4406 81.2032 83.398 81.1345L83.513 81.3386C83.4399 81.1753 83.3984 80.9997 83.3905 80.821L83.4072 81.0548C83.2978 79.1625 83.2848 77.261 83.27 75.3669C83.2625 74.3948 83.2625 73.4227 83.27 72.4507C83.27 71.5528 83.2848 70.653 83.372 69.7607C83.4131 69.3207 83.4794 68.8834 83.5705 68.451C83.615 68.2432 83.667 68.0354 83.7282 67.8314L83.7783 67.6681C83.8135 67.5512 83.7653 67.7163 83.7579 67.7238C83.8028 67.6408 83.8365 67.5522 83.858 67.4603C83.9768 67.16 84.1182 66.8692 84.281 66.5903C84.3589 66.4549 84.4424 66.3231 84.5296 66.1933L84.6001 66.0913C84.678 65.9762 84.4591 66.2768 84.5444 66.1692C84.5945 66.1042 84.6446 66.0356 84.6966 65.9707C84.8983 65.7179 85.1158 65.4781 85.3477 65.2527C85.405 65.1911 85.467 65.134 85.5332 65.0821C85.5332 65.0821 85.2865 65.2954 85.4349 65.1693L85.5054 65.108C85.6427 64.9949 85.7818 64.8854 85.9265 64.7797C86.0712 64.6739 86.164 64.6109 86.2864 64.5311L86.3922 64.4643C86.5665 64.3511 86.2493 64.5496 86.2512 64.5478C86.3194 64.4996 86.3921 64.4579 86.4682 64.4235C86.6148 64.3437 86.7632 64.2677 86.9153 64.1972C86.9802 64.1656 87.047 64.1359 87.1138 64.1081C87.2288 64.058 87.572 63.9449 87.0748 64.1174C87.4106 64.0005 87.7408 63.8966 88.0859 63.8131C87.5813 63.9356 87.9152 63.8502 88.0451 63.828C88.136 63.8113 88.2306 63.7983 88.3196 63.7853L88.5961 63.7556C88.6647 63.7556 88.956 63.7352 88.6962 63.7445C88.4365 63.7538 88.763 63.7445 88.8279 63.7445H89.1044C89.2787 63.7445 89.4513 63.7798 89.6256 63.7909C89.2231 63.7668 89.5385 63.7779 89.6442 63.7909C89.7499 63.8039 89.8297 63.828 89.9169 63.8484C90.1024 63.8929 90.2879 63.9449 90.4568 64.0061C90.803 64.0753 91.161 64.0586 91.4993 63.9574C91.8376 63.8562 92.1459 63.6735 92.3972 63.4254C92.5493 63.2399 92.7219 62.9765 92.6254 62.7242C92.572 62.6073 92.492 62.5045 92.3918 62.424C92.2917 62.3435 92.1741 62.2875 92.0485 62.2604L92.0429 62.2845Z" fill="#1C94BC"/>
<path d="M43.3565 49.8362C42.1052 49.8073 40.8718 50.1368 39.8017 50.7859C38.7315 51.435 37.8694 52.3767 37.3169 53.4997C36.7644 54.6228 36.5447 55.8805 36.6836 57.1243C36.8225 58.3682 37.3143 59.5464 38.1009 60.5199C38.9302 61.5477 40.1082 62.325 41.4142 62.5198C44.067 62.9131 46.5826 60.7722 47.4879 58.253C48.0532 56.7408 48.0983 55.0834 47.6159 53.5428C47.1057 52.0253 45.963 50.7026 44.4751 50.1126" fill="#1C94BC"/>
<path d="M43.5846 48.6064C40.6498 48.5564 37.8819 50.1573 36.3496 52.6302C34.9341 54.9102 34.9304 58.0621 36.2847 60.3699C37.0044 61.5961 38.0674 62.6795 39.3883 63.2472C40.1129 63.5731 40.893 63.7582 41.6868 63.7926C42.4729 63.8035 43.2543 63.6708 43.9927 63.4011C45.2995 62.9232 46.4531 62.1016 47.332 61.0229C48.2617 59.9074 48.8958 58.576 49.176 57.1512C49.5036 55.5984 49.3589 53.9831 48.7604 52.5134C48.2131 51.2281 47.2803 50.1443 46.0909 49.4116C45.7564 49.2185 45.4064 49.0534 45.0446 48.9181C44.7422 48.7957 44.2562 48.8996 43.9797 49.0276C43.645 49.1797 43.3721 49.4414 43.2062 49.7696C43.1336 49.9126 43.0932 50.0697 43.0878 50.2299C43.0823 50.3901 43.112 50.5496 43.1746 50.6972C43.3351 50.9774 43.5966 51.1858 43.9055 51.2797C43.5215 51.122 43.8926 51.2797 43.9835 51.3261C44.0744 51.3725 44.1875 51.4337 44.2859 51.4912C44.4843 51.6096 44.6751 51.7404 44.8572 51.8826L44.6068 51.6878C45.0602 52.0502 45.4567 52.4785 45.7829 52.9586L45.5974 52.6952C45.9567 53.2316 46.229 53.8214 46.4044 54.4427L46.3191 54.1366C46.4959 54.8018 46.574 55.4893 46.551 56.1772L46.564 55.86C46.544 56.3303 46.4819 56.7978 46.3784 57.2569C46.3265 57.487 46.2616 57.7114 46.1929 57.9378C46.1447 58.0992 46.2764 57.7022 46.217 57.8617L46.1688 57.9953C46.1317 58.0917 46.0946 58.1808 46.0538 58.2791C45.9771 58.4572 45.8936 58.6316 45.8033 58.8023C45.7613 58.8839 45.7168 58.9637 45.6698 59.0416C45.6475 59.0824 45.6234 59.1213 45.5993 59.1603C45.4601 59.3885 45.6568 59.075 45.6568 59.075C45.6939 59.1028 45.0094 59.9209 44.9407 60.0025C44.8721 60.0842 44.7997 60.1509 44.7274 60.2252C44.6086 60.3457 44.9648 60.0025 44.8405 60.1157L44.7404 60.2085C44.5975 60.3365 44.4491 60.4608 44.2951 60.5795C44.2154 60.6407 44.1337 60.7001 44.0502 60.7557C44.0002 60.7891 43.7033 60.9746 43.9593 60.8206C44.2154 60.6667 43.9148 60.8448 43.8629 60.8726C43.7757 60.919 43.6866 60.9653 43.5976 61.008C43.4288 61.0878 43.2544 61.1564 43.08 61.2214C42.9056 61.2863 43.4232 61.1138 43.2655 61.162L43.1394 61.1991C43.0336 61.2269 42.9279 61.2529 42.8221 61.2752C42.7164 61.2974 42.6496 61.3085 42.5643 61.3215L42.4344 61.3382C42.2693 61.3605 42.7646 61.3123 42.5977 61.3215C42.4 61.3336 42.2017 61.3336 42.004 61.3215L41.8705 61.3104C41.6349 61.29 41.9354 61.3475 41.9781 61.329C41.9057 61.3586 41.6961 61.2789 41.6182 61.2603C41.4994 61.2325 41.3826 61.201 41.2675 61.1638L41.1284 61.1175C41.082 61.1008 40.8761 61.0191 41.0765 61.1008C41.2768 61.1824 41.1061 61.1119 41.0598 61.0915L40.8947 61.0136C40.7858 60.9604 40.6782 60.9029 40.5719 60.8411C40.361 60.7167 40.1578 60.5798 39.9634 60.4311L40.2138 60.6259C39.7172 60.236 39.2825 59.7732 38.9245 59.2531L39.11 59.5165C38.7187 58.9326 38.4214 58.291 38.2288 57.615L38.3142 57.9229C38.1208 57.2214 38.0363 56.4944 38.0637 55.7673L38.0507 56.0845C38.0646 55.757 38.1018 55.4309 38.1621 55.1087C38.1917 54.9603 38.2251 54.8119 38.2641 54.6653C38.2826 54.5967 38.3012 54.5299 38.3216 54.4612C38.4051 54.183 38.2325 54.7061 38.3216 54.4408C38.4277 54.1455 38.5567 53.859 38.7075 53.5838C38.7464 53.5133 38.7872 53.4446 38.828 53.376C38.9746 53.133 38.6833 53.5838 38.8058 53.4075C38.8967 53.2758 38.9913 53.146 39.0859 53.0217C39.1805 52.8974 39.2714 52.7916 39.3716 52.6822C39.4254 52.6228 39.4792 52.5653 39.5348 52.5078L39.6072 52.4354C39.7222 52.313 39.3697 52.6562 39.494 52.543C39.7291 52.3274 39.9769 52.126 40.2361 51.9401C40.3567 51.8548 40.4902 51.7843 40.6071 51.6952C40.6312 51.6748 40.2899 51.8808 40.4216 51.8047L40.5107 51.7546L40.7518 51.6247C41.0375 51.48 41.3436 51.3873 41.6312 51.2537C41.6608 51.2407 41.2824 51.365 41.4308 51.3224L41.5607 51.2815L41.8241 51.2111C41.9892 51.1702 42.1562 51.135 42.325 51.1072C42.414 51.0923 42.5105 51.0812 42.594 51.0682C42.6441 51.0682 42.7795 51.0497 42.5494 51.0682C42.2897 51.0942 42.529 51.0682 42.5736 51.0682C42.7591 51.0552 42.9446 51.0515 43.1208 51.0552C43.5 51.0542 43.8685 50.9298 44.1708 50.7009C44.4528 50.4933 44.6504 50.191 44.7274 49.8494C44.8201 49.1352 44.284 48.6102 43.5828 48.5972L43.5846 48.6064Z" fill="#1C94BC"/>
<path d="M42.0637 64.2692C38.5816 63.0745 34.4168 65.3545 33.2425 68.844C32.7602 70.278 32.7175 71.8122 32.6989 73.3316C32.6643 76.2998 32.7051 79.2612 32.8214 82.2158C32.8325 82.5071 32.8585 82.8261 33.0681 83.0265C33.2777 83.2269 33.6246 83.238 33.9178 83.2306L52.8271 82.6944C53.5438 79.1835 53.6817 75.5791 53.2353 72.0237C53.0108 70.2465 52.6231 68.4451 51.6751 66.9258C49.7365 63.8222 45.3918 62.4957 42.0507 63.9891" fill="#1C94BC"/>
<path d="M42.8593 63.3973C40.2102 62.505 37.1381 63.2786 34.9267 64.8926C33.852 65.6642 32.9671 66.6704 32.3388 67.8348C31.6394 69.1686 31.4113 70.688 31.3426 72.1758C31.2666 73.8454 31.2888 75.5354 31.3055 77.2106C31.3222 78.9229 31.3612 80.6352 31.4317 82.3457C31.4484 82.7927 31.4651 83.1953 31.7452 83.5663C32.0606 83.9874 32.6635 84.1229 33.1569 84.147C33.5558 84.1711 33.9658 84.134 34.3646 84.121L35.6632 84.0858L40.8057 83.9392L51.0479 83.6498L52.3465 83.6127C53.031 83.5923 54.0513 83.3196 54.2146 82.5182C54.6439 80.414 54.867 78.2729 54.8806 76.1254C54.918 74.0155 54.7283 71.9077 54.3148 69.8383C53.9307 68.0518 53.1924 66.2802 51.8623 64.9909C50.6695 63.8483 49.1859 63.0551 47.5732 62.6979C45.5206 62.2389 43.3749 62.4502 41.4513 63.3008C41.1563 63.4296 40.9091 63.6476 40.7444 63.9242C40.6838 64.029 40.6562 64.1497 40.6651 64.2705C40.674 64.3912 40.7191 64.5065 40.7945 64.6013C41.2657 65.091 42.1154 64.9111 42.6497 64.6718C42.7257 64.6384 42.8055 64.6087 42.8834 64.5735C42.4271 64.7775 42.6979 64.644 42.8222 64.6013C43.0077 64.5382 43.1821 64.4826 43.3639 64.4362C43.4455 64.4139 43.529 64.4009 43.6088 64.3768C43.6088 64.3768 43.2062 64.4547 43.4233 64.4176L43.5457 64.3935C43.7219 64.362 43.8982 64.3379 44.0763 64.3193C44.1604 64.3094 44.2438 64.302 44.3267 64.297L44.4529 64.2878C44.3979 64.285 44.3427 64.285 44.2877 64.2878C44.4733 64.2878 44.6588 64.2878 44.8554 64.2878C45.0521 64.2878 45.1912 64.3063 45.36 64.3249C45.4435 64.3249 45.527 64.3434 45.6105 64.3546C45.7607 64.3731 45.3322 64.31 45.4825 64.336L45.6383 64.362C45.991 64.4262 46.3392 64.5129 46.6809 64.6217L46.922 64.7015C47.0074 64.7312 47.2467 64.8517 46.9536 64.7015C47.115 64.7794 47.2856 64.8387 47.447 64.9167C47.761 65.0648 48.0652 65.2327 48.3579 65.4194C48.4989 65.5103 48.638 65.6049 48.7735 65.707L48.8736 65.7812C49.0462 65.9092 48.7419 65.6717 48.8495 65.7626C48.9219 65.8238 48.9961 65.8832 49.0666 65.9481C49.6908 66.4967 50.2166 67.1479 50.6212 67.8738L50.5099 67.6845C51.5951 69.664 51.879 71.994 52.0404 74.2127L52.0237 73.979C52.2298 76.9558 52.0326 79.9467 51.4374 82.8706L53.3056 81.7761L37.6427 82.2195L35.4165 82.2826C35.0455 82.2937 34.6893 82.3085 34.3275 82.3123H34.1847C34.1383 82.3123 34.0919 82.3123 34.0437 82.3123C34.2441 82.3475 34.2812 82.3494 34.155 82.3215C34.1958 82.3364 34.3646 82.4477 34.2348 82.3475C34.4314 82.4996 34.2478 82.3327 34.2051 82.264L34.3201 82.4681C34.2471 82.3048 34.2055 82.1292 34.1977 81.9505L34.2144 82.1842C34.1049 80.292 34.0919 78.3905 34.0771 76.4964C34.0697 75.5243 34.0697 74.5522 34.0771 73.5801C34.0864 72.6823 34.0919 71.7825 34.1791 70.8902C34.2202 70.4502 34.2865 70.0129 34.3776 69.5805C34.4222 69.3727 34.4741 69.1649 34.5353 68.9609L34.5854 68.7976C34.6206 68.6807 34.5724 68.8458 34.5668 68.8533C34.6112 68.7702 34.6442 68.6816 34.6652 68.5898C34.7847 68.2899 34.9261 67.9991 35.0881 67.7198C35.1661 67.5843 35.2495 67.4526 35.3367 67.3228L35.4072 67.2207C35.4851 67.1057 35.2662 67.4063 35.3516 67.2987C35.4017 67.2337 35.4517 67.1651 35.5037 67.1002C35.7054 66.8474 35.9229 66.6076 36.1548 66.3822C36.2121 66.3205 36.2741 66.2635 36.3404 66.2115C36.3404 66.2115 36.0936 66.4249 36.242 66.2987L36.3144 66.2375C36.4498 66.1244 36.5889 66.0149 36.7336 65.9092C36.8783 65.8034 36.9711 65.7403 37.0954 65.6606L37.2011 65.5938C37.3755 65.4806 37.0564 65.6791 37.0583 65.6773C37.1265 65.629 37.1992 65.5874 37.2753 65.553C37.4219 65.4732 37.5703 65.3971 37.7224 65.3267C37.7874 65.2951 37.8541 65.2654 37.9209 65.2376C38.036 65.1875 38.3791 65.0743 37.882 65.2469C38.2178 65.13 38.548 65.0261 38.893 64.9426C38.3884 65.0651 38.7242 64.9797 38.8522 64.9575C38.945 64.9408 39.0377 64.9278 39.1268 64.9148L39.4032 64.8851C39.4718 64.8851 39.7631 64.8647 39.5034 64.874C39.2436 64.8833 39.5701 64.874 39.6351 64.874H39.9115C40.0859 64.874 40.2584 64.9092 40.4328 64.9204C40.0302 64.8963 40.3456 64.9074 40.4513 64.9204C40.5571 64.9334 40.6368 64.9575 40.724 64.9779C40.9096 65.0224 41.0951 65.0744 41.2639 65.1356C41.6101 65.2052 41.9682 65.1886 42.3066 65.0873C42.6449 64.9861 42.9532 64.8033 43.2044 64.5549C43.3565 64.3694 43.529 64.106 43.4325 63.8537C43.3793 63.7366 43.2994 63.6337 43.1992 63.5531C43.099 63.4726 42.9813 63.4167 42.8556 63.3899L42.8593 63.3973Z" fill="#1C94BC"/>
<path d="M46.4098 118.422C50.663 120.275 55.1194 121.621 59.687 122.433C66.945 123.727 74.378 123.688 81.6221 122.318C82.1193 122.224 82.6795 122.018 83.0246 121.622C83.2973 121.309 83.4605 120.814 83.2843 120.409C82.8446 119.398 81.4533 119.051 80.4571 119.242C78.2242 119.672 75.9673 119.967 73.6988 120.125L74.3166 120.083C70.8537 120.317 67.3767 120.239 63.9278 119.849L64.5419 119.919C61.7552 119.601 58.9954 119.08 56.2847 118.359C55.5068 118.151 54.7338 117.928 53.9658 117.688L54.5223 117.86C52.5887 117.254 50.6888 116.545 48.8308 115.736C48.2663 115.507 47.6493 115.437 47.048 115.536C46.5842 115.616 45.9534 115.844 45.6455 116.233C45.3784 116.573 45.1984 117.014 45.3858 117.447C45.5908 117.89 45.9569 118.239 46.4098 118.422Z" fill="#87226C"/>
<path d="M13.2219 17.9208C13.2042 18.8297 13.3987 19.7303 13.7899 20.5508C14.1812 21.3714 14.7585 22.0894 15.4759 22.6477L15.6911 22.7034C15.8569 22.723 16.0247 22.7212 16.1901 22.6978C16.565 22.6559 16.9343 22.5745 17.292 22.4548C17.8634 22.2693 18.4886 22.0355 18.8837 21.5625C19.869 20.3863 20.7763 19.1469 21.5997 17.8522L18.1936 18.9467C18.505 19.0601 18.788 19.2399 19.0229 19.4736L18.9208 19.3697C19.4551 19.9151 19.7742 20.6219 20.1267 21.2898C20.5125 22.0188 21.108 22.7961 21.9058 23.1004C22.6107 23.3694 23.3676 23.2673 24.0837 23.1004C24.9779 22.8982 25.9166 22.5346 26.6234 21.9372C27.1224 21.5179 27.384 20.9132 27.6214 20.3251C27.7421 20.0067 27.884 19.6968 28.0462 19.3975C28.0871 19.3233 28.1316 19.251 28.178 19.1823L28.2373 19.1007L28.2818 19.0432C28.3227 18.9913 28.3023 19.0172 28.2188 19.1174C28.2707 19.0933 28.3338 19.0042 28.3765 18.9653C28.4599 18.8874 28.5397 18.8985 28.267 19.0432C28.3709 18.9875 28.5694 18.8799 28.1038 19.1285L25.3211 19.5775L27.3209 21.6515C27.5894 21.9699 27.8938 22.2563 28.2281 22.5049C28.7401 22.8332 29.3912 22.7869 29.9626 22.6904C31.0212 22.5352 32.0254 22.1217 32.8863 21.4864C33.1923 21.2367 33.4681 20.9522 33.7081 20.6386C33.7675 20.5681 33.825 20.4958 33.8806 20.4234C33.9048 20.3937 34.094 20.173 33.953 20.327C34.0179 20.2565 34.0829 20.186 34.1533 20.121C34.2238 20.0561 34.3389 19.993 34.3723 19.9355C34.222 20.045 34.1979 20.0654 34.3018 19.993C34.4056 19.9207 34.3797 19.9392 34.1478 20.0747C34.3036 19.9967 34.2294 20.0301 33.927 20.173C33.4861 20.3579 33.0193 20.4736 32.5431 20.5162C32.339 20.505 32.2964 20.505 32.4188 20.5162C32.5116 20.5329 32.4986 20.5292 32.3836 20.505C32.4188 20.4828 32.5802 20.6071 32.6099 20.6275C32.8065 20.7629 33.3204 20.6757 33.5115 20.646C33.9844 20.5723 34.4466 20.4415 34.888 20.2565C35.0902 20.1711 36.4036 19.609 35.9361 19.2844C35.6212 19.0951 35.2536 19.0124 34.888 19.0488C34.1357 19.1005 33.3969 19.2747 32.7008 19.5645C31.9064 19.8543 31.1972 20.3384 30.6379 20.9725C30.5414 21.0876 30.4524 21.2044 30.3559 21.3232C30.3206 21.3677 30.2835 21.4122 30.2483 21.4586C30.1852 21.5384 30.3411 21.3547 30.2335 21.4753C30.1259 21.5959 30.0628 21.6608 29.97 21.7536C29.8773 21.8463 29.56 22.0726 29.8791 21.8482C29.6936 21.9799 30.1741 21.696 30.022 21.774C29.7746 21.8976 29.9979 21.8086 30.6917 21.5068L31.4244 21.3213C31.569 21.292 31.7169 21.2821 31.8641 21.2916H31.801C31.6155 21.2415 31.929 21.3695 31.7454 21.2675C31.5097 21.1373 31.2941 20.9736 31.1054 20.7815L31.2074 20.8854C30.4134 20.0747 29.6324 19.2528 28.844 18.4347C28.5954 18.1769 28.1613 18.264 27.8403 18.3123C27.2183 18.4026 26.6157 18.5964 26.0575 18.8855C25.4027 19.2343 24.8591 19.6628 24.5066 20.3251C24.2785 20.7555 24.1356 21.2193 23.926 21.6608C23.8347 21.8703 23.7242 22.0709 23.5958 22.26L23.5383 22.3379C23.4826 22.4084 23.4993 22.388 23.5884 22.2804C23.5518 22.3111 23.5182 22.3453 23.4882 22.3824C23.4511 22.4177 23.273 22.5568 23.4659 22.4121C23.5642 22.3416 23.5791 22.3286 23.5104 22.3769C23.388 22.4511 23.4566 22.4121 23.7182 22.26C24.1538 22.0439 24.6199 21.8956 25.1003 21.8203C25.3724 21.7981 25.4342 21.7907 25.2858 21.7981C25.4843 21.7981 25.5214 21.7981 25.3971 21.7981C25.3099 21.7795 25.2209 21.7554 25.3563 21.7981C25.2708 21.7714 25.1871 21.7392 25.1059 21.7016C24.8063 21.5541 24.5356 21.3544 24.3063 21.1117L24.4102 21.2156C23.362 20.1173 23.093 18.1564 21.518 17.6018C20.9782 17.4162 20.2194 17.6333 19.7037 17.8058C19.4061 17.9023 19.1155 18.0188 18.8337 18.1546C18.5512 18.2713 18.3029 18.4577 18.112 18.6963C17.2882 19.9907 16.3809 21.23 15.3961 22.4066L18.8021 21.312C18.6317 21.1769 18.4689 21.0326 18.3142 20.8798L18.4181 20.9855C17.8715 20.4354 17.4418 19.7803 17.1549 19.0598C16.8679 18.3393 16.7297 17.5682 16.7485 16.7929C16.7485 16.6074 16.1585 16.626 16.1252 16.6278C15.2436 16.7088 14.3905 16.9824 13.6263 17.4292C13.4408 17.5535 13.2237 17.6852 13.2163 17.9283L13.2219 17.9208Z" fill="#1F94BC"/>
<path d="M124.762 34.6318C126.542 37.5566 128.044 40.6415 129.249 43.8463C129.592 44.7553 129.911 45.6736 130.208 46.6011L130.132 46.3637C131.093 49.3876 131.809 52.4839 132.273 55.6227C132.735 58.7658 132.948 61.9405 132.911 65.1172C132.891 66.6879 132.811 68.2573 132.67 69.8256C132.598 70.6233 132.51 71.4197 132.405 72.215C132.394 72.3077 132.381 72.4005 132.368 72.4951C132.351 72.6212 132.368 72.4598 132.368 72.445C132.368 72.4914 132.355 72.5378 132.347 72.586C132.319 72.7882 132.29 72.9904 132.258 73.1908C132.199 73.5803 132.136 73.9662 132.073 74.3539C131.533 77.4797 130.737 80.5559 129.694 83.5517C129.171 85.0469 128.586 86.5187 127.939 87.9669L127.823 88.2248C127.804 88.2674 127.784 88.3101 127.765 88.3546C127.704 88.4901 127.808 88.2582 127.81 88.2563C127.713 88.4418 127.637 88.6273 127.55 88.8129C127.38 89.1666 127.208 89.519 127.032 89.8703C126.672 90.5864 126.296 91.2938 125.904 91.9926C125.719 92.3358 125.517 92.6771 125.318 93.0147C125.186 93.2373 125.047 93.5972 125.21 93.8458C125.374 94.0944 125.767 94.1222 126.014 94.0851C126.46 94.013 126.886 93.8483 127.264 93.6016C127.643 93.355 127.966 93.0318 128.212 92.653C130.307 89.0857 132.007 85.3005 133.28 81.3645C135.783 73.5422 136.674 65.2942 135.902 57.1179C135.517 53.0654 134.713 49.0636 133.505 45.1764C132.297 41.2542 130.665 37.4753 128.639 33.9065C128.388 33.4686 128.132 33.0364 127.871 32.6079C127.715 32.3537 127.314 32.3426 127.066 32.3704C126.619 32.4382 126.194 32.607 125.823 32.8639C125.435 33.0981 125.108 33.4196 124.867 33.8026C124.734 34.0512 124.595 34.3591 124.762 34.6337V34.6318Z" fill="#1F94BC"/>
<path d="M42.8668 124.659C47.9612 126.224 53.1499 127.463 58.4017 128.37C61.0953 128.83 63.8001 129.214 66.516 129.501C69.1466 129.781 71.792 129.998 74.4374 130.048C77.2517 130.1 80.1531 129.85 82.7763 128.768C83.0063 128.674 83.2048 128.551 83.1473 128.267C83.0898 127.984 82.7132 127.689 82.4924 127.551C82.0871 127.293 81.6384 127.109 81.1679 127.01C80.8135 126.939 80.3497 126.839 80.0047 126.982C79.4384 127.215 78.8578 127.412 78.2664 127.572C77.9993 127.644 77.7284 127.709 77.4576 127.767C77.3222 127.796 77.1867 127.824 77.0495 127.85L76.8046 127.895L76.6395 127.922L76.8009 127.896C76.7396 127.956 76.4298 127.95 76.3464 127.961L75.89 128.017C75.5839 128.05 75.2778 128.076 74.9624 128.099C74.3744 128.138 73.7844 128.158 73.1963 128.162C72.8865 128.162 72.5749 128.162 72.2688 128.162C72.2873 128.162 72.6584 128.162 72.4098 128.162H72.1575L71.6492 128.143C71.0592 128.117 70.4693 128.084 69.8794 128.043C68.6043 127.958 67.3329 127.853 66.0652 127.728C64.7975 127.603 63.5299 127.458 62.2622 127.294C61.6141 127.208 60.9673 127.119 60.3217 127.025L59.4424 126.891L59.0027 126.822L58.7374 126.782L58.9638 126.817L58.8302 126.795C56.3122 126.385 53.8083 125.895 51.3188 125.325C49.9311 125.007 48.549 124.665 47.1725 124.299C46.8275 124.208 46.4837 124.115 46.1411 124.021L45.6254 123.878L45.3693 123.806L45.2636 123.776C45.6105 123.875 45.3118 123.789 45.245 123.776L44.9464 123.689L44.4325 123.539C44.0782 123.433 43.722 123.327 43.3677 123.218C42.9465 123.067 42.5015 122.994 42.0542 123.003C41.8687 123.017 41.4216 123.084 41.3623 123.342C41.3029 123.6 41.5014 123.867 41.6962 124.036C42.0362 124.328 42.4328 124.547 42.8612 124.68L42.8668 124.659Z" fill="#1F94BC"/>
<path d="M6.72874 35.4407C5.21423 38.9819 3.95388 42.6266 2.95725 46.347C1.92499 50.1557 1.15639 54.0309 0.656886 57.9453C0.178517 61.7519 -0.0390426 65.5867 0.00573262 69.423C0.0532994 73.3661 0.370027 77.3013 0.953706 81.2012C1.52247 85.0112 2.36062 88.7761 3.46185 92.4675C3.59727 92.922 3.73826 93.3765 3.88111 93.8291C4.15567 94.6918 5.23721 95.1166 6.0813 94.9793C6.82335 94.8569 7.79544 94.2781 7.50604 93.3709C6.16145 89.1305 5.16503 84.7874 4.5267 80.385C4.34737 79.1482 4.19524 77.9028 4.07033 76.6487L4.10743 77.0198C3.34663 69.3085 3.65126 61.5292 5.01274 53.9011C5.3949 51.764 5.85992 49.6436 6.4078 47.5398L6.31319 47.9109C7.33334 44.0028 8.6417 40.1757 10.2275 36.461C10.5819 35.6336 9.84351 34.8489 9.06992 34.6504C8.29632 34.4519 7.08863 34.5762 6.71946 35.4425L6.72874 35.4407Z" fill="#1F94BC"/>
<path d="M45.9611 3.27996C50.3629 2.55133 54.7995 2.05163 59.2531 1.78287C63.671 1.51273 68.1039 1.62445 72.5025 2.11679C74.9683 2.40443 77.4129 2.85121 79.821 3.45435L79.7375 3.43208C81.0064 3.75488 82.2617 4.1259 83.5034 4.54516C83.6667 4.60082 83.9153 4.49137 84.06 4.44313C84.474 4.29913 84.8786 4.12936 85.2714 3.93483C85.67 3.75318 86.0572 3.5475 86.4308 3.31892C86.4735 3.29109 86.9039 2.9683 86.8594 2.94789C82.1714 1.37103 77.2702 0.500973 72.3411 0.165193C67.412 -0.170586 62.431 0.0316238 57.5 0.53622C54.7043 0.8182 51.9198 1.20036 49.1519 1.6493C48.8693 1.70518 48.5932 1.79036 48.3282 1.90346C47.8855 2.07957 47.452 2.27833 47.0296 2.49895C46.6923 2.65347 46.3706 2.83983 46.0687 3.05549C46.0372 3.07961 45.7496 3.31336 45.9667 3.27996H45.9611Z" fill="#1F94BC"/>
</svg>
