<svg width="127" height="108" viewBox="0 0 127 108" fill="none" xmlns="http://www.w3.org/2000/svg">
<path d="M67.9628 25.2334C62.9631 23.118 56.9544 23.7728 52.2937 25.6649C47.0644 27.787 42.9322 32.0446 41.789 37.0007C41.2701 39.252 41.3524 41.5773 41.5975 43.8639C42.4458 51.8889 47.1371 57.1522 53.6226 62.5112C56.9104 65.2276 60.6864 67.4303 64.3303 69.7539C65.1729 70.2928 73.9983 76.7934 73.824 76.8891C84.3173 71.0634 94.0427 65.1202 101.225 55.925C105.237 50.7876 108.076 44.6765 107.565 38.4647C107.054 32.2528 102.602 26.0729 95.8216 24.2261C93.9067 23.704 91.8828 23.5327 89.8856 23.5546C84.3671 23.61 80.4091 25.2872 75.8442 28.0053L73.6862 29.1805C73.5751 29.2426 70.1016 26.3986 69.8891 26.2559C69.2881 25.8588 68.6427 25.5162 67.9628 25.2334Z" fill="#87226C"/>
<path d="M68.4685 23.8172C64.928 22.3348 60.8475 22.0158 57.014 22.6521C53.4103 23.2514 49.9636 24.5089 47.1029 26.5454C44.3823 28.4704 42.2722 30.9767 40.9754 33.8233C39.4436 37.2146 39.5068 40.9434 39.9721 44.5127C40.3567 47.4846 41.3491 50.3715 42.9018 53.0347C44.4011 55.595 46.3676 57.9219 48.5735 60.0457C51.1344 62.5254 53.9439 64.7988 56.9681 66.8384C58.5689 67.9112 60.2137 68.932 61.8528 69.9611C62.6053 70.4329 63.3617 70.8979 64.0817 71.41C65.6135 72.5029 67.1224 73.6211 68.6274 74.7426C69.9812 75.7499 71.3695 76.7404 72.6486 77.8216L72.7501 77.9089C72.8975 78.0331 72.3001 77.464 72.482 77.6705C72.497 77.6885 72.5136 77.7053 72.5318 77.7209C72.2005 77.4405 72.0071 76.5709 72.168 76.1897L72.6486 75.5702C72.4834 75.6966 72.3492 75.851 72.2541 76.0242C72.159 76.1973 72.1049 76.3856 72.0952 76.5776C72.0873 77.0095 72.2512 77.4303 72.5586 77.7679C73.1924 78.426 74.146 78.698 75.0076 78.2178C80.9934 74.8936 86.9198 71.4318 92.2219 67.29C94.9701 65.1531 97.5186 62.8266 99.8429 60.3328C102.177 57.8144 104.278 55.1064 105.9 52.1835C107.652 49.0272 108.894 45.6896 109.26 42.1808C109.593 39.0292 109.091 35.8528 107.791 32.8999C106.56 30.0808 104.554 27.5718 101.951 25.5951C100.686 24.6409 99.2664 23.8567 97.7385 23.2682C95.795 22.5551 93.7278 22.1356 91.6245 22.0275C87.9782 21.7739 84.3158 22.2921 80.9455 23.5385C78.2188 24.566 75.7966 26.0568 73.2862 27.4234L72.4839 27.8616L72.8669 27.6769L73.7305 27.6316C73.5639 27.6182 74.3049 27.8247 74.1249 27.7475C74.7951 28.0329 74.5902 28.0228 74.4524 27.9271L74.2609 27.7878C74.0579 27.6417 73.8607 27.4889 73.6634 27.3378C73.1528 26.9472 72.6518 26.5521 72.1603 26.1525C71.7658 25.8369 71.3714 25.5179 70.9731 25.2056C70.2151 24.6443 69.3731 24.1766 68.4704 23.8155C67.6777 23.4798 66.5556 23.7148 66.3086 24.5341C66.198 24.9496 66.2514 25.3857 66.46 25.7712C66.6687 26.1567 67.0204 26.4687 67.4575 26.6562C67.67 26.7469 67.8826 26.8425 68.0894 26.945L68.2962 27.0474L68.3977 27.1011C68.5681 27.1934 68.5317 27.1716 68.2866 27.0373C68.4343 27.1507 68.5969 27.2483 68.7711 27.3277C68.8515 27.3798 68.9319 27.4318 69.0085 27.4872C69.2172 27.6417 69.4164 27.8079 69.6174 27.9691C70.3068 28.5214 70.9961 29.0738 71.695 29.6177C72.5892 30.3111 73.5868 31.174 74.8545 30.5025C75.4978 30.1667 76.1297 29.8041 76.7693 29.4549C78.0254 28.7665 79.2375 28.0312 80.5357 27.3999L80.1528 27.5846C81.9833 26.6774 83.9452 25.9913 85.9853 25.5448L86.3338 25.4759L86.5253 25.4373C86.7398 25.397 86.1902 25.4927 86.4066 25.4592C86.6804 25.4172 86.9542 25.3735 87.23 25.3366C87.7802 25.2661 88.3329 25.2135 88.8882 25.1788C89.4818 25.1435 90.0792 25.1284 90.6748 25.1318C90.9888 25.1318 91.3028 25.1318 91.6169 25.1502L92.0553 25.1704C92.1147 25.1704 92.3866 25.1939 92.1473 25.1704C91.9079 25.1469 92.287 25.1821 92.3024 25.1821C92.9266 25.2359 93.547 25.3131 94.1617 25.4205C94.4897 25.4776 94.8152 25.5437 95.1382 25.6186C95.2799 25.6505 95.4197 25.6858 95.5595 25.7227C95.7166 25.7432 95.8691 25.7851 96.0114 25.847C96.0305 25.8604 95.6284 25.7261 95.7988 25.7832L95.9788 25.8403L96.289 25.9427C96.5226 26.0249 96.7543 26.1106 96.9841 26.2029C97.4259 26.3802 97.8573 26.5769 98.2766 26.7922L98.5983 26.9601C98.7668 27.0491 98.3628 26.8224 98.3858 26.8409C98.4359 26.874 98.4883 26.9043 98.5428 26.9315C98.7515 27.0507 98.9583 27.1766 99.1593 27.3059C99.5512 27.5577 99.9297 27.8241 100.295 28.1051C100.471 28.241 100.645 28.3821 100.814 28.5248C100.904 28.5986 100.988 28.6927 101.084 28.7565C101.116 28.7783 100.747 28.4509 100.892 28.5886L101.055 28.738C101.392 29.0503 101.711 29.3743 102.012 29.7101C102.314 30.0458 102.605 30.3934 102.888 30.7526C103.022 30.9205 103.15 31.1035 103.27 31.2798C103.391 31.4561 103.112 31.0448 103.129 31.0767C103.146 31.1086 103.196 31.174 103.226 31.2211C103.299 31.3285 103.372 31.4376 103.443 31.5484C103.931 32.3086 104.355 33.0992 104.71 33.914C104.797 34.1104 104.877 34.3102 104.957 34.51C105.059 34.7685 104.808 34.107 104.94 34.4663C104.984 34.5872 105.026 34.7081 105.067 34.8306C105.208 35.2492 105.332 35.6718 105.438 36.0982C105.545 36.5229 105.63 36.9527 105.702 37.3825C105.735 37.5773 105.762 37.772 105.785 37.9668C105.8 38.0826 105.817 38.4872 105.785 37.9802C105.785 38.1028 105.806 38.2253 105.815 38.3479C105.886 39.3778 105.87 40.4109 105.767 41.4387C105.718 41.9508 105.645 42.4611 105.555 42.9698C105.555 43.0252 105.497 43.2418 105.555 43.0236C105.612 42.8053 105.555 43.0236 105.543 43.0773C105.52 43.1914 105.496 43.3056 105.471 43.4131C105.413 43.675 105.35 43.9352 105.279 44.1937C105.017 45.2033 104.687 46.1983 104.291 47.1737C103.919 48.1639 103.465 49.1291 102.933 50.0614C102.953 50.0278 103.098 49.7609 102.968 49.9942L102.893 50.1302L102.688 50.4929C102.549 50.7329 102.409 50.973 102.263 51.2114C101.984 51.6737 101.692 52.1298 101.388 52.5797C100.789 53.4746 100.144 54.3476 99.4734 55.2004C98.1792 56.8284 96.7797 58.3901 95.2818 59.8778C94.9103 60.246 94.5338 60.6098 94.1521 60.9691L94.4489 60.6904C92.0011 62.9742 89.369 65.1006 86.5732 67.0533C83.7603 69.031 80.8153 70.8627 77.8148 72.6154C76.101 73.6227 74.3681 74.5948 72.6256 75.5618L74.9847 78.2061C75.7391 77.5547 75.651 76.643 75.0306 75.9446C74.8397 75.7484 74.633 75.5644 74.4121 75.394C74.0292 75.0716 73.6251 74.7644 73.2249 74.4571C71.9918 73.5086 70.7357 72.5768 69.4872 71.6484C68.3383 70.8089 67.1894 69.9561 66.0405 69.1301C64.5259 68.0438 62.8868 67.0919 61.3013 66.0879C58.8121 64.5081 56.3726 62.8645 54.1418 61.0026C53.6593 60.5997 53.1818 60.1917 52.7095 59.7787L52.3878 59.495C52.1255 59.2633 52.6808 59.7586 52.4989 59.5957C52.4414 59.542 52.3821 59.49 52.3246 59.4379C52.0923 59.2286 51.8625 59.0176 51.6353 58.805C50.7813 58.0058 49.956 57.1815 49.1767 56.3253C48.4162 55.4939 47.7061 54.6281 47.0493 53.7314C46.9669 53.6173 46.8769 53.5031 46.8004 53.3839C46.8004 53.3839 47.078 53.7851 46.9229 53.5518L46.8023 53.3755C46.644 53.1405 46.4889 52.9032 46.337 52.6637C46.0421 52.1958 45.7657 51.719 45.5078 51.2333C45.2551 50.7581 45.0196 50.2729 44.8051 49.7827C44.696 49.5359 44.5906 49.279 44.493 49.0339C44.4489 48.9231 44.3724 48.6982 44.537 49.1582C44.5179 49.1044 44.4968 49.0507 44.4777 48.9903C44.4241 48.8425 44.3704 48.6931 44.3187 48.5437C43.9498 47.4612 43.6689 46.3571 43.4781 45.2397C43.4283 44.9509 43.3843 44.6621 43.346 44.3717L43.2943 43.9536C43.2943 43.8731 43.2771 43.7858 43.2694 43.7102L43.2522 43.5423C43.2713 43.7438 43.2752 43.7858 43.2637 43.6699C43.2024 42.948 43.1469 42.2261 43.1315 41.5008C43.1162 40.7755 43.1315 40.0939 43.189 39.3921C43.2183 39.0418 43.2592 38.6926 43.3115 38.3445C43.3249 38.2522 43.3996 37.7301 43.3441 38.1246C43.3709 37.9366 43.4226 37.7468 43.4666 37.5605C43.7358 36.478 44.1377 35.4243 44.6653 34.4176C44.807 34.1423 44.5255 34.6678 44.6289 34.4865L44.7381 34.2934C44.8051 34.1792 44.8721 34.0634 44.943 33.9492C45.0981 33.6957 45.2608 33.4456 45.4312 33.2004C45.764 32.7203 46.1251 32.2558 46.5131 31.8087C46.8961 31.3722 47.2944 30.9541 47.7195 30.5512L47.4227 30.8299C48.8181 29.515 50.4391 28.3991 52.227 27.5225L51.844 27.7072C52.778 27.2646 53.7499 26.8863 54.7507 26.5756C55.2715 26.4077 55.8019 26.2566 56.3362 26.124C56.5915 26.0602 56.8538 25.9998 57.1232 25.9427L57.4946 25.8671L57.7072 25.8268C58.0117 25.7697 57.7206 25.7748 57.6593 25.8268C57.7129 25.7765 58.0059 25.7697 58.0902 25.758L58.4731 25.7026C58.7642 25.664 59.0476 25.6304 59.3444 25.6019C59.9092 25.5481 60.478 25.5129 61.0447 25.5028C61.6115 25.4927 62.1821 25.5028 62.7508 25.5381L62.5843 25.528C62.6532 25.5381 62.7317 25.5397 62.8025 25.5448C62.9481 25.5582 63.0955 25.5733 63.241 25.5901C63.5321 25.622 63.8155 25.6623 64.1123 25.7076C64.7283 25.8066 65.337 25.9378 65.9352 26.1005L66.1458 26.1609C66.4541 26.2449 65.8682 26.0703 66.0769 26.1391C66.232 26.1911 66.3909 26.2398 66.546 26.2952C66.8582 26.4044 67.1645 26.5236 67.469 26.6512C68.2636 26.9869 69.3838 26.7552 69.6308 25.9326C69.7396 25.5167 69.6838 25.0807 69.4725 24.6963C69.2613 24.3119 68.9073 24.0019 68.4685 23.8172Z" fill="#87226C"/>
<path d="M97.6239 19.0756L98.1237 9.61853C98.1428 9.25253 97.9092 8.76902 97.7158 8.4601C97.5004 8.09634 97.1909 7.78183 96.812 7.54176C96.5784 7.41584 96.2146 7.24124 95.9446 7.40073C95.6746 7.56022 95.6363 7.84396 95.621 8.12097L95.1212 17.5714C95.1021 17.9374 95.3357 18.4209 95.5291 18.7298C95.7445 19.0935 96.054 19.4081 96.4329 19.6481C96.6665 19.774 97.0303 19.9486 97.3003 19.7892C97.5703 19.6297 97.6105 19.3459 97.6239 19.0689V19.0756Z" fill="#1F94BC"/>
<path d="M107.379 21.892C109.051 19.2058 110.797 16.5588 112.616 13.9509C113.126 13.2122 113.647 12.4769 114.178 11.7449C114.314 11.5552 113.929 11.5669 113.86 11.577C113.476 11.6274 113.103 11.7305 112.755 11.8826C112.301 12.0513 111.867 12.2588 111.459 12.5021C111.196 12.6422 110.968 12.8265 110.787 13.0443C108.927 15.6321 107.14 18.2578 105.425 20.9216C104.939 21.6749 104.46 22.4321 103.987 23.1932C103.869 23.3829 104.215 23.3728 104.305 23.361C104.689 23.3099 105.062 23.2068 105.41 23.0555C105.864 22.8861 106.298 22.6786 106.706 22.436C106.974 22.3009 107.204 22.1151 107.379 21.892Z" fill="#1F94BC"/>
<path d="M124.419 24.248C120.636 24.3086 116.906 25.0324 113.448 26.3769C112.5 26.7442 111.576 27.159 110.682 27.6192C109.916 28.0154 110.172 28.9103 110.657 29.419C110.965 29.7673 111.377 30.034 111.848 30.1896C112.202 30.2903 112.663 30.381 113.008 30.203C114.972 29.1959 117.071 28.4064 119.256 27.8526L118.911 27.9399C121.236 27.3539 123.638 27.0401 126.056 27.0064C126.231 26.9926 126.398 26.9356 126.537 26.842C126.677 26.7484 126.783 26.6221 126.845 26.4776C126.944 26.1363 126.886 25.7746 126.684 25.4703C126.469 25.1052 126.144 24.7985 125.745 24.5834C125.346 24.3683 124.887 24.2529 124.419 24.2497V24.248Z" fill="#1F94BC"/>
<path d="M21.0287 30.8841C23.1652 30.9334 25.2955 30.6603 27.3265 30.0766C28.9054 29.61 30.4369 29.0282 31.9049 28.3373C33.2969 27.7094 34.668 27.0412 36.0907 26.4637L36.6096 26.2588C36.9294 26.1363 36.3204 26.3646 36.5541 26.279L36.8681 26.1648C37.2293 26.0372 37.5951 25.9186 37.9653 25.8089L38.2142 25.7367C38.2851 25.7166 38.6699 25.6142 38.3176 25.7065C37.9653 25.7988 38.3042 25.7065 38.3865 25.6914L38.714 25.6158C38.9055 25.5755 39.0816 25.5403 39.2655 25.505C39.5508 25.4513 38.7121 25.5957 39.1008 25.5336C39.2118 25.5151 39.3248 25.4983 39.4378 25.4832C39.6139 25.4597 39.792 25.4429 39.9682 25.4228C39.2023 25.5101 39.9471 25.4228 40.1597 25.4228C40.2631 25.4228 40.3684 25.4144 40.4718 25.4127C40.5235 25.4127 40.5771 25.4127 40.6288 25.4127C40.5408 25.4087 40.4526 25.4087 40.3646 25.4127C40.5924 25.4127 40.8184 25.4228 41.0462 25.4362L41.3871 25.4597C41.45 25.4719 41.5142 25.478 41.5786 25.4782C41.3967 25.5218 41.3009 25.4479 41.4732 25.4681C41.7337 25.5 41.9941 25.5319 42.2526 25.5688C42.76 25.6427 43.2636 25.7367 43.7653 25.819C46.0727 26.2253 48.4011 26.5728 50.7525 26.2135C52.7439 25.9113 55.8632 25.0601 55.461 22.7735C55.1604 21.0678 53.2992 20.1712 51.6161 19.6424C49.5442 18.9893 47.4035 18.4672 45.2761 17.987C43.1487 17.5069 41.0194 17.1291 38.8633 16.8219C38.3412 16.748 37.8185 16.6786 37.2951 16.6137L37.7068 17.2651C37.9098 17.1476 38.1146 17.0317 38.3195 16.9159C38.3597 16.8941 38.3999 16.8689 38.4421 16.8487C38.2027 16.9663 38.3597 16.8941 38.4114 16.8655L38.7848 16.6624C39.1984 16.4385 39.6171 16.2225 40.041 16.0143C40.9013 15.5857 41.7771 15.1833 42.6681 14.8072C43.12 14.6158 43.5776 14.4312 44.0372 14.2532C44.1445 14.2204 44.2488 14.1806 44.3493 14.134C44.3244 14.1474 44.0046 14.2616 44.2478 14.1726L44.3838 14.1222C44.6231 14.0349 44.8625 13.9544 45.1038 13.8637C46.0203 13.5414 46.9496 13.2459 47.8917 12.9773C48.1228 12.9123 48.3545 12.8485 48.5868 12.7859L48.7266 12.7472L48.5638 12.7909C48.6864 12.7556 48.8128 12.7254 48.9372 12.6952C49.4198 12.5726 49.9061 12.4585 50.3925 12.3594C50.8789 12.2604 51.3691 12.1529 51.8612 12.0606L52.5275 11.9397L52.5754 11.9313L52.315 11.975L52.5065 11.9431L52.8894 11.8826C54.8962 11.5704 56.9259 11.379 58.946 11.159C61.0906 10.9173 63.2429 10.6285 65.3301 10.1248C66.4686 9.85599 67.585 9.51943 68.6714 9.11752C69.6383 8.7834 70.542 8.32324 71.3522 7.75259C72.0549 7.22542 72.6504 6.56227 72.884 5.76816C73.1177 4.97405 73.0755 4.19841 72.5604 3.48321C72.0817 2.81166 71.2201 2.4188 70.4005 2.14011C69.645 1.88182 68.8749 1.65768 68.0931 1.46856C64.9274 0.684643 61.6553 0.279722 58.3658 0.264806C54.7783 0.256223 51.2009 0.599162 47.7003 1.28724C44.3034 1.96131 40.9873 2.91697 37.7968 4.14133C34.7162 5.31768 31.757 6.72476 28.9522 8.34691C26.2491 9.89639 23.7044 11.6484 21.3465 13.5833C19.0484 15.4592 16.9589 17.5223 15.1061 19.7448C14.6772 20.2653 14.2636 20.7947 13.8653 21.333C13.8289 21.3798 13.8141 21.437 13.8236 21.493C13.8332 21.549 13.8666 21.5998 13.917 21.6352L16.0099 24.6874L19.3417 29.5561L20.1076 30.6709C20.234 30.8539 20.864 30.8892 21.0363 30.8993C21.5306 30.9205 22.0257 30.8763 22.505 30.7683C22.8669 30.6844 23.315 30.5903 23.5926 30.3603C23.7841 30.2076 23.8511 30.1018 23.7113 29.897L21.6184 26.8448L18.2847 21.976L17.5188 20.8613L17.5705 21.1635C18.6357 19.7276 19.8082 18.3552 21.0804 17.0552C21.3944 16.734 21.7135 16.4173 22.0378 16.105C22.0378 16.105 22.2101 15.9371 22.1086 16.0378L22.1814 15.969L22.4418 15.7239C22.618 15.556 22.796 15.3982 22.9741 15.237C23.6762 14.6013 24.4 13.9857 25.1455 13.3903C26.6602 12.1692 28.2506 11.0224 29.9096 9.95528C30.7623 9.4102 31.631 8.88527 32.5157 8.38049L32.8201 8.2126L32.9887 8.11691C33.1418 8.03128 32.7167 8.268 32.9504 8.13873C33.184 8.00946 33.4042 7.89026 33.6339 7.7677C34.0935 7.52259 34.555 7.28251 35.0222 7.04914C36.8444 6.1403 38.7203 5.31705 40.6422 4.58287C40.1558 4.76923 40.6058 4.5963 40.7188 4.55601L41.052 4.43345L41.7969 4.16987C42.2807 4.00198 42.7683 3.84025 43.2598 3.68467C43.7615 3.52686 44.2651 3.37408 44.7725 3.2297C45.0004 3.16422 45.2282 3.10043 45.458 3.03831L45.841 2.9359C46.0975 2.86706 45.6208 2.99298 45.6265 2.9913C45.6993 2.9678 45.7797 2.95269 45.8544 2.93254C46.8577 2.67735 47.8688 2.45014 48.8875 2.25092C49.1325 2.20391 49.3757 2.15858 49.6208 2.11493C49.7147 2.09814 50.1589 2.02091 49.7568 2.08974C49.3547 2.15858 49.8621 2.07295 49.9712 2.05617C50.4844 1.97222 51.0014 1.89667 51.5184 1.8312C52.0354 1.76572 52.4969 1.712 52.989 1.66331L53.372 1.62637C52.6424 1.69521 53.1613 1.64652 53.3298 1.62637C53.5864 1.60455 53.8449 1.58608 54.0958 1.57097C54.5975 1.53963 55.0998 1.51669 55.6027 1.50214C55.8459 1.50214 56.091 1.48871 56.3342 1.48703H56.6808C56.9029 1.48703 56.1829 1.48703 56.4893 1.48703H56.7191C57.7148 1.49542 58.7105 1.53739 59.7043 1.61798L60.0873 1.64988L60.2385 1.66499C60.5238 1.69017 59.9073 1.62973 60.1064 1.65156C60.3707 1.67842 60.6368 1.70696 60.9011 1.73886C61.3779 1.79762 61.8585 1.86645 62.3295 1.942C62.8006 2.01755 63.3252 2.10989 63.8193 2.21566C64.0433 2.26099 64.2635 2.30968 64.4856 2.35836L64.8533 2.44399L64.9165 2.4591L65.016 2.48428C66.0232 2.73779 67.0611 3.00305 67.9897 3.43788C68.0261 3.45467 68.1372 3.52686 67.9897 3.43788C68.0472 3.47314 68.1085 3.50503 68.164 3.54029C68.2668 3.60337 68.3653 3.67176 68.4589 3.74511C68.6659 3.90744 68.8435 4.09654 68.9855 4.30586L68.8935 4.16316C69.228 4.71996 69.3199 5.36448 69.1521 5.97634L69.1942 5.81685C69.072 6.286 68.8356 6.72642 68.501 7.1079C68.4685 7.14484 68.2253 7.38492 68.3517 7.27579C68.2521 7.36813 68.1448 7.45711 68.0357 7.54273C67.9266 7.62836 67.8327 7.69215 67.7293 7.76434C67.611 7.86324 67.4769 7.94639 67.331 8.01114C67.5225 7.96077 67.4804 7.93223 67.3827 7.9826L67.1913 8.08165C67.0764 8.14041 66.9577 8.19581 66.8389 8.24954C66.7202 8.30326 66.5728 8.36706 66.4368 8.41743L66.2741 8.4829L66.1113 8.5467L66.3162 8.46947C65.7235 8.69789 65.1146 8.89249 64.4933 9.05204C64.4148 9.07387 64.3363 9.09737 64.2578 9.11584C64.2769 9.11584 64.6943 9.00671 64.4148 9.07387L63.9361 9.19139C63.6163 9.26526 63.2946 9.33577 62.9786 9.39957C62.6876 9.45833 62.3946 9.51205 62.1017 9.56746C61.8087 9.62286 62.2931 9.53388 62.3085 9.5322C62.2127 9.55235 62.117 9.5641 62.0155 9.58089C61.8527 9.60607 61.6881 9.63293 61.5234 9.65644C60.2404 9.84951 58.946 9.99221 57.6535 10.1316C54.9881 10.4186 52.3322 10.7276 49.7166 11.2715C47.1645 11.7996 44.6666 12.5122 42.2487 13.402C39.4827 14.4208 36.8308 15.6629 34.3271 17.1123C34.2489 17.1477 34.1888 17.2076 34.1586 17.28C34.1285 17.3525 34.1305 17.4323 34.1644 17.5035C34.262 17.6714 34.5473 17.7402 34.7388 17.7637C37.1808 18.0659 39.6018 18.4717 42.0017 18.9809C42.6158 19.1119 43.2298 19.2495 43.8438 19.3939L44.2517 19.4913C44.4834 19.5467 44.2861 19.4997 44.2421 19.4913L44.4451 19.5417L45.3584 19.7733C46.4863 20.0671 47.6237 20.366 48.7247 20.7337C49.0043 20.8277 49.28 20.9284 49.55 21.0426C49.684 21.0997 49.8161 21.1601 49.9444 21.2239C50.111 21.3028 49.9942 21.2491 49.9598 21.2239C50.0344 21.2659 50.1091 21.3078 50.1819 21.3515C50.6517 21.6272 51.0481 21.9886 51.3442 22.4109L51.2503 22.2681C51.6259 22.807 51.7622 23.4482 51.6333 24.0696L51.6754 23.9101C51.617 24.1343 51.5118 24.3472 51.3652 24.538C51.3346 24.5783 51.2982 24.6169 51.2657 24.6555C51.1163 24.8318 51.3518 24.6051 51.235 24.6841C51.1054 24.7574 50.9853 24.8429 50.8769 24.9392L51.011 24.8654C50.9752 24.8855 50.9389 24.904 50.9018 24.9208C50.8387 24.9527 50.7755 24.9779 50.7104 25.0081C50.607 25.0568 50.4882 25.05 50.8444 24.9611C50.7774 24.9779 50.7104 25.0081 50.6529 25.0299C50.5955 25.0517 50.517 25.0652 50.4519 25.0887C50.8655 24.9376 50.741 25.0181 50.6146 25.045L50.3351 25.1054C50.0057 25.176 50.8176 25.04 50.4595 25.0836C50.3599 25.0954 49.8621 25.1491 50.2412 25.1155C50.6204 25.0819 50.1206 25.1155 50.021 25.1239C49.926 25.1281 49.8308 25.1281 49.7357 25.1239C49.751 25.1239 50.1991 25.1239 49.9138 25.1239C49.7376 25.1239 49.5615 25.1138 49.3872 25.1038C49.2436 25.1038 49.1 25.0836 48.9545 25.0719C48.6098 25.045 49.3125 25.1155 48.9679 25.0719L48.7764 25.05C48.4528 25.0098 48.1311 24.9627 47.8094 24.9124C46.5092 24.7076 45.2225 24.4339 43.9108 24.2929C42.4606 24.1334 40.9933 24.1334 39.5431 24.2929C37.1783 24.5581 34.9265 25.2884 32.7895 26.19C30.9762 26.9539 29.2356 27.8454 27.4069 28.5874L26.9914 28.7553L26.8535 28.809C26.5816 28.9131 27.2174 28.6747 26.9435 28.7755C26.6697 28.8762 26.4304 28.9601 26.1776 29.0458C25.9249 29.1314 25.6587 29.2137 25.3964 29.2892C25.247 29.3312 24.6841 29.4571 25.3332 29.3094L24.9713 29.3983C24.7013 29.4605 24.4313 29.5125 24.1594 29.5662C24.9023 29.4218 24.3126 29.5394 24.1364 29.5662C23.9985 29.5847 23.8588 29.6032 23.719 29.6183C23.6577 29.6183 23.5888 29.6183 23.5275 29.6367C23.6271 29.6149 24.0732 29.5931 23.719 29.6183L23.2939 29.6434C23.1503 29.6434 23.0067 29.6434 22.8611 29.6535C23.5237 29.6384 22.9282 29.6535 22.7673 29.6451C22.2732 29.6297 21.7791 29.6738 21.2986 29.7761C20.9731 29.8466 20.4676 29.9708 20.211 30.184C20.0636 30.3049 19.8874 30.4846 20.0923 30.6474C20.2972 30.8103 20.7414 30.8741 21.0287 30.8841Z" fill="#87226C"/>
<path d="M4.27232 26.0026L8.82003 22.8413L11.0565 21.2866L12.1748 20.5093C12.3491 20.3884 12.5444 20.2776 12.7129 20.1517C12.4122 20.2961 12.3433 20.3313 12.5061 20.2592C12.2871 20.3497 12.052 20.4065 11.811 20.427C11.6091 20.4457 11.405 20.4303 11.2097 20.3817C11.2557 20.3916 11.3006 20.4051 11.3438 20.422L10.9934 20.2911C11.1025 20.3366 11.2053 20.3929 11.2997 20.4589L11.0393 20.2692C11.37 20.5412 11.676 20.8353 11.9546 21.149C12.2533 21.4562 12.5463 21.7668 12.8373 22.0807C13.4245 22.7153 13.9952 23.3628 14.5492 24.0232C15.6585 25.3428 16.6932 26.706 17.6531 28.1129C18.1995 28.911 18.7197 29.7202 19.2137 30.5406L19.0663 30.2938C19.6714 31.3011 20.2394 32.3224 20.7705 33.3577C21.0334 33.8704 21.2887 34.3869 21.5364 34.9073C21.7815 35.4362 22.1376 36.0137 22.1779 36.5862L22.1625 36.3075C22.162 36.4291 22.142 36.5501 22.1032 36.6668L22.2142 36.3848C22.1316 36.5825 22.0154 36.7681 21.8696 36.9354L22.0955 36.6651C21.8415 36.9589 21.5678 37.2392 21.276 37.5046C21.1304 37.6372 20.983 37.7665 20.8298 37.8941C20.7532 37.9579 20.6766 38.02 20.5981 38.0804C20.5196 38.1409 20.1864 38.3793 20.6288 38.0636C19.9768 38.5347 19.294 38.972 18.5837 39.3732C18.2237 39.5746 17.858 39.7643 17.4904 39.954C18.1012 39.6401 17.4272 39.9826 17.274 40.0581L16.711 40.3268C16.337 40.5047 15.9623 40.6799 15.587 40.8522C15.4875 40.8976 15.3955 40.9446 15.2864 40.9849C15.2347 41.0067 15.1849 41.0252 15.1313 41.0436C15.4836 40.9379 15.564 40.9093 15.3745 40.9563C15.7421 40.9043 15.8283 40.8875 15.6311 40.9043C15.9853 40.9043 16.0734 40.9043 15.8934 40.8909C16.4123 40.9328 16.1481 40.9312 15.9872 40.8774L16.3396 41.0084C16.1465 40.9324 15.9666 40.8329 15.8053 40.7129L16.0657 40.9043C15.6228 40.532 15.2203 40.1246 14.8632 39.6871C14.4394 39.2181 14.0207 38.7464 13.6071 38.2718C12.7799 37.3216 11.9706 36.3596 11.1791 35.3858C9.59617 33.4361 8.09048 31.4421 6.66202 29.404C5.85652 28.2523 5.07527 27.0871 4.31827 25.9086C4.15168 25.65 3.56767 25.5443 3.28236 25.5241C2.78196 25.4953 2.28152 25.5797 1.829 25.7692C1.4671 25.9371 1.04392 26.1537 0.871588 26.4911L0.75287 26.7765C0.735542 26.8695 0.741466 26.9646 0.770231 27.0554C0.798997 27.1461 0.849914 27.2303 0.919459 27.302C3.21706 30.8824 5.75085 34.3423 8.50791 37.6641C9.20491 38.5046 9.91659 39.3362 10.6429 40.1589C11.3495 40.9614 12.0235 41.8377 12.9273 42.4891C13.5885 42.9322 14.4192 43.1343 15.2462 43.0532C16.0868 42.9878 16.8202 42.6856 17.544 42.3464C18.5895 41.8596 19.6292 41.3626 20.6364 40.8187C21.624 40.2851 22.5591 39.6803 23.4321 39.0105C23.8192 38.7169 24.1856 38.403 24.5293 38.0703C24.939 37.6725 25.4062 37.2309 25.6494 36.7373C25.8314 36.3977 25.903 36.0207 25.8562 35.6477C25.8142 35.3751 25.7291 35.109 25.6035 34.857C25.412 34.4238 25.2135 33.9935 25.008 33.5659C24.5752 32.6638 24.1144 31.7734 23.6255 30.8948C21.6635 27.3554 19.2611 24.0171 16.4621 20.9408C16.1232 20.5681 15.7766 20.2004 15.4262 19.8378C15.0545 19.4144 14.6328 19.0266 14.1681 18.681C13.2624 18.0682 11.8952 18.1773 10.9129 18.5903C10.2638 18.864 9.72574 19.2787 9.16662 19.6682L3.31491 23.7361L1.86155 24.7434C1.57816 24.9399 1.25264 25.2034 1.19902 25.5409C1.18174 25.684 1.21305 25.8284 1.28902 25.9559C1.36498 26.0834 1.48223 26.1884 1.62603 26.2578C2.00941 26.4318 2.44508 26.497 2.87258 26.4441C3.37284 26.4068 3.8527 26.2532 4.26275 25.9992L4.27232 26.0026Z" fill="#87226C"/>
<path d="M15.6888 35.6543C15.6603 35.5602 15.6467 35.463 15.6486 35.3656L15.6333 35.7601C15.6385 35.6458 15.6624 35.5327 15.7041 35.4243L15.5548 35.797C15.6001 35.6808 15.6646 35.5711 15.7463 35.4713L15.482 35.7853C15.5584 35.6928 15.6493 35.6103 15.752 35.5402L15.3939 35.7836C15.4741 35.7305 15.5609 35.6855 15.6524 35.6493L15.2235 35.8172C15.2985 35.7889 15.3769 35.7681 15.4571 35.7551L14.9765 35.8256C15.0575 35.8141 15.1397 35.8102 15.2216 35.8138L14.7103 35.7819C14.7791 35.7873 14.8471 35.7985 14.9133 35.8155L14.4231 35.6795C14.5043 35.7028 14.5825 35.7332 14.6567 35.7702L14.2393 35.5502C14.3195 35.5939 14.394 35.6451 14.4614 35.703L14.1302 35.4126C14.2122 35.4814 14.2855 35.558 14.3484 35.6409L14.1168 35.3051C14.1726 35.3902 14.2163 35.481 14.247 35.5754L14.1321 35.1994C14.1545 35.2892 14.1628 35.3812 14.157 35.473L14.1723 35.0785C14.1686 35.1592 14.1512 35.239 14.1206 35.3152L14.2719 34.9425C14.2426 35.0112 14.2041 35.0766 14.157 35.1372L14.4212 34.8233C14.3771 34.8748 14.3257 34.9211 14.268 34.961L14.6242 34.7175C14.5648 34.7563 14.5006 34.7889 14.4327 34.8149L14.8635 34.647C14.7817 34.6772 14.6963 34.6991 14.6089 34.7125L15.0895 34.642C15.0007 34.6528 14.9109 34.6562 14.8214 34.652L15.3327 34.6823C15.2425 34.6766 15.1533 34.6625 15.0665 34.6403L15.5567 34.7763C15.4727 34.7526 15.3918 34.7211 15.3154 34.6823L15.7329 34.9022C15.6717 34.8694 15.6146 34.8312 15.5624 34.788L15.8937 35.0768C15.8484 35.0368 15.8085 34.9923 15.775 34.9442L16.0048 35.2799C15.9675 35.2247 15.9385 35.1654 15.9186 35.1037L16.0335 35.4797V35.4596C16.0164 35.262 15.9368 35.0724 15.8037 34.9123C15.7021 34.7281 15.5486 34.5698 15.3576 34.4523C15.1658 34.3118 14.9387 34.2134 14.695 34.1652C14.4554 34.0803 14.1962 34.0463 13.9387 34.0661C13.4631 34.0792 13.0105 34.2489 12.6711 34.5412L12.4068 34.8552C12.2589 35.0954 12.2013 35.3703 12.2421 35.6409C12.3096 35.98 12.4648 36.3011 12.696 36.5794C12.7245 36.6148 12.7559 36.6485 12.7898 36.6801C12.923 36.8146 13.0697 36.9382 13.2283 37.0495C13.3967 37.1533 13.5726 37.2475 13.7548 37.3315C13.8004 37.3531 13.8478 37.3716 13.8965 37.3869C14.098 37.4537 14.3039 37.5098 14.5131 37.5548C14.5681 37.5659 14.6237 37.5743 14.6797 37.58C14.9482 37.6172 15.2209 37.6251 15.4916 37.6035C15.6981 37.5841 15.9029 37.5522 16.1043 37.5078C16.2975 37.4518 16.4857 37.3834 16.6673 37.303C16.7104 37.2855 16.752 37.2653 16.7918 37.2425C16.9583 37.1476 17.1153 37.0404 17.2609 36.9219C17.3458 36.845 17.4221 36.7613 17.4888 36.6717C17.573 36.5834 17.6467 36.4877 17.709 36.3863C17.7931 36.2239 17.861 36.0554 17.9119 35.8827C17.9266 35.8274 17.9362 35.7713 17.9407 35.7148C17.9758 35.4847 17.9687 35.2512 17.9196 35.0231C17.8729 34.7983 17.791 34.5802 17.6764 34.375C17.5816 34.2176 17.4754 34.0656 17.3586 33.92C17.2699 33.827 17.1746 33.7389 17.0732 33.6565C16.9827 33.57 16.8847 33.4898 16.7803 33.4164C16.6033 33.3042 16.417 33.2038 16.2231 33.1159C16.1694 33.0927 16.1144 33.072 16.0584 33.0537C15.8477 32.9803 15.6298 32.9241 15.4073 32.8859C14.9651 32.8246 14.5133 32.8411 14.0785 32.9345C14.0208 32.9465 13.964 32.9611 13.908 32.9782C13.496 33.0934 13.1185 33.2878 12.8032 33.5473C12.7454 33.5881 12.6916 33.6331 12.6423 33.6816C12.5023 33.8226 12.3743 33.9724 12.2594 34.1299C12.2149 34.1881 12.1758 34.2493 12.1426 34.3129C12.0553 34.4861 11.9824 34.6645 11.9243 34.8468C11.9045 34.9089 11.8905 34.9724 11.8822 35.0365C11.857 35.2242 11.8499 35.4135 11.8611 35.6023C11.8654 35.6714 11.8776 35.7401 11.8975 35.8071C11.916 36.0044 11.9954 36.1936 12.1272 36.3544C12.2297 36.5386 12.3839 36.6969 12.5753 36.8144C12.7669 36.9554 12.994 37.0543 13.2378 37.1032C13.4771 37.1873 13.7354 37.2212 13.9923 37.2022C14.4684 37.1873 14.921 37.0173 15.2618 36.7254L15.5261 36.4132C15.6703 36.1779 15.7284 35.9095 15.6927 35.6443L15.6888 35.6543Z" fill="#87226C"/>
<path d="M98.3439 91.1919C96.1035 88.9758 92.9307 87.856 89.8076 86.9242C88.2757 86.4659 86.7267 86.0311 85.2369 85.4686C84.8654 85.3276 84.4978 85.1799 84.1359 85.0221C83.9674 84.9465 83.7989 84.871 83.6342 84.7921L83.4025 84.6796C83.3451 84.651 83.0196 84.4848 83.2225 84.5923C82.5361 84.2302 81.887 83.8162 81.2828 83.3549C79.9941 82.3476 79.0616 81.1036 78.1521 79.8293C77.2425 78.555 76.3387 77.2724 75.0156 76.3204C74.2193 75.7176 73.2612 75.3022 72.2314 75.1133C71.1858 74.9614 70.1144 75.0235 69.1007 75.2947C68.465 75.4384 67.8734 75.7032 67.3678 76.0703C66.6939 76.605 66.2713 77.3406 66.1825 78.1336C66.0657 79.0621 66.4218 79.9804 66.8374 80.8198C67.7154 82.5604 68.6978 84.259 69.7804 85.9085C70.8604 87.5874 72.017 89.2293 73.2559 90.8209C73.5648 91.2171 73.8782 91.6088 74.196 91.9961L77.2693 91.0459C76.7676 90.9435 76.266 90.836 75.7662 90.7185C75.6417 90.6899 75.5173 90.6631 75.3832 90.6312C75.4234 90.6413 75.6436 90.695 75.4196 90.6396L75.2281 90.5926C74.9811 90.5305 74.7322 90.465 74.4871 90.3995C73.499 90.1342 72.5231 89.8388 71.5593 89.5131C69.6324 88.8634 67.7591 88.0977 65.9527 87.2214L65.2787 86.8856L64.9455 86.7177C64.9455 86.7177 64.8076 86.6472 64.8842 86.6875C64.9608 86.7278 64.7617 86.622 64.7425 86.612C64.2996 86.3792 63.8624 86.1385 63.4309 85.89C62.5692 85.3987 61.7273 84.8799 60.9052 84.3337C59.2968 83.2676 57.7649 82.1143 56.1948 81.0045C54.6109 79.8551 52.9278 78.815 51.1607 77.8936C50.2786 77.4361 49.3551 77.0431 48.3995 76.7183C47.013 76.2564 45.5228 76.084 44.0471 76.2147C41.8757 76.4061 38.833 77.452 39.0686 79.7974C39.1547 80.6452 39.62 81.4427 40.0375 82.1982C40.384 82.8227 40.7593 83.4355 41.1557 84.045C42.6858 86.3417 44.5527 88.4527 46.7087 90.324C48.9035 92.2369 51.3291 93.9347 53.9429 95.3874C56.6593 96.9091 59.5288 98.2095 62.5156 99.2724C65.5502 100.345 68.6816 101.194 71.8772 101.811C75.0574 102.43 78.2915 102.813 81.5451 102.956C84.8242 103.104 88.1119 102.986 91.3663 102.603C92.0594 102.519 92.7526 102.42 93.44 102.308C93.8262 102.254 94.2044 102.164 94.5679 102.037C94.7383 101.974 95.1423 101.833 95.1978 101.655L96.2797 98.2147L98.0031 92.7583L98.3994 91.4992C98.4703 91.2776 98.3803 91.1819 98.1352 91.0862C97.7576 90.9727 97.3563 90.9331 96.9595 90.9703C96.4651 90.9882 95.9765 91.0708 95.51 91.2154C95.2763 91.296 94.7689 91.4337 94.6962 91.6687L93.6124 95.1087L91.889 100.565L91.4927 101.823L93.2505 101.169C92.3811 101.313 91.508 101.432 90.631 101.527L90.0163 101.589C89.8402 101.606 89.3614 101.645 90.1101 101.589L89.7655 101.618C89.3276 101.654 88.8878 101.683 88.4462 101.707C87.5309 101.757 86.6137 101.782 85.6965 101.789C85.438 101.789 85.9626 101.789 85.9454 101.789H85.4456C85.2082 101.789 84.9688 101.789 84.7295 101.789C84.2623 101.779 83.7951 101.765 83.3278 101.745C82.3972 101.705 81.4679 101.643 80.5398 101.561L80.2124 101.53L80.0209 101.514L80.2009 101.53C79.9577 101.514 79.7146 101.48 79.4733 101.453C78.9984 101.399 78.5248 101.341 78.0525 101.277C76.1694 101.024 74.302 100.687 72.4574 100.27L71.7719 100.11L71.6263 100.077C71.3736 100.014 71.8599 100.134 71.6914 100.092L71.2951 99.9926C70.8406 99.8807 70.3874 99.7615 69.9355 99.635C69.0088 99.3798 68.0897 99.1033 67.1782 98.8056C65.3838 98.2213 63.6261 97.5539 61.9124 96.8061C61.0737 96.439 60.244 96.0517 59.4232 95.6443C59.2202 95.5436 59.0191 95.4412 58.8162 95.3371C58.6247 95.2347 58.7683 95.3119 58.8162 95.3371L58.6898 95.2699C58.573 95.2095 58.4581 95.1474 58.3432 95.0852C57.936 94.867 57.5319 94.6431 57.1311 94.4137C55.5655 93.5104 54.067 92.5206 52.6447 91.4505C49.8446 89.3822 47.4167 86.9552 45.443 84.2515C45.2056 83.9157 44.9739 83.5799 44.7518 83.2441L44.8456 83.3852C44.4301 82.7489 44.0414 82.0991 43.6852 81.436C43.2065 80.5462 42.6876 79.5741 42.9193 78.5685L42.8771 78.7364C42.937 78.5134 43.0344 78.2995 43.1663 78.1017C43.2339 78.0051 43.3081 77.912 43.3884 77.823C43.5378 77.6451 43.2448 77.9305 43.4305 77.7794C43.488 77.7324 43.5435 77.6837 43.6029 77.6384C43.7129 77.5735 43.8184 77.5028 43.9188 77.4268C43.9188 77.4738 43.6833 77.5444 43.846 77.4688L44.0586 77.3697C44.2731 77.264 43.9207 77.4151 43.9111 77.4201C43.9846 77.3907 44.06 77.3655 44.1371 77.3446C44.3937 77.2589 43.9169 77.41 43.9245 77.3983L44.0796 77.3647C43.7235 77.4218 43.622 77.4403 43.7771 77.4168C43.9322 77.3933 44.0739 77.4335 43.5856 77.4251C43.6699 77.4251 43.758 77.4251 43.8422 77.4134C44.0835 77.4 43.3788 77.3899 43.7369 77.4134C43.8231 77.4134 43.9073 77.4252 43.9935 77.4285C44.2175 77.4419 43.6105 77.3748 43.9514 77.4285L44.1524 77.4587C44.2539 77.4755 44.3554 77.494 44.455 77.5141C44.4933 77.5141 44.8379 77.5863 44.5411 77.5292C45.2132 77.6585 45.8815 77.9523 46.5019 78.2109C47.0649 78.4481 47.6151 78.7056 48.1525 78.9832C47.9878 78.8992 48.2521 79.0369 48.2597 79.0402L48.4186 79.1259C48.5508 79.198 48.6829 79.2702 48.8131 79.3441C49.1016 79.5075 49.3875 79.6754 49.6709 79.8478C50.7298 80.4891 51.7447 81.1909 52.7442 81.8943C54.7893 83.3432 56.7807 84.8508 58.9502 86.1587C63.7198 89.0337 69.0709 91.085 74.7169 92.2026C75.0843 92.2602 75.4599 92.2659 75.8294 92.2194C76.2381 92.1921 76.6406 92.1164 77.0261 91.9944C77.3459 91.887 78.108 91.6301 77.7921 91.2406C76.3266 89.4319 74.9652 87.565 73.7078 85.6399L73.8016 85.7826C72.908 84.416 72.0731 83.0236 71.297 81.6056C70.5808 80.2994 69.6675 78.8153 70.0409 77.3177L69.9987 77.4856C70.0633 77.2426 70.1617 77.0075 70.2917 76.7855C70.3489 76.6865 70.4128 76.5906 70.4832 76.4984C70.5272 76.443 70.577 76.3926 70.6211 76.3305C70.7455 76.1777 70.5081 76.4111 70.6536 76.2969C70.7781 76.2255 70.8936 76.1428 70.9983 76.0501C70.9983 76.0619 70.7264 76.1945 70.9102 76.1022C71.163 75.978 70.5387 76.2231 70.8125 76.1358C71.0864 76.0485 70.4698 76.213 70.4296 76.2214C70.3894 76.2298 69.6981 76.2835 70.0466 76.2718H69.7728C69.9375 76.2835 69.8992 76.2802 69.6579 76.26C69.6828 76.2936 69.8819 76.2919 69.9375 76.3121C69.6368 76.2063 69.9375 76.3121 69.9892 76.3372C70.0792 76.3675 70.1691 76.3994 70.2572 76.4346C70.3989 76.4917 70.5349 76.5572 70.6708 76.621C70.8968 76.7284 70.5674 76.5572 70.6957 76.6361C70.7513 76.668 70.8087 76.6965 70.8623 76.7284C70.9944 76.8056 71.1208 76.8862 71.2453 76.9702C71.6982 77.2792 72.1146 77.6273 72.488 78.0094C74.0524 79.5825 75.0213 81.535 76.5647 83.1165C79.6188 86.256 84.3618 87.1156 88.563 88.5158C89.1547 88.7139 89.7425 88.9238 90.3189 89.1588C90.5946 89.2707 90.8671 89.3877 91.1365 89.5097L91.5156 89.7028L91.7071 89.8018C91.7358 89.8153 91.958 89.9328 91.755 89.8236C92.8625 90.4045 93.8648 91.1271 94.7287 91.9676C94.9202 92.1506 95.4219 92.1841 95.6574 92.1959C96.1517 92.2171 96.6468 92.173 97.1261 92.0649C97.4324 91.9944 98.8073 91.6503 98.3439 91.1919Z" fill="#87226C"/>
<path d="M106.138 105.834L100.627 105.149L97.8945 104.813L96.5292 104.645L95.8686 104.564C95.4684 104.512 96.1979 104.64 95.9337 104.573C95.8399 104.549 95.7422 104.528 95.658 104.497L96.0103 104.627C95.9247 104.593 95.8438 104.552 95.769 104.502L96.0294 104.694C95.9555 104.639 95.891 104.575 95.8379 104.504L95.9873 104.751C95.9104 104.619 95.8648 104.475 95.8533 104.328L95.8705 104.606C95.8679 104.195 95.9019 103.784 95.972 103.378C96.0218 102.968 96.0773 102.557 96.1386 102.149C96.2662 101.305 96.4162 100.465 96.5886 99.6303C96.9371 97.9413 97.3838 96.2708 97.9289 94.6188C98.2315 93.6887 98.5634 92.7664 98.9246 91.852L98.8136 92.1341C99.2042 91.1469 99.628 90.1704 100.085 89.2044C100.311 88.7276 100.545 88.2542 100.788 87.7841C101.018 87.3358 101.224 86.8456 101.554 86.441L101.33 86.7113C101.429 86.5988 101.686 86.4393 101.272 86.7113C101.423 86.6206 101.355 86.6525 101.065 86.8104C101.245 86.7398 101.159 86.7667 100.807 86.8876L100.884 86.8691C101.075 86.8288 100.985 86.8423 100.617 86.9077C100.723 86.9077 100.83 86.8809 100.935 86.8725C101.146 86.854 101.356 86.8406 101.567 86.8339H101.747C101.425 86.8339 101.362 86.8339 101.556 86.8339H101.826C102.274 86.8339 102.724 86.8725 103.166 86.9195C103.375 86.943 103.583 86.9699 103.79 86.9984C104.112 87.042 103.428 86.938 103.725 86.9883L104.081 87.0488C104.945 87.2032 105.795 87.408 106.638 87.6347C107.48 87.8613 108.288 88.0678 109.083 88.3448L108.732 88.2156C108.898 88.2748 109.054 88.3533 109.196 88.4489L108.935 88.2592C109.055 88.3515 109.155 88.4611 109.232 88.5833L109.083 88.3365C109.2 88.552 109.265 88.7863 109.274 89.0248L109.257 88.7444C109.247 89.2833 109.183 89.8204 109.066 90.3494C108.971 90.937 108.87 91.5235 108.763 92.1089C108.551 93.2807 108.316 94.4492 108.058 95.6144C107.538 97.9648 106.925 100.303 106.222 102.629C105.826 103.932 105.402 105.228 104.951 106.517C104.855 106.796 105.142 107.103 105.378 107.234C105.761 107.408 106.196 107.474 106.624 107.422C107.123 107.381 107.602 107.228 108.014 106.977C108.331 106.784 108.564 106.503 108.677 106.18C110.048 102.263 111.159 98.2803 112.005 94.2511C112.217 93.2438 112.408 92.2337 112.579 91.2208C112.667 90.716 112.752 90.209 112.832 89.6997C112.92 89.2759 112.964 88.8461 112.964 88.4154C112.943 87.8916 112.849 87.3677 112.42 86.9648C111.944 86.5182 111.3 86.3319 110.659 86.1422C109.561 85.8198 108.462 85.5025 107.342 85.2507C106.126 84.9644 104.882 84.78 103.626 84.7C102.944 84.665 102.26 84.6695 101.579 84.7134C100.654 84.7722 99.7002 84.9485 98.9266 85.4219C97.8677 86.0683 97.4311 87.2317 96.9371 88.229C96.4928 89.1244 96.0773 90.0338 95.6905 90.9572C94.1028 94.7063 93.0006 98.6 92.4047 102.565C92.3338 103.05 92.2687 103.537 92.2132 104.026C92.1577 104.514 92.0485 105.05 92.2266 105.506C92.4717 106.143 93.1438 106.499 93.8657 106.626C94.5397 106.744 95.2271 106.811 95.905 106.895L103.019 107.773L104.809 107.994C105.309 108.025 105.81 107.94 106.262 107.749C106.599 107.61 107.057 107.343 107.22 107.027C107.354 106.767 107.411 106.455 107.164 106.22C106.892 105.958 106.517 105.884 106.13 105.834H106.138Z" fill="#87226C"/>
<path d="M104.919 92.276C104.902 92.2995 104.885 92.323 104.865 92.3465L105.13 92.0326C105.063 92.1112 104.983 92.1813 104.894 92.2408L105.252 91.9973C105.169 92.0521 105.079 92.0988 104.984 92.1367L105.413 91.9688C105.309 92.0074 105.201 92.0361 105.09 92.0544L105.57 91.9839C105.459 91.9998 105.347 92.0049 105.235 91.999L105.746 92.0309C105.644 92.0242 105.542 92.0073 105.444 91.9805L105.932 92.1165C105.851 92.0921 105.773 92.0606 105.698 92.0225L106.116 92.2424C106.047 92.2064 105.983 92.1636 105.924 92.1148L106.256 92.4036C106.197 92.3533 106.147 92.297 106.104 92.2357L106.334 92.5715C106.291 92.5043 106.256 92.4327 106.233 92.3583L106.348 92.7343C106.318 92.6341 106.305 92.5306 106.309 92.4271L106.294 92.8216C106.299 92.7074 106.322 92.5944 106.363 92.4859L106.214 92.8586C106.255 92.7548 106.314 92.6569 106.388 92.5681L106.127 92.8922C106.182 92.8291 106.247 92.7726 106.319 92.7243L105.961 92.9677C106.02 92.9295 106.084 92.8973 106.152 92.872L105.723 93.0399C105.785 93.0173 105.849 93.0004 105.915 92.9895L105.434 93.06C105.497 93.0507 105.562 93.0473 105.626 93.05L105.114 93.0181C105.184 93.0236 105.252 93.0348 105.319 93.0517L104.829 92.9173C104.903 92.939 104.975 92.9677 105.042 93.003L104.624 92.7814C104.698 92.8222 104.766 92.8694 104.829 92.9224L104.498 92.6336C104.57 92.6982 104.635 92.7697 104.689 92.8468L104.458 92.5111C104.509 92.5886 104.55 92.6715 104.578 92.7579L104.463 92.3801C104.485 92.4587 104.495 92.5393 104.494 92.6202L104.509 92.224C104.506 92.2907 104.492 92.3567 104.469 92.4204L104.618 92.0477C104.598 92.0996 104.57 92.1491 104.536 92.1954C104.417 92.3668 104.362 92.5662 104.377 92.7662C104.347 92.9627 104.384 93.1628 104.484 93.3404C104.567 93.5291 104.704 93.6961 104.881 93.8256C105.036 93.9863 105.233 94.1118 105.455 94.1916L105.945 94.3259C106.275 94.3825 106.615 94.3693 106.937 94.2873L107.366 94.1194C107.628 93.9869 107.843 93.7942 107.989 93.562C108.02 93.5185 108.047 93.4724 108.069 93.4244C108.153 93.263 108.217 93.0941 108.26 92.9207C108.307 92.6942 108.307 92.4622 108.26 92.2357C108.222 92.068 108.17 91.9031 108.103 91.7421C108.05 91.6313 107.986 91.5246 107.912 91.4231C107.849 91.3217 107.779 91.2241 107.701 91.131C107.565 90.9887 107.416 90.8562 107.255 90.7348C107.049 90.577 106.817 90.4464 106.568 90.347C106.313 90.2352 106.039 90.1631 105.756 90.1338C105.536 90.1051 105.313 90.0955 105.091 90.1052C104.913 90.122 104.728 90.1506 104.551 90.1825C104.518 90.1887 104.486 90.1966 104.454 90.206C104.134 90.2908 103.837 90.4288 103.577 90.6122C103.474 90.6761 103.377 90.7462 103.286 90.8221C103.153 90.9527 103.032 91.0918 102.924 91.2385C102.86 91.3181 102.808 91.4044 102.769 91.4953C102.664 91.7028 102.589 91.9211 102.547 92.1451C102.514 92.368 102.514 92.5937 102.547 92.8166C102.583 92.9825 102.632 93.1463 102.692 93.3068C102.71 93.3592 102.732 93.4103 102.759 93.4596C102.849 93.6152 102.951 93.765 103.066 93.9079C103.197 94.0511 103.343 94.1837 103.502 94.3041C103.708 94.4622 103.94 94.5929 104.19 94.6919C104.318 94.7412 104.451 94.7822 104.586 94.8145C104.722 94.857 104.862 94.8918 105.003 94.9186C105.232 94.9476 105.462 94.9633 105.693 94.9656C105.764 94.9698 105.836 94.9698 105.907 94.9656C106.198 94.9459 106.486 94.8928 106.761 94.8078C106.965 94.7434 107.162 94.6659 107.353 94.5761C107.531 94.4754 107.701 94.3631 107.86 94.2403C108.073 94.0739 108.253 93.8776 108.393 93.6594C108.512 93.4887 108.567 93.2898 108.551 93.0903C108.582 92.894 108.545 92.6942 108.446 92.5161C108.362 92.3271 108.225 92.1597 108.048 92.0292C107.893 91.8691 107.696 91.7441 107.473 91.6649L106.983 91.5289C106.654 91.4728 106.314 91.4861 105.991 91.5675L105.562 91.7354C105.3 91.8674 105.085 92.0603 104.94 92.2928L104.919 92.276Z" fill="#87226C"/>
<path d="M43.4531 63.5933C45.3466 65.6772 47.4429 67.6129 49.7184 69.3787C51.9138 71.083 54.2741 72.6166 56.7726 73.9621C58.2834 74.7746 59.8364 75.5285 61.4314 76.2084C61.8852 76.357 62.3804 76.3783 62.8487 76.2694C63.3169 76.1606 63.735 75.9269 64.0451 75.6006C64.2711 75.3152 64.4511 74.9459 64.317 74.5933C64.2505 74.4244 64.1439 74.2697 64.0043 74.1395C63.8647 74.0093 63.6953 73.9065 63.5071 73.8378C62.4705 73.398 61.4537 72.9262 60.4568 72.4225L60.8225 72.6072C57.5845 70.9729 54.5624 69.0299 51.8113 66.8134C51.0339 66.1799 50.2795 65.5274 49.548 64.8558L49.8256 65.1094C48.7712 64.1446 47.7678 63.1372 46.8155 62.0874C46.2277 61.441 45.0769 61.3604 44.2746 61.7516C43.8916 61.938 43.4933 62.2066 43.344 62.591C43.2157 62.9167 43.1889 63.3079 43.4512 63.5984L43.4531 63.5933Z" fill="#1F94BC"/>
<path d="M112.064 38.8701C112.792 41.8334 112.667 44.9007 111.934 47.8538L111.98 47.6725C110.831 52.2055 108.319 56.3607 105.179 60.076C104.282 61.1371 103.335 62.1679 102.356 63.1735L102.528 63.0057C100.637 64.9481 98.626 66.7999 96.5924 68.6265C96.0141 69.1448 95.4346 69.6624 94.8538 70.1795C94.6814 70.3323 94.5512 70.5069 94.7274 70.7067C94.9036 70.9064 95.3957 70.9921 95.6523 71.0139C96.1452 71.0615 96.6437 71.0354 97.1267 70.9367C97.4924 70.8578 97.9539 70.7688 98.2258 70.522C102.163 67.0131 106.119 63.4791 109.399 59.4683C112.608 55.5431 115.067 51.136 115.995 46.3445C116.523 43.7473 116.481 41.0858 115.871 38.5025C115.812 38.2607 115.488 38.1516 115.254 38.0911C114.806 37.994 114.34 37.9734 113.883 38.0307C113.423 38.0621 112.975 38.1728 112.564 38.3564C112.373 38.4555 112.007 38.6368 112.066 38.8785L112.064 38.8701Z" fill="#1F94BC"/>
<path d="M45.6176 52.2636C43.5668 52.7673 41.405 53.2978 39.6395 54.3807C38.1076 55.3192 37.0736 56.6337 36.3613 58.1279C35.8194 59.296 35.3634 60.4932 34.996 61.7124L37.3494 63.2233C36.6485 61.0022 35.8654 58.7458 34.3546 56.8302C33.1157 55.2587 31.3828 54.144 29.3894 53.4036C28.1253 52.9484 26.8281 52.5675 25.5062 52.2636L26.7508 55.2235C28.8016 54.7198 30.9634 54.1893 32.7289 53.1081C34.2608 52.1696 35.2948 50.8551 36.009 49.3592C36.5494 48.1909 37.0048 46.9937 37.3723 45.7748L35.019 44.2638C35.7199 46.4849 36.503 48.7414 38.0138 50.6569C39.2527 52.2301 40.9856 53.3432 42.979 54.0852C44.2437 54.5352 45.541 54.9115 46.8622 55.2117C47.1418 55.2806 47.4022 55.3041 47.5899 55.0674C47.7775 54.8306 47.7411 54.4092 47.6741 54.1574C47.5687 53.7305 47.3633 53.3275 47.0709 52.9738C46.845 52.7102 46.5348 52.3526 46.1576 52.262C45.0053 51.9945 43.8696 51.6751 42.7549 51.305C42.2973 51.1489 41.8473 50.9776 41.4145 50.7829C41.3169 50.7409 41.2231 50.6956 41.1254 50.6502L40.9856 50.5831C40.7712 50.4807 41.3092 50.751 41.0986 50.6402C40.888 50.5294 40.7367 50.4471 40.5624 50.343C40.3882 50.2389 40.2293 50.1348 40.0703 50.0223C39.9937 49.9703 39.921 49.9149 39.8463 49.8544C39.6433 49.705 40.1642 50.108 40.0167 49.9871L39.8961 49.8897C39.7467 49.7655 39.6031 49.6362 39.4653 49.5019C39.4001 49.4381 39.3389 49.3726 39.2738 49.3088C39.2087 49.245 39.6108 49.6748 39.5055 49.5556L39.4538 49.4985C39.4174 49.4599 39.3848 49.4213 39.3504 49.381C39.2227 49.2366 39.104 49.0889 38.9942 48.9378L38.9119 48.8236C38.818 48.6943 39.2374 49.2954 39.0765 49.057C39.0153 48.9663 38.954 48.8757 38.8965 48.7833C38.7874 48.6154 38.684 48.4324 38.5863 48.2545C38.5366 48.1655 38.4906 48.0748 38.4427 47.9842C38.3623 47.8297 38.6342 48.372 38.5997 48.2931L38.5595 48.2125C38.5327 48.1571 38.5059 48.1034 38.481 48.0446C38.2455 47.5544 38.0406 47.0524 37.8511 46.5471C37.7496 46.2717 37.65 45.9964 37.5562 45.7194C37.5313 45.6472 37.5064 45.5733 37.4834 45.5011C37.3704 45.1653 37.6021 45.8688 37.5102 45.5867C37.4566 45.4189 37.4049 45.2594 37.3532 45.0948C37.2513 44.746 37.0927 44.4118 36.8821 44.1026C36.6966 43.8138 36.4434 43.5626 36.1392 43.3656C35.9648 43.2509 35.7598 43.1775 35.5437 43.1524C35.2354 43.1339 35.0669 43.3723 34.996 43.5956C34.6878 44.6131 34.3203 45.6162 33.895 46.6008L34.0042 46.359C33.4527 47.5846 32.7366 48.7598 31.6317 49.6698L31.8232 49.5153C30.4732 50.6183 28.7192 51.2345 26.9902 51.7264C26.3219 51.9178 25.6498 52.089 24.97 52.2536L24.7785 52.408C24.694 52.5266 24.6513 52.6644 24.656 52.8042C24.6354 53.114 24.6922 53.424 24.8226 53.7125C24.9466 53.9903 25.1059 54.255 25.2975 54.5016C25.4794 54.7366 25.8719 55.1312 26.2108 55.2134C27.3629 55.4814 28.4986 55.8008 29.6135 56.1704C30.0711 56.3265 30.523 56.5062 30.9539 56.6925L31.243 56.8251L31.3828 56.8923C31.5972 56.9964 31.0592 56.7244 31.2698 56.8352C31.4804 56.946 31.6317 57.0283 31.806 57.1341C31.9802 57.2398 32.1391 57.3406 32.2981 57.453C32.3746 57.5051 32.4474 57.5605 32.5221 57.6209C32.7251 57.7703 32.2042 57.3674 32.3517 57.4883L32.4723 57.5857C32.6217 57.7099 32.7653 57.8392 32.9031 57.9735C32.9682 58.0373 33.0295 58.1028 33.0946 58.1666C33.1597 58.2304 32.7576 57.8022 32.8629 57.9214C32.8802 57.9399 32.8993 57.9584 32.9165 57.9785L33.018 58.0944C33.1425 58.2388 33.2612 58.3865 33.3742 58.5393C33.401 58.5762 33.4278 58.6148 33.4565 58.6518C33.5504 58.7827 33.1329 58.18 33.2919 58.4184C33.3531 58.5091 33.4144 58.5997 33.4718 58.692C33.5816 58.8667 33.685 59.0429 33.782 59.2209C33.8318 59.3116 33.8778 59.4022 33.9257 59.4929C34.0061 59.6456 33.7342 59.1034 33.7686 59.184L33.8089 59.2629L33.8893 59.4308C34.1229 59.921 34.3278 60.423 34.5173 60.9283C34.6188 61.2036 34.7088 61.479 34.8122 61.756C34.8371 61.8299 34.862 61.9021 34.885 61.9743C34.998 62.31 34.7663 61.6066 34.8582 61.8886C34.9118 62.0565 34.9635 62.2244 35.0152 62.3805C35.1171 62.7294 35.2757 63.0636 35.4862 63.3728C35.6699 63.6651 35.9217 63.9202 36.2254 64.1215C36.4002 64.2355 36.605 64.3088 36.8209 64.3348C37.1292 64.3515 37.2977 64.1131 37.3685 63.8898C37.6768 62.8723 38.0443 61.8692 38.4695 60.8847L38.3604 61.1264C38.9119 59.9008 39.628 58.7273 40.7329 57.8157L40.5414 57.9701C41.8913 56.8671 43.6453 56.2526 45.3744 55.7591C46.0427 55.5693 46.7148 55.3964 47.3945 55.2319C47.6741 55.1647 47.722 54.703 47.7181 54.5268C47.6938 54.1189 47.5628 53.7214 47.3352 53.365C47.1323 52.9963 46.8332 52.6748 46.462 52.4265C46.3457 52.3432 46.2087 52.285 46.062 52.2567C45.9153 52.2284 45.763 52.2308 45.6176 52.2636Z" fill="#1F94BC"/>
</svg>
