<svg width="141" height="141" viewBox="0 0 141 141" fill="none" xmlns="http://www.w3.org/2000/svg">
<circle cx="70.5" cy="70.5" r="70.5" fill="#87226C"/>
<path d="M94.8261 97.9746C94.7484 97.1714 94.5716 96.3793 94.4203 95.5873C94.2748 94.8228 94.1278 94.059 93.9794 93.296C93.6825 91.7632 93.3818 90.2312 93.0772 88.6999C92.4821 85.6998 91.8761 82.7019 91.259 79.7063C90.9487 78.1951 90.6373 76.6835 90.3249 75.1716C90.2454 74.7864 90.1658 74.4015 90.0863 74.017C90.0032 73.6154 89.9212 73.2082 89.7114 72.8535C89.2417 72.0615 88.4279 71.9298 87.6131 71.9298H78.9035L79.501 70.9057C89.0127 59.2616 87.4043 52.1087 87.4043 52.1087C88.0743 34.9917 70.0427 32.8097 70.0427 32.8097C64.504 32.3479 59.026 34.5812 55.3162 38.9664C51.9695 42.9233 49.442 48.0024 49.7562 53.2745C50.0629 58.4227 52.9676 62.9463 55.7742 67.1854C56.7892 68.7193 57.7415 70.319 58.682 71.932C56.3451 71.9834 54.0039 72.0347 51.6681 71.9744C50.9406 71.9555 50.2067 71.8361 49.5069 72.1239C49.0308 72.3098 48.6015 72.6075 48.2522 72.994C48.0743 73.1971 47.872 73.4403 47.8049 73.7125C47.6824 74.2156 47.6174 74.7421 47.5237 75.2519L46.0325 83.4222C45.5404 86.1107 45.049 88.7999 44.5584 91.4899C44.471 91.9696 44.3975 92.4548 44.2953 92.9323C44.1568 93.5748 43.9853 94.2051 43.8692 94.8533C43.7531 95.5014 43.6487 96.1741 43.522 96.8322C43.3878 97.5272 43.162 98.2066 43.0459 98.9027C42.8872 99.8576 43.1247 100.862 44.0045 101.339C44.6436 101.688 45.3742 101.686 46.0804 101.705C46.8367 101.725 47.5926 101.744 48.3481 101.763C49.884 101.799 51.4203 101.832 52.9569 101.861C55.9741 101.917 58.9919 101.957 62.0105 101.982C68.0264 102.032 74.0426 102.039 80.0592 102.003C83.0976 101.989 86.1368 101.97 89.1767 101.946C90.3611 101.938 91.6339 102.001 92.7555 101.534C93.4095 101.262 93.9676 100.865 94.366 100.247C94.7825 99.5888 94.9018 98.7521 94.8261 97.9746ZM88.0817 74.0594L88.1222 74.0862C88.1071 74.0783 88.0925 74.0694 88.0785 74.0594H88.0817ZM88.1424 74.0806C88.1904 74.0984 88.2191 74.1129 88.1424 74.0806V74.0806ZM87.9955 73.9802C87.9825 73.9621 87.9708 73.9431 87.9603 73.9233C87.971 73.9289 87.9859 73.9545 87.9955 73.9824V73.9802ZM87.4959 74.0516H87.857H88.0168C88.0295 74.104 88.0434 74.1631 88.0455 74.1687C88.2223 74.915 88.3587 75.6747 88.5142 76.4266C89.5608 81.4949 90.5862 86.5681 91.5903 91.646C88.4322 91.5713 85.273 91.5412 82.1106 91.5345L82.1681 90.1958L82.6123 80.0086C82.6954 78.0966 82.7788 76.1849 82.8626 74.2736C82.8626 74.1966 82.7774 74.0996 82.7209 74.0393H87.4927L87.4959 74.0516ZM77.8693 74.0516H81.2457C81.1129 77.097 80.9801 80.1429 80.8474 83.1891L80.4831 91.5434C78.7341 91.5434 76.9848 91.5512 75.2352 91.5668L75.4812 84.9059L75.7305 78.1245C75.7401 77.8545 75.7507 77.5845 75.7603 77.3157L77.6775 74.0315C77.7399 74.0455 77.8034 74.053 77.8671 74.0538L77.8693 74.0516ZM68.92 43.6227C70.4044 43.6227 71.8554 44.0837 73.0896 44.9475C74.3238 45.8112 75.2858 47.0389 75.8538 48.4752C76.4218 49.9115 76.5703 51.492 76.2807 53.0167C75.991 54.5415 75.2761 55.942 74.2264 57.0413C73.1767 58.1405 71.8394 58.889 70.3835 59.1922C68.9276 59.4953 67.4186 59.3395 66.0473 58.7444C64.676 58.1493 63.5039 57.1417 62.6794 55.849C61.8549 54.5562 61.4149 53.0364 61.4151 51.4818C61.4154 49.3973 62.2062 47.3984 63.6136 45.9245C65.021 44.4507 66.9298 43.6227 68.92 43.6227ZM59.2998 74.0415C59.4805 74.0355 59.6568 73.9814 59.8121 73.8843C60.8154 75.6111 61.8294 77.3268 62.9159 78.9667L63.3579 79.6896L67.6674 86.7811C69.2044 88.6776 70.6594 86.0594 70.6594 86.0594L73.5949 81.0282L73.3488 87.7215C73.302 89 73.2548 90.2784 73.2072 91.5568C73.2066 91.5672 73.2066 91.5776 73.2072 91.588C70.7169 91.6096 68.2259 91.6327 65.7342 91.6572C64.2785 91.6691 62.8229 91.6791 61.3672 91.6873L60.2967 91.6929H59.582C59.3179 91.3047 59.0495 90.9187 58.7885 90.5316C57.7362 88.9877 56.6831 87.4441 55.6293 85.901L55.3779 85.5328C55.7429 82.4219 56.1825 79.3211 56.6966 76.2303C56.8159 75.5126 56.9398 74.796 57.0683 74.0806C57.5529 74.0728 58.0365 74.0661 58.5212 74.0561L59.2998 74.0415ZM47.6174 85.9579L48.7997 79.5066L50.3409 81.7645L53.4426 86.3104L56.6028 90.9399L57.1173 91.694C53.809 91.6884 50.5007 91.6539 47.1935 91.5702C46.9795 91.5653 46.7671 91.6099 46.5714 91.7007C46.9208 89.7864 47.2695 87.8721 47.6174 85.9579ZM49.6688 74.7276C49.6859 74.6339 49.7125 74.5346 49.7306 74.4365C49.77 74.3952 49.8105 74.3561 49.8521 74.316L49.8158 74.3383C49.8328 74.3278 49.8492 74.3162 49.8648 74.3037L49.8755 74.2937C49.8998 74.2687 49.9288 74.2493 49.9607 74.2368C50.0225 74.1966 50.0874 74.1609 50.1524 74.1252C50.2174 74.0895 50.3069 74.0739 50.3867 74.0549L50.4347 74.0471H50.5178C50.6262 74.0458 50.7347 74.0507 50.8426 74.0616C50.9342 74.0706 51.0269 74.0761 51.1185 74.0817C51.3837 74.0962 51.6511 74.1029 51.9141 74.1074C52.6406 74.1219 53.368 74.1208 54.0945 74.1174C54.4066 74.1174 54.7186 74.1174 55.0307 74.1096C54.5578 76.8449 54.1413 79.5884 53.7813 82.3401C53.7501 82.5789 53.7199 82.8176 53.6908 83.0563C53.3002 82.4844 52.9097 81.9118 52.5191 81.3384L49.5187 76.9431L49.3216 76.6508L49.6688 74.7276ZM45.0004 99.3813C45.0004 99.4006 44.9972 99.4274 44.9908 99.4616C44.9902 99.4357 44.9946 99.4099 45.0036 99.3857L45.0004 99.3813ZM44.8939 99.4482L44.9503 99.4728H44.9567C44.9237 99.4716 44.8981 99.4605 44.8981 99.4527L44.8939 99.4482ZM48.1436 99.6312C47.3873 99.6133 46.6314 99.5936 45.8759 99.572C45.7311 99.572 45.5862 99.572 45.4424 99.5586C45.3732 99.5586 45.3039 99.5486 45.2294 99.5453H45.2219C45.2081 99.5453 45.0899 99.5174 44.9993 99.4939V99.4359C44.9993 99.4002 44.9993 99.3768 45.0046 99.3645C45.01 99.3523 45.0185 99.311 45.0217 99.2976C45.0994 98.9306 45.2113 98.5714 45.2954 98.2055C45.4488 97.5362 45.5638 96.8668 45.6789 96.1886C45.844 95.2169 46.0794 94.2642 46.2711 93.3004C46.3676 93.3614 46.4779 93.3944 46.5906 93.3963C50.5124 93.4956 54.4353 93.5246 58.3582 93.5191L59.7141 95.5036L62.6911 99.8654C57.842 99.8245 52.9928 99.7464 48.1436 99.6312ZM65.7832 99.8799H64.9205C64.9444 99.8126 64.9537 99.7406 64.9478 99.669C64.9419 99.5974 64.921 99.5281 64.8864 99.4661L61.8902 95.0764C61.5351 94.5558 61.1801 94.0352 60.825 93.5146C62.0095 93.5094 63.1932 93.5019 64.3762 93.4923C67.2875 93.4685 70.1989 93.4417 73.1103 93.412C74.5659 93.4001 76.0216 93.3897 77.4773 93.3807H78.5424H80.3979V93.3841C80.3148 95.2961 80.2314 97.2074 80.1476 99.118C80.1476 99.2117 80.2754 99.3411 80.3223 99.388C80.4839 99.5634 80.6565 99.7273 80.8388 99.8788C75.8214 99.8996 70.8028 99.9007 65.7832 99.8822V99.8799ZM92.7182 99.002C92.7832 98.809 92.7001 98.983 92.6405 99.1046C92.6661 99.0857 92.6778 99.0923 92.6139 99.1559C92.6 99.1838 92.5904 99.2028 92.5894 99.1994C92.5883 99.1943 92.5883 99.189 92.5894 99.1838L92.4594 99.3188C92.4094 99.3512 92.3604 99.3869 92.3092 99.4181C92.2581 99.4493 92.2357 99.4605 92.2027 99.4806H92.1953C92.0956 99.5082 91.9986 99.5456 91.9055 99.5921C91.7555 99.6375 91.6034 99.6748 91.4497 99.7037L91.2825 99.7349C91.1972 99.7494 91.1866 99.7594 91.2047 99.7628C91.0982 99.7739 90.9405 99.7706 90.9033 99.774C90.6402 99.7929 90.3707 99.7996 90.1129 99.8018C89.373 99.8085 88.6328 99.8141 87.8921 99.8186L83.425 99.8476L81.7559 99.8565C81.8511 97.6901 81.9455 95.5244 82.0392 93.3595C85.2463 93.3662 88.4524 93.4008 91.6574 93.4822C91.7559 93.484 91.8543 93.4758 91.9514 93.4577C91.9897 93.654 92.0291 93.8504 92.0675 94.0467C92.2159 94.8112 92.3629 95.5758 92.5084 96.3403C92.5787 96.7062 92.649 97.0721 92.7214 97.438C92.7491 97.5864 92.7736 97.7358 92.7992 97.8842C92.7992 97.9009 92.7992 97.9132 92.8056 97.9255C92.812 97.9378 92.8056 97.9478 92.8056 97.9623C92.812 98.0672 92.8226 98.172 92.8258 98.2769C92.8258 98.3516 92.8258 98.4264 92.8258 98.5V98.6115C92.8054 98.7465 92.7693 98.8784 92.7182 99.0042V99.002Z" fill="white"/>
<path d="M82.2117 35.1174C82.407 35.2401 82.5991 35.3676 82.788 35.5C82.8828 35.5658 82.9765 35.6327 83.0692 35.7019L83.0969 35.722L83.1618 35.7711C83.5261 36.0544 83.8783 36.3545 84.2185 36.6713C84.3088 36.7439 84.3932 36.8241 84.4709 36.9112C84.4709 36.9112 84.2802 36.7226 84.3836 36.8264L84.4453 36.8877L84.5689 37.0116C84.7365 37.1834 84.9005 37.3589 85.061 37.5381C85.2175 37.7121 85.3699 37.8884 85.5179 38.0691C85.5882 38.1539 85.6575 38.2387 85.7256 38.3257L85.8321 38.4629L85.8907 38.5399L85.9354 38.6001L86.042 38.7418C86.1155 38.8433 86.1879 38.9448 86.255 39.0474C86.3892 39.2408 86.5198 39.4368 86.647 39.6353C86.9005 40.0317 87.1394 40.4385 87.3638 40.8558C87.416 40.9528 87.4703 41.051 87.5193 41.1491L87.5992 41.3076L87.6216 41.3511L87.6365 41.3823V41.3734C87.743 41.5831 87.8367 41.7939 87.9315 42.007C88.1488 42.4978 88.3469 42.9976 88.5258 43.5063C88.9197 44.6313 89.226 45.7878 89.4419 46.9645C89.7071 48.4734 89.8439 50.004 89.8509 51.5383C89.8509 51.7246 89.9861 51.9131 90.098 52.0414C90.2785 52.2435 90.4958 52.4058 90.7371 52.5188C90.9224 52.6047 91.1546 52.7085 91.3612 52.6705C91.4954 52.646 91.6382 52.5858 91.6371 52.4151C91.619 49.5425 91.1812 46.6443 90.213 43.9503C89.3181 41.4293 87.9379 39.1278 86.1581 37.1889C85.1291 36.0727 83.9671 35.1001 82.7006 34.2952C82.4955 34.1541 82.265 34.0584 82.0232 34.0141C81.9093 33.9996 81.6664 33.9929 81.5972 34.1357C81.4225 34.5139 81.9721 34.9668 82.2117 35.1174ZM83.1001 35.7242L83.1395 35.7532C83.1927 35.7923 83.2726 35.8559 83.1001 35.7242Z" fill="white"/>
<path d="M89.6471 57.1957C89.85 57.148 90.0427 57.0618 90.2159 56.9413C90.443 56.8053 90.6539 56.6417 90.8444 56.4539C90.9573 56.3367 91.0936 56.2062 91.1362 56.0389C91.3494 55.2142 91.4215 54.3565 91.3492 53.5055C91.3386 53.3772 91.2683 53.3716 91.149 53.3939C90.9462 53.4416 90.7534 53.5278 90.5802 53.6482C90.3531 53.7843 90.1422 53.9479 89.9518 54.1357L89.8069 54.2941C89.7397 54.3668 89.6891 54.4546 89.6589 54.5507C89.7306 55.4017 89.6585 56.2593 89.4458 57.0841C89.4118 57.2135 89.5832 57.2057 89.6471 57.1957Z" fill="white"/>
</svg>
