<svg width="123" height="139" viewBox="0 0 123 139" fill="none" xmlns="http://www.w3.org/2000/svg">
<path d="M2.57598 129.531L47.6579 129.039L92.5079 128.549L117.808 128.272L115.242 124.365C103.933 127.453 92.2386 128.667 80.5497 129.202C68.7672 129.748 56.9735 129.651 45.2023 130.198C38.6228 130.505 32.0508 131.018 25.5293 131.949C25.3685 131.971 26.4944 133.907 26.5879 134.049C26.8864 134.514 27.2117 134.961 27.5623 135.388C27.6969 135.549 27.8746 135.822 28.0953 135.856C38.9989 137.577 50.0042 138.577 61.0394 138.848C64.139 138.923 67.2374 138.941 70.3345 138.901C70.4504 138.901 70.0652 138.119 70.1175 138.226C69.8665 137.734 69.5855 137.258 69.2759 136.8C68.9774 136.336 68.6521 135.888 68.3015 135.461C68.1837 135.323 67.9705 134.99 67.7685 134.994C56.7291 135.133 45.6926 134.543 34.7309 133.228C31.655 132.854 28.5859 132.428 25.5237 131.949L28.0897 135.856C39.7599 134.19 51.5611 133.877 63.3286 133.647C75.0961 133.417 86.8486 133.273 98.5301 131.91C105.033 131.149 111.493 129.998 117.81 128.272C118.009 128.218 116.847 126.316 116.752 126.172C116.453 125.707 116.128 125.26 115.777 124.833C115.66 124.693 115.446 124.363 115.244 124.365L70.1718 124.857L25.3217 125.347L0.0212383 125.622C-0.0928458 125.622 0.292423 126.406 0.238186 126.299C0.489118 126.791 0.770834 127.267 1.08166 127.724C1.38016 128.188 1.70486 128.635 2.05418 129.061C2.172 129.202 2.38521 129.533 2.5872 129.531H2.57598Z" fill="#1F94BC"/>
<path d="M31.1046 57.8608C28.0673 58.4668 24.9814 57.8421 21.8918 58.0628C17.7923 58.3564 14.5979 61.648 12.06 64.8798C8.47798 69.4341 5.32387 74.3093 2.63777 79.4433C1.81487 81.018 1.01628 82.7068 1.12289 84.4798C1.22949 86.2528 2.57793 88.0781 4.35465 88.0725C5.98175 88.0725 7.20862 86.6474 8.17927 85.342C11.7589 80.5268 15.1085 75.5519 18.228 70.4175C21.2653 79.0318 19.208 88.57 16.3316 97.2385C14.7475 102.008 12.9222 106.7 11.5438 111.536C10.5825 114.903 7.88003 119.348 9.46599 122.98C11.0744 126.667 17.349 126.816 18.5927 122.728L27.6054 93.1371C27.6054 93.1371 29.1146 90.025 30.1339 92.5143L30.3079 118.535C30.3079 118.535 30.3434 123.381 31.9649 124.316C31.9649 124.316 36.1149 127.259 39.1428 123.831C39.1428 123.831 40.452 123.39 40.452 117.415L40.5287 68.6726V66.4526C40.5287 66.4526 40.0462 65.2015 41.8285 65.0705C41.8285 65.0705 49.805 62.9908 54.4114 55.1415C56.4676 51.2886 58.0136 47.1845 59.0103 42.9326C59.0103 42.9326 60.6094 39.3118 56.1956 37.2097C56.1956 37.2097 51.2582 35.6518 50.123 41.5355C50.123 41.5355 48.1891 51.848 43.7305 54.2887C43.7305 54.2887 39.861 57.0454 36.9023 57.281L31.1046 57.8608Z" fill="#87226C"/>
<path d="M93.9783 33.6755C99.2542 33.6418 102.974 37.6236 103.81 42.4226C104.334 45.4299 103.623 48.6879 101.682 51.0256C99.2673 53.9264 95.0462 55.1289 91.4291 54.0536C87.8121 52.9782 84.9656 49.7595 84.2362 46.049C83.9616 44.5685 83.9844 43.0482 84.3032 41.5766C84.6221 40.1051 85.2306 38.7117 86.0934 37.4777C88.0048 34.7677 90.7409 33.6418 93.9783 33.6811" fill="#87226C"/>
<path d="M29.2322 33.6755C34.5062 33.6418 38.228 37.6236 39.0621 42.4226C39.5858 45.4299 38.8751 48.6879 36.9338 51.0256C34.5212 53.9395 30.3001 55.142 26.6887 54.061C23.0772 52.98 20.2177 49.7595 19.4901 46.049C19.2155 44.5685 19.2383 43.0482 19.5571 41.5766C19.876 40.1051 20.4845 38.7117 21.3473 37.4777C23.2568 34.7677 25.9948 33.6418 29.2322 33.6811" fill="#87226C"/>
<path d="M92.0814 57.8608C95.1168 58.4667 98.2045 57.8421 101.292 58.0628C105.394 58.3564 108.586 61.648 111.124 64.8798C114.707 69.4336 117.862 74.3088 120.548 79.4433C121.371 81.018 122.17 82.7068 122.063 84.4798C121.956 86.2528 120.606 88.0781 118.831 88.0725C117.202 88.0725 115.977 86.6474 115.007 85.342C111.427 80.5268 108.077 75.5519 104.956 70.4175C101.923 79.0318 103.976 88.57 106.854 97.2385C109.181 104.243 111.904 111.172 113.138 118.482C113.441 120.287 114.635 122.812 113.017 124.299C111.44 125.746 108.47 126.366 106.634 125.157C105.74 124.568 105.085 123.661 104.591 122.726L95.5806 93.1371C95.5806 93.1371 94.0713 90.025 93.0502 92.5143L92.8781 118.535C92.8781 118.535 92.8407 123.381 91.2211 124.316C91.2211 124.316 87.071 127.259 84.0412 123.831C84.0412 123.831 82.7321 123.39 82.7321 117.415L82.6685 68.6726V66.4526C82.6685 66.4526 83.151 65.2015 81.3593 65.0705C81.3593 65.0705 73.3828 62.9908 68.7764 55.1415C66.7225 51.2886 65.1796 47.1844 64.1869 42.9326C64.1869 42.9326 62.5859 39.3118 66.9922 37.2097C66.9922 37.2097 71.9278 35.6518 73.063 41.5355C73.063 41.5355 74.9987 51.848 79.4573 54.2886C79.4573 54.2886 83.3249 57.0454 86.2855 57.281L92.0814 57.8608Z" fill="#87226C"/>
<path d="M102.202 79.2496C105.697 86.7305 110.057 93.7495 114.42 100.757C101.087 101.131 87.7499 101.179 74.4102 100.901C78.4107 93.8337 81.3271 86.2053 83.0619 78.2715L102.202 79.2496Z" fill="#87226C"/>
<path d="M64.337 27.1835C63.5802 23.867 62.9038 20.5342 62.3078 17.1852C62.1382 16.2289 61.9755 15.2726 61.8197 14.3163C61.7916 14.1517 61.2062 14.3163 61.2006 14.3163C60.7724 14.4336 60.3589 14.5993 59.9682 14.8101C59.5681 15.0009 59.1915 15.2375 58.846 15.5151C58.7076 15.6348 58.4533 15.8069 58.4869 16.0182C59.0343 19.3759 59.6645 22.718 60.3777 26.0445C60.5797 26.9921 60.7892 27.9391 61.0061 28.8854C61.0435 29.05 61.6046 28.8966 61.6233 28.8854C62.4737 28.6306 63.2718 28.2259 63.9798 27.6903C64.1107 27.5781 64.3838 27.3911 64.337 27.1872V27.1835Z" fill="#1F94BC"/>
<path d="M77.8493 16.7142C75.1301 19.2132 72.9404 22.2328 71.4101 25.594C70.9914 26.5123 70.6243 27.4533 70.3104 28.4125C70.0392 29.2429 70.778 30.1967 71.4662 30.5801C72.0497 30.9055 73.1663 31.1767 73.4506 30.3052C74.0237 28.5579 74.7758 26.8745 75.6948 25.2817L75.5284 25.5716C76.9012 23.1925 78.6321 21.0389 80.6603 19.1866C80.9165 18.9528 80.9034 18.4647 80.8267 18.1692C80.6936 17.7227 80.4337 17.3245 80.0786 17.0228C79.4764 16.5234 78.5301 16.1007 77.8606 16.7142H77.8493Z" fill="#1F94BC"/>
<path d="M44.1569 19.108C44.6344 19.5444 45.0957 19.997 45.5408 20.4658L45.1126 20.0226C46.2142 21.1893 47.21 22.4517 48.0881 23.7948L47.772 23.3086C48.7459 24.8058 49.5691 26.3957 50.2295 28.0552L50.0331 27.5615C50.2333 28.0664 50.4165 28.577 50.5942 29.0932C50.7711 29.6463 51.0942 30.1413 51.5293 30.5258C51.9221 30.8718 52.528 31.2309 53.0685 31.2739C53.4931 31.3113 54.0167 31.2739 54.3029 30.8998C54.4382 30.7207 54.528 30.5113 54.5645 30.2898C54.601 30.0683 54.5831 29.8412 54.5123 29.6281C53.2937 25.8675 51.3323 22.39 48.7446 19.4017C47.9467 18.4811 47.0968 17.6069 46.1992 16.7833C45.769 16.3907 45.2345 16.1309 44.66 16.0352C44.2653 15.9829 43.6931 16.0502 43.4256 16.4093C42.7411 17.2995 43.4686 18.4852 44.1587 19.1136L44.1569 19.108Z" fill="#1F94BC"/>
<path d="M103.232 16.282L96.7573 8.80104L94.9244 6.68581L93.9631 7.24688C98.5763 8.16363 103.233 8.84589 107.915 9.29104C109.208 9.41573 110.503 9.51984 111.8 9.60337L109.166 7.80421C105.205 9.73304 101.291 11.7554 97.4249 13.8712C96.3302 14.4697 95.2411 15.0757 94.1576 15.6891L97.4754 17.2769L102.297 5.13352L103.675 1.66424L100.228 0.209198C99.8544 5.30184 101.715 10.0971 103.086 14.9092C103.273 15.5713 103.46 16.2352 103.617 16.9048C103.701 17.2433 103.78 17.5855 103.853 17.9278C103.941 18.2379 103.998 18.5563 104.021 18.8779V18.6908C104.028 18.9165 103.953 19.1371 103.81 19.3118L103.939 19.179C103.909 19.2054 103.875 19.2269 103.838 19.2425L104.072 19.1752C103.844 19.2313 104.027 19.2463 104.618 19.222L105.521 19.5081L105.476 19.4913C105.067 19.3095 104.631 19.1946 104.186 19.1509C104.01 19.1416 103.599 19.1322 103.503 19.3585C103.408 19.5848 103.69 19.8691 103.83 19.9925C104.17 20.2856 104.557 20.5184 104.975 20.6808C105.676 20.9576 107.274 21.5055 107.453 20.3067C107.547 19.6914 107.315 19.0256 107.176 18.4365C106.87 17.1273 106.496 15.8182 106.107 14.5314C105.334 11.9599 104.493 9.39765 104.01 6.75127C103.734 5.28729 103.609 3.79895 103.636 2.30947V2.49649C103.636 2.2197 103.658 1.93542 103.679 1.66424C103.7 1.39305 103.554 1.21912 103.352 1.03023C103.013 0.73682 102.625 0.504005 102.207 0.341986C101.8 0.153339 101.362 0.0381075 100.915 0.00160251C100.709 0.00160251 100.328 -0.0320615 100.232 0.209198L95.4051 12.3545L94.0286 15.8238C93.9388 16.0501 94.2156 16.3381 94.354 16.4578C94.6329 16.6921 94.9425 16.8871 95.2742 17.0375C95.6291 17.2181 96.0065 17.3508 96.3963 17.4322C96.6862 17.4827 97.0659 17.5631 97.3314 17.4097C101.169 15.2415 105.056 13.1662 108.992 11.1837C110.106 10.6227 111.222 10.0697 112.342 9.52482C112.839 9.28356 111.994 8.62711 111.833 8.51864C111.209 8.0825 110.485 7.81104 109.727 7.7294C107.453 7.57729 105.185 7.36969 102.922 7.10661C102.36 7.04116 101.799 6.97196 101.238 6.89902L100.421 6.78868L100.234 6.76436C100.195 6.76436 99.8899 6.71761 100.155 6.75314L100.077 6.74192L99.8039 6.70451C98.6817 6.54367 97.564 6.36849 96.4506 6.17898C95.185 5.96452 93.922 5.73137 92.6615 5.47951C92.4277 5.43463 91.9526 5.35234 91.7263 5.50196C91.5281 5.62913 91.5618 5.86478 91.7076 6.0331L98.1824 13.514L100.002 15.6274C100.605 16.2704 101.402 16.6976 102.271 16.843C102.549 16.8917 102.959 16.9852 103.206 16.8206C103.404 16.6934 103.37 16.4578 103.225 16.2895L103.232 16.282Z" fill="#1F94BC"/>
<path d="M19.6527 17.7781C19.5236 16.7101 19.4264 15.6273 19.6003 14.5594L19.5704 14.7464C19.6791 14.0236 19.9657 13.3392 20.4045 12.7546L20.253 12.9416C20.4417 12.7117 20.6536 12.5018 20.8851 12.3151C21.0722 12.1561 20.6364 12.4759 20.8477 12.345L21.0198 12.2384C21.3059 12.0738 20.9076 12.2814 20.9076 12.2927L21.0291 12.2384C21.1414 12.1954 21.1114 12.2048 20.9412 12.2702C20.4531 12.4572 21.3003 12.1861 20.7393 12.3301C20.5391 12.3806 20.5017 12.3899 20.6252 12.3619C20.8122 12.3263 20.7093 12.3432 20.3259 12.4086H20.3895C20.5616 12.3937 20.4774 12.3974 20.1333 12.4236H20.1988C20.3521 12.4236 20.2867 12.4236 20.0024 12.4105C20.0673 12.4235 20.1328 12.4329 20.1988 12.4385C19.8621 12.418 20.036 12.3974 20.1445 12.4385C20.2933 12.4876 20.4373 12.5502 20.5747 12.6256L20.3577 12.5115C20.7843 12.758 21.1439 13.1054 21.4051 13.5233L21.3041 13.368C22.0522 14.5706 21.9904 16.0163 21.8651 17.3741C21.7217 18.9139 21.5428 20.4506 21.3284 21.9842C21.2037 22.8645 21.0715 23.7435 20.9319 24.6212L20.9618 24.4342C20.8371 25.191 20.7056 25.9466 20.5672 26.7009L23.8831 25.8406L18.4127 23.9049C16.8211 23.3439 15.1604 22.8539 13.6604 22.0646L13.8755 22.1787C12.9778 21.6999 12.1212 21.0753 11.5564 20.215L11.6574 20.3702C11.1083 19.5266 10.8812 18.5135 11.0178 17.5162L10.9879 17.7032C11.0634 17.2339 11.2529 16.7902 11.5396 16.4109L11.3862 16.5979C11.519 16.4352 11.6855 16.3174 11.8257 16.164C11.7902 16.2033 11.605 16.3099 11.749 16.2239C11.8014 16.1921 11.8557 16.1622 11.908 16.1285C12.0614 16.035 11.562 16.2819 11.7902 16.1902C11.8613 16.1622 12.0894 16.0724 11.7902 16.1902C11.491 16.308 11.7303 16.2164 11.7902 16.1902C12.0258 16.1135 11.5284 16.2557 11.5265 16.2557C11.6017 16.2463 11.6761 16.2313 11.749 16.2108C11.749 16.2108 11.2347 16.2819 11.4816 16.2557L11.6686 16.2351C11.8725 16.2127 11.2104 16.2501 11.4816 16.2463C11.6069 16.2463 11.7322 16.2463 11.8557 16.2463H11.994C11.5209 16.2351 11.7341 16.2295 11.8444 16.2463C11.9548 16.2632 12.0745 16.2688 12.1904 16.2856C12.3064 16.3024 12.4186 16.3267 12.5327 16.3455C12.6786 16.3698 12.2166 16.2669 12.4579 16.3286L12.5944 16.3623C13.0431 16.4824 13.4771 16.6517 13.8886 16.8672L13.6716 16.7532C14.4234 17.1478 15.0659 17.7222 15.5419 18.4252L15.4409 18.2699C15.5026 18.3672 15.5606 18.4569 15.6167 18.5654C16.1628 19.5473 19.6022 18.3784 19.2786 17.8005C18.321 16.0761 16.5294 15.1335 14.6217 14.8455C13.2113 14.6385 11.772 14.7621 10.4174 15.2065C9.29531 15.5805 8.15633 16.1921 7.63267 17.3049C6.91824 18.8216 7.44565 20.6713 8.5416 21.857C9.8358 23.2653 11.7528 23.9236 13.5089 24.5445L20.8589 27.146C21.4387 27.3499 22.1812 27.2152 22.7479 27.0694C23.0382 26.9983 23.3198 26.8954 23.5876 26.7626C23.7447 26.6822 24.1375 26.4952 24.173 26.2932C24.5246 24.3931 24.8276 22.4848 25.0819 20.5684C25.2066 19.6258 25.3188 18.6814 25.4186 17.735C25.5425 16.8132 25.605 15.8841 25.6056 14.954C25.5607 13.3774 24.8575 11.7222 23.2678 11.1574C22.0091 10.7086 20.5073 10.9554 19.288 11.4043C18.3879 11.7078 17.5853 12.2463 16.9633 12.9641C16.6587 13.3218 16.4142 13.7267 16.2395 14.1629C16.065 14.6457 15.9513 15.1482 15.901 15.6591C15.8183 16.6246 15.851 17.5964 15.9982 18.5542C16.0263 18.7936 16.4751 18.8721 16.6285 18.8946C17.0745 18.9444 17.5258 18.9159 17.962 18.8104C18.4041 18.7341 18.829 18.5795 19.2169 18.3541C19.4039 18.2288 19.6919 18.0567 19.6601 17.793L19.6527 17.7781Z" fill="#1F94BC"/>
</svg>
