<svg width="141" height="141" viewBox="0 0 141 141" fill="none" xmlns="http://www.w3.org/2000/svg">
<circle cx="70.5" cy="70.5" r="70.5" fill="#2194BC"/>
<path d="M94.9081 85.7344C92.4942 85.7344 90.1345 86.4841 88.1274 87.8886C86.1203 89.2932 84.5559 91.2896 83.6322 93.6254C82.7084 95.9611 82.4667 98.5313 82.9376 101.011C83.4086 103.49 84.571 105.768 86.2779 107.556C87.9848 109.344 90.1595 110.561 92.527 111.054C94.8946 111.547 97.3486 111.294 99.5787 110.327C101.809 109.359 103.715 107.721 105.056 105.619C106.397 103.517 107.113 101.045 107.113 98.5171C107.113 95.1269 105.827 91.8756 103.538 89.4783C101.249 87.0811 98.1451 85.7344 94.9081 85.7344ZM103.534 96.6112L99.8268 98.5563L93.2718 101.995L92.4657 102.419C92.0747 102.623 91.709 102.858 91.2686 102.914C90.705 102.984 90.0896 102.676 89.7239 102.235C89.5085 101.961 89.3291 101.658 89.1906 101.334C88.6597 100.21 88.2629 99.0213 88.0092 97.7954C87.9524 97.5123 87.9476 97.2696 88.0936 97.0194C88.2397 96.7692 88.51 96.6908 88.7586 96.6655C89.0648 96.6575 89.3651 96.7542 89.6141 96.941C89.8289 97.0978 90.1041 97.4036 90.1608 97.6855C90.3553 98.6517 90.6453 99.5941 91.026 100.498L92.9845 99.47L101.905 94.7937C102.047 94.691 102.215 94.6332 102.387 94.6269L102.671 94.6484C102.984 94.7116 103.271 94.8776 103.488 95.1223C103.689 95.3381 103.813 95.6205 103.837 95.9211C103.85 96.1473 103.747 96.5 103.534 96.6112Z" fill="white"/>
<path d="M61.5421 47.7314C64.2029 48.2205 66.9048 48.3924 69.6031 48.4089C70.9583 48.4164 72.3122 48.3874 73.6662 48.3419C74.4007 48.3166 75.136 48.2884 75.8721 48.2572L76.7868 48.2193L77.2852 48.1978L77.535 48.1877H77.6689H77.7377C80.4493 48.0777 83.1681 47.9905 85.8784 48.103C87.1225 48.1548 88.3667 48.2484 89.6012 48.4139C90.7809 48.5654 91.9499 48.7976 93.1007 49.109C95.5963 49.8105 97.9941 50.9657 99.9466 52.7603C101.784 54.5019 103.205 56.7681 103.732 59.3324C104.006 60.828 103.946 62.3695 103.557 63.8368C103.522 63.9632 103.541 63.8887 103.55 63.8596C103.538 63.9026 103.526 63.9455 103.512 63.986C103.484 64.082 103.453 64.1768 103.422 64.2729C103.359 64.4624 103.29 64.652 103.218 64.8378C103.075 65.2013 102.913 65.557 102.735 65.9032C102.654 66.0625 102.569 66.2192 102.481 66.3734C102.452 66.4252 102.422 66.4758 102.393 66.5263L102.355 66.5883L102.346 66.6034L102.354 66.5895L102.249 66.7576C102.042 67.0778 101.823 67.3874 101.59 67.6866C101.474 67.8374 101.354 67.9848 101.228 68.1289L101.155 68.2149C101.088 68.2882 101.023 68.3602 100.955 68.4322C100.688 68.717 100.41 68.9892 100.12 69.2487L100.072 69.2917L99.8898 69.4433C99.7354 69.5689 99.5785 69.691 99.4192 69.8098C99.3492 69.8629 99.278 69.9147 99.2056 69.9653C99.1706 69.9918 99.1344 70.0159 99.0982 70.0424C98.9317 70.1612 99.202 69.9754 99.2044 69.9704C99.132 70.0368 99.0507 70.0917 98.9631 70.1334L98.6819 70.3103C98.5009 70.4207 98.3183 70.5269 98.134 70.6288L98.0327 70.6718C97.9422 70.7186 97.8517 70.7653 97.7587 70.8108C97.3702 71.0017 96.9744 71.1723 96.5737 71.3353L96.5375 71.3505L96.5025 71.3619C96.4096 71.396 96.3179 71.4301 96.2238 71.463C96.0146 71.5363 95.8038 71.6058 95.5914 71.6715C95.1908 71.7979 94.7853 71.9053 94.3775 72.0039L94.328 72.0166L94.1928 72.0456L93.8308 72.1202C93.5991 72.1674 93.3674 72.2095 93.1357 72.2466C92.6579 72.3249 92.1784 72.389 91.6973 72.4387C91.2162 72.4884 90.746 72.5238 90.2866 72.5448L90.1382 72.5524C90.3107 72.5436 90.0682 72.5524 90.0537 72.5524L89.8486 72.5587C90.1454 72.2251 90.4519 71.894 90.7512 71.5704C91.5678 70.7068 92.4173 69.8798 93.2998 69.0894C93.4205 68.982 93.2335 68.6686 93.1888 68.5991C93.0158 68.3547 92.801 68.146 92.5553 67.9836C92.3193 67.806 92.053 67.6773 91.7709 67.6044C91.5947 67.5703 91.4402 67.5513 91.2954 67.6828C90.0301 68.8172 88.8297 70.0288 87.7006 71.3113C87.4206 71.6281 87.1459 71.9496 86.8764 72.2756C86.7364 72.4182 86.6147 72.5792 86.5143 72.7547C86.3671 73.0731 86.4805 73.3701 86.6495 73.6533C86.7947 73.8751 86.9591 74.0824 87.1406 74.2725L87.6233 74.835L88.5127 75.8663C89.1877 76.6457 89.8618 77.4263 90.5352 78.2082C90.7505 78.4452 91.0027 78.6422 91.281 78.7909C91.4692 78.8945 91.7733 79.0436 91.9978 79.0272C92.1365 79.0171 92.3067 78.9792 92.297 78.7883C92.2862 78.5709 92.1209 78.375 91.9905 78.2246L90.0899 76.023L89.1595 74.9462L88.6768 74.3838C88.6225 74.3206 88.567 74.2574 88.5127 74.1929C88.5127 74.1929 88.5127 74.1853 88.5127 74.1815C88.526 74.1487 88.5417 74.117 88.5598 74.0868C90.6981 74.0135 92.8304 73.724 94.8891 73.0934C97.3834 72.335 99.739 71.0712 101.702 69.2765C103.353 67.7687 104.737 65.8262 105.466 63.6498C106.189 61.531 106.229 59.2227 105.581 57.0777C104.95 54.981 103.714 53.113 102.18 51.6267C100.485 49.9836 98.455 48.8221 96.2672 48.0562C91.4234 46.3576 86.1716 46.4132 81.1274 46.5788C80.4613 46.6003 79.8 46.6268 79.1315 46.6546L78.0044 46.7014L77.5048 46.7229L77.2562 46.733H77.1187H77.0535C75.7261 46.7873 74.3987 46.8366 73.0713 46.8594C70.4007 46.9036 67.723 46.8417 65.0694 46.5004C64.4113 46.4162 63.7568 46.3138 63.106 46.1933C62.884 46.1529 62.5618 46.2793 62.3687 46.3665C62.0805 46.4936 61.8165 46.6738 61.5891 46.8985C61.3478 47.145 61.0159 47.6354 61.5421 47.7314Z" fill="white"/>
<path d="M102.396 66.5127C102.396 66.5127 102.38 66.5381 102.356 66.5774L102.396 66.5127Z" fill="white"/>
<path d="M39.9681 95.4801L39.9838 95.4902L40.0562 95.5369C40.0864 95.5558 40.0779 95.5482 39.9355 95.46L39.9609 95.4789L39.9681 95.4801Z" fill="white"/>
<path d="M38.5486 94.2257L38.5788 94.2571C38.4774 94.1316 38.4702 94.1316 38.4907 94.1567L38.5281 94.2019L38.5486 94.2257Z" fill="white"/>
<path d="M78.7628 98.6851C77.9849 97.9267 77.2315 97.1415 76.5026 96.3292C76.3228 96.127 76.1406 95.9248 75.9668 95.7201L75.7086 95.4117L75.5879 95.2689L75.5782 95.2575C75.2259 94.8362 74.8803 94.4065 74.5416 93.9683C74.3574 93.7341 74.1381 93.5326 73.8924 93.3718C73.6522 93.2006 73.3832 93.0788 73.0996 93.0129C72.9681 92.9914 72.7014 92.9383 72.6277 93.1013C72.5541 93.2644 72.6555 93.4615 72.7484 93.5867C73.6221 94.7098 74.5396 95.7942 75.501 96.8398C71.8591 97.2156 68.2091 97.4852 64.551 97.6487C60.827 97.8172 57.1006 97.8732 53.3718 97.8168C51.5617 97.7903 49.7516 97.7561 47.9415 97.6462C47.4962 97.6196 47.0509 97.5868 46.6056 97.5438C46.4029 97.5236 46.2002 97.5021 46.0022 97.4781L45.8985 97.4654L45.8393 97.4579L45.4616 97.4048C44.5916 97.2805 43.7308 97.0939 42.8852 96.8461L42.5932 96.7564L42.5449 96.7413L42.44 96.7046C42.2553 96.6401 42.0707 96.5706 41.8885 96.4961C41.5549 96.3801 41.2318 96.2333 40.9231 96.0575C40.9605 96.0777 41.1644 96.1839 41.0136 96.103L40.9014 96.0436L40.6805 95.9172C40.5196 95.8237 40.3587 95.7259 40.1978 95.624C40.1508 95.5949 40.1037 95.5633 40.0579 95.533C40.0361 95.5204 39.9987 95.4963 39.9698 95.4761L39.8805 95.4167C39.9046 95.4306 39.9239 95.4433 39.942 95.4559C39.8056 95.3573 39.6705 95.2575 39.5377 95.1526C39.4629 95.0944 39.3893 95.035 39.3169 94.9744L39.1962 94.872L39.1118 94.7949L38.9066 94.5977C38.7944 94.4865 38.687 94.3702 38.5796 94.254L38.611 94.2944C38.5917 94.2691 38.5699 94.2464 38.5494 94.2224C38.5451 94.2185 38.5411 94.2143 38.5374 94.2097C38.5205 94.1908 38.5024 94.168 38.4915 94.1529C38.4372 94.0871 38.3829 94.0265 38.3298 93.9532C38.226 93.8217 38.1259 93.6865 38.0293 93.5475L37.969 93.4603C37.9243 93.3857 37.8761 93.3137 37.8326 93.2391C37.6482 92.9532 37.4913 92.6488 37.3644 92.3304C37.3584 92.3127 37.3523 92.2925 37.3475 92.2798C37.3246 92.2204 37.3017 92.161 37.2799 92.1016C37.2449 92.0068 37.2112 91.9108 37.1798 91.8134C37.1086 91.5973 37.0446 91.3774 36.9891 91.1562C36.8858 90.7358 36.8052 90.3097 36.7478 89.8797C36.7393 89.8165 36.7309 89.7534 36.7236 89.6889C36.7236 89.6889 36.7236 89.6485 36.7164 89.6282C36.7055 89.5309 36.6971 89.4336 36.6886 89.3363C36.6681 89.1063 36.6524 88.875 36.6416 88.6437C36.6186 88.2064 36.6102 87.7691 36.6102 87.3305C36.6102 85.6205 36.6826 83.889 37.0736 82.222C37.1621 81.8471 37.2671 81.4772 37.3885 81.1123C38.0273 79.3533 39.1367 77.8245 40.584 76.709C41.9143 75.7261 43.4056 75.0073 44.9838 74.5883C46.882 74.0663 48.8864 73.9386 50.8968 73.9437C52.0697 73.9437 53.2415 73.9993 54.412 74.0511C54.4918 74.0607 54.5721 74.0379 54.6363 73.9873C54.7005 73.9368 54.7438 73.8624 54.7571 73.7794C54.7837 73.5759 54.6172 73.3055 54.5049 73.1639C54.1622 72.7291 53.6252 72.3146 53.0665 72.2906C48.3602 72.082 43.205 71.9215 39.1395 74.8347C38.2577 75.451 37.4703 76.204 36.8045 77.068C36.1227 77.9953 35.6034 79.042 35.2707 80.1594C34.9216 81.3416 34.7109 82.5639 34.6432 83.7993C34.5579 85.0338 34.5475 86.2728 34.6118 87.5087C34.683 88.8156 34.8616 90.1414 35.3298 91.3635C35.7977 92.5584 36.4737 93.6517 37.3234 94.5876C38.9585 96.4316 41.1318 97.6854 43.4078 98.4298C45.8611 99.2311 48.4592 99.3992 51.0102 99.4889C53.6771 99.5816 56.3448 99.6165 59.0133 99.5938C64.3881 99.55 69.7553 99.277 75.1148 98.7748C75.6217 98.7268 76.1289 98.6766 76.6365 98.6244L73.3639 103.746C73.2709 103.891 73.417 104.125 73.4845 104.23C73.8573 104.699 74.3619 105.034 74.9266 105.186C75.0738 105.21 75.2995 105.253 75.3984 105.097L79.0512 99.3713C79.1936 99.1552 78.8907 98.8089 78.7628 98.6851Z" fill="white"/>
<path d="M46.0917 60.2988C48.5056 60.2988 50.8653 59.5491 52.8724 58.1445C54.8795 56.74 56.4438 54.7436 57.3676 52.4078C58.2914 50.0721 58.5331 47.5019 58.0621 45.0223C57.5912 42.5427 56.4288 40.2651 54.7219 38.4774C53.015 36.6897 50.8403 35.4722 48.4728 34.979C46.1052 34.4858 43.6512 34.7389 41.421 35.7064C39.1909 36.6739 37.2847 38.3123 35.9436 40.4144C34.6025 42.5165 33.8867 44.9879 33.8867 47.5161C33.8867 50.9063 35.1726 54.1576 37.4615 56.5548C39.7503 58.9521 42.8547 60.2988 46.0917 60.2988ZM39.445 44.431C39.48 44.1846 39.6863 43.9571 39.8746 43.8256C40.2929 43.5307 40.7016 43.2207 41.1006 42.8954C41.1899 42.8234 41.278 42.7488 41.3661 42.6742L41.4735 42.5833C41.6219 42.4291 41.7957 42.2951 41.9562 42.1485C42.2868 41.8393 42.6086 41.5187 42.9216 41.1867C43.5412 40.5221 44.1196 39.8167 44.6532 39.0748C44.7908 38.8839 45.066 38.7626 45.2759 38.688C45.4752 38.6155 45.6853 38.5812 45.8962 38.5869C46.1195 38.5802 46.3399 38.6412 46.5309 38.7626L46.6926 38.9193L46.7831 39.1165C46.8362 40.2657 46.8905 41.4146 46.9461 42.563C47.1464 46.5935 47.395 50.6227 47.8499 54.6316C47.9175 55.232 47.337 55.5758 46.8592 55.7135C46.5694 55.7943 46.2637 55.7882 45.977 55.6958C45.7997 55.6301 45.5305 55.457 45.5052 55.2307C45.3749 54.0882 45.2606 52.9444 45.1625 51.7993C44.8825 48.5904 44.7076 45.3739 44.5531 42.1561C43.5759 43.1633 42.511 44.0726 41.3721 44.8721C40.9099 45.1982 40.1968 45.3233 39.7032 44.9985C39.6129 44.9397 39.5405 44.8549 39.4947 44.7544C39.449 44.6538 39.4317 44.5416 39.445 44.431Z" fill="white"/>
<path d="M70.4987 60.1729C68.0853 60.1739 65.7263 60.9243 63.72 62.3294C61.7138 63.7344 60.1503 65.731 59.2274 68.0665C58.3044 70.4021 58.0635 72.9719 58.5349 75.4509C59.0063 77.9299 60.169 80.2069 61.8759 81.9939C63.5828 83.7809 65.7573 84.9977 68.1245 85.4905C70.4917 85.9833 72.9452 85.7299 75.1749 84.7623C77.4045 83.7948 79.3102 82.1565 80.651 80.0548C81.9917 77.953 82.7073 75.482 82.7073 72.9543C82.7073 71.2754 82.3915 69.6129 81.7779 68.0619C81.1643 66.5108 80.265 65.1016 79.1312 63.9147C77.9975 62.7277 76.6516 61.7864 75.1704 61.1443C73.6892 60.5023 72.1018 60.1722 70.4987 60.1729ZM76.5421 79.4708C76.4419 79.716 76.1571 79.9245 75.9387 80.0332C75.6507 80.1699 75.3346 80.2289 75.0192 80.2051C74.4086 80.1722 73.7976 80.1419 73.1861 80.1141C72.1226 80.0669 71.0599 80.0302 69.9979 80.0041C69.4557 79.9898 68.9139 79.9788 68.3725 79.9713L67.5905 79.9611H67.1693C67.103 79.9611 67.0342 79.9536 66.9678 79.9611H67.1066C67.2273 79.9611 66.9389 79.9611 66.9582 79.9611H66.9678C66.6058 79.9611 66.1907 79.9081 66.0121 79.5352C65.8335 79.1624 66.0857 78.7997 66.3645 78.5848C67.3154 77.8518 68.2651 77.1149 69.152 76.2972C69.8695 75.629 70.5168 74.8825 71.0828 74.0703C71.5302 73.3807 71.8889 72.6324 72.1496 71.8446C72.3752 71.086 72.4768 70.2929 72.45 69.4989C72.4219 69.0497 72.3228 68.6085 72.1568 68.1933C72.0535 68.0003 71.9261 67.8227 71.7779 67.665C71.6223 67.5339 71.4546 67.4196 71.2771 67.3238C71.075 67.2346 70.8664 67.1628 70.6532 67.1089C70.5434 67.0887 70.4336 67.071 70.3226 67.0609C70.2429 67.0521 70.1621 67.047 70.0812 67.0432C69.9197 67.0487 69.7586 67.0631 69.5985 67.0862C69.5321 67.1013 69.4658 67.1178 69.4006 67.1355C69.3354 67.1532 69.2437 67.181 69.1665 67.2075C69.0285 67.2657 68.8936 67.3316 68.7622 67.4047L68.7514 67.411C68.691 67.4514 68.6319 67.4936 68.574 67.5374C68.4871 67.6018 68.4038 67.6713 68.323 67.7421C67.857 68.184 67.5127 68.7488 67.3262 69.3776C67.2677 69.5913 67.2241 69.8093 67.1959 70.0297C67.1609 70.2964 66.9751 70.4973 66.782 70.6616C66.5241 70.8544 66.2206 70.9694 65.9047 70.994C65.4691 71.0459 64.7643 70.831 64.8391 70.2433C65.0962 68.2439 66.4984 66.5035 68.2892 65.7958C70.08 65.088 72.4307 65.0969 73.8921 66.5806C74.5027 67.2012 74.7368 68.115 74.7959 68.982C74.8566 69.849 74.7692 70.7204 74.5377 71.5552C74.0478 73.3006 73.1041 74.8412 71.907 76.1443C71.191 76.9119 70.4249 77.6265 69.6142 78.2827C71.6954 78.319 73.7758 78.3944 75.8555 78.509C76.1071 78.5217 76.3436 78.6385 76.5131 78.8338C76.6567 79.0133 76.6278 79.266 76.5421 79.4708Z" fill="white"/>
<path d="M69.0732 67.2422L69.0459 67.2496C69.0552 67.248 69.0644 67.2455 69.0732 67.2422Z" fill="white"/>
</svg>
