<svg width="141" height="141" viewBox="0 0 141 141" fill="none" xmlns="http://www.w3.org/2000/svg">
<circle cx="70.5" cy="70.5" r="70.5" fill="#2194BC"/>
<path d="M88.8399 99.2706C88.1273 98.5133 87.2299 97.9755 86.2455 97.7156C85.8839 97.6193 85.5146 97.5585 85.1423 97.534C86.251 96.7451 87.0317 95.544 87.326 94.1743C87.5554 93.1802 87.4954 92.137 87.1537 91.179C86.8404 90.3432 86.2876 89.6295 85.5714 89.1359C85.3692 89.0047 85.1572 88.8908 84.9374 88.7954C84.808 88.7493 84.669 88.741 84.5354 88.7716C84.4008 88.6436 84.2272 88.57 84.0455 88.5639C82.2422 88.4776 80.5137 89.4549 79.5264 91.0189C78.6161 92.4593 78.5565 94.4876 79.3487 95.9994C79.7421 96.7508 80.324 97.4261 81.0534 97.8302C80.1135 97.9622 79.2163 98.3234 78.434 98.8847C77.76 99.3608 77.1985 99.9916 76.7922 100.729C76.4042 101.451 76.2254 102.266 76.1419 103.084C76.1137 102.865 76.0823 102.647 76.0444 102.432C75.8406 101.275 75.418 100.12 74.6236 99.2649C73.911 98.5077 73.0136 97.9698 72.0292 97.7099C71.6664 97.6157 71.2959 97.5572 70.9227 97.5351C72.0315 96.7462 72.8122 95.5451 73.1064 94.1754C73.336 93.181 73.276 92.1373 72.9341 91.179C72.6216 90.344 72.0705 89.6305 71.3562 89.1359C71.154 89.0047 70.942 88.8908 70.7222 88.7954C70.5924 88.7495 70.453 88.7412 70.3191 88.7716C70.1851 88.6433 70.0117 88.5697 69.8303 88.5639C68.027 88.4776 66.2984 89.4549 65.3112 91.0189C64.4008 92.4593 64.3412 94.4876 65.1334 95.9994C65.5268 96.7508 66.1088 97.4261 66.8381 97.8302C65.8983 97.9622 65.0011 98.3234 64.2188 98.8847C63.5446 99.3626 62.9834 99.9953 62.578 100.735C62.1228 101.58 61.9549 102.551 61.8877 103.511C61.8877 103.536 61.8877 103.561 61.8877 103.586C61.8487 103.213 61.7999 102.84 61.7349 102.472C61.5322 101.316 61.1096 100.162 60.3152 99.3058C59.6025 98.5485 58.7051 98.0107 57.7207 97.7508C57.3592 97.6545 56.9898 97.5937 56.6175 97.5692C57.7263 96.7803 58.507 95.5791 58.8012 94.2095C59.0306 93.2161 58.9702 92.1735 58.6278 91.2164C58.3149 90.3807 57.7626 89.667 57.0467 89.1734C56.8447 89.0417 56.6326 88.9278 56.4127 88.8329C56.2831 88.7855 56.1434 88.7773 56.0095 88.809C55.8758 88.6804 55.7023 88.6063 55.5208 88.6002C53.7175 88.5139 51.9889 89.4912 51.0016 91.0552C50.0913 92.4956 50.0317 94.5239 50.8239 96.0357C51.2173 96.7871 51.7993 97.4625 52.5286 97.8665C51.5846 97.9982 50.6835 98.361 49.8984 98.9255C49.2244 99.402 48.6626 100.033 48.2555 100.77C47.8014 101.616 47.6334 102.586 47.5652 103.546C47.4893 104.623 47.473 105.703 47.4568 106.786C47.4358 107.889 47.4311 108.992 47.4427 110.094C47.4427 110.382 47.4492 110.641 47.6139 110.889C47.8014 111.165 48.1688 111.26 48.4711 111.288C48.7161 111.312 48.9686 111.295 49.2146 111.295H50.0068H53.1702H59.4699H60.2686C60.6902 111.295 61.322 111.138 61.4358 110.627C61.5626 110.059 61.6644 109.491 61.7468 108.924C61.7468 109.302 61.7468 109.68 61.7468 110.059C61.7468 110.346 61.7533 110.606 61.918 110.854C62.1055 111.129 62.4729 111.225 62.7752 111.253C63.0202 111.276 63.2727 111.26 63.5187 111.26H64.3163H67.4808H73.7794H74.5781C74.9997 111.26 75.6315 111.103 75.7453 110.59C75.8276 110.225 75.8992 109.856 75.962 109.486C75.962 109.675 75.962 109.865 75.962 110.053C75.962 110.34 75.9685 110.6 76.1333 110.848C76.3207 111.124 76.6881 111.219 76.9905 111.247C77.2354 111.27 77.4879 111.254 77.7339 111.254H78.5315H81.696H87.9946H88.8042C89.2257 111.254 89.8576 111.098 89.9714 110.585C90.2733 109.239 90.4486 107.865 90.4948 106.484C90.5554 105.127 90.4765 103.767 90.2596 102.427C90.057 101.281 89.6354 100.125 88.8399 99.2706Z" fill="white"/>
<path d="M109.404 44.7162C109.27 44.4191 109.105 44.1382 108.912 43.8785C108.793 43.7287 108.676 43.5528 108.479 43.538C105.838 43.4155 103.194 43.3417 100.551 43.2951C97.6489 43.2429 94.7456 43.2248 91.8434 43.2236C88.7916 43.2236 85.7399 43.241 82.6881 43.2758C79.5995 43.3076 76.5105 43.3489 73.4211 43.3996C70.4062 43.4457 67.3913 43.4938 64.3764 43.5437L63.2926 43.5607C60.6194 43.5199 57.9488 43.4718 55.2807 43.4166C52.9853 43.3712 50.6903 43.3281 48.3957 43.2872C46.2998 43.2543 44.2028 43.2293 42.1101 43.2248C40.0175 43.2202 37.9269 43.2361 35.8364 43.277C33.5563 43.3224 31.2765 43.3958 28.997 43.4972C28.6914 43.5097 28.3858 43.5244 28.0813 43.538C28.0457 43.5756 28.0205 43.6226 28.0083 43.6739C27.9961 43.7252 27.9974 43.7791 28.0119 43.8297C28.4454 48.6275 28.6687 53.4445 28.7619 58.2616C28.8529 63.0582 28.8193 67.8571 28.7489 72.6526C28.7099 75.3471 28.6589 78.0394 28.6123 80.7328C28.6123 81.0018 28.7283 81.2901 28.8139 81.5342C28.9336 81.8827 29.0808 82.2202 29.2539 82.5432C29.3704 82.7644 29.5014 82.9768 29.6462 83.1788C29.7546 83.3207 29.8933 83.5136 30.0797 83.5136C31.2956 83.5136 32.5116 83.5136 33.7275 83.5284C34.2217 83.5284 34.7159 83.5397 35.2111 83.542C36.1366 83.5466 37.0621 83.5492 37.9876 83.55C38.1339 83.55 38.0093 82.9677 38.0126 82.9824C37.9218 82.5891 37.7876 82.2082 37.6127 81.8474C37.4556 81.478 37.2573 81.1294 37.022 80.8089C36.9061 80.6636 36.7836 80.4684 36.5885 80.4684C35.3726 80.4684 34.1567 80.4684 32.9407 80.4536C32.4465 80.4536 31.9513 80.4423 31.4571 80.44H30.2C30.2682 76.5423 30.3354 72.6446 30.3517 68.7492C30.3723 63.9549 30.317 59.1583 30.0959 54.3696C29.976 51.7772 29.8026 49.1889 29.5757 46.6049C31.8588 46.4982 34.1426 46.4184 36.4271 46.3654C38.5382 46.3162 40.65 46.2924 42.7625 46.2939C44.8491 46.2939 46.9349 46.3113 49.02 46.3461C51.273 46.379 53.525 46.4244 55.7781 46.4687C58.392 46.5209 61.006 46.5693 63.6199 46.614L64.6971 46.631C67.6955 46.5848 70.6938 46.5368 73.6921 46.4868C76.7785 46.4376 79.8646 46.3949 82.9503 46.3586C86.0122 46.323 89.0741 46.3018 92.136 46.295C95.0628 46.2905 97.9889 46.3083 100.914 46.3484C103.335 46.3847 105.756 46.4479 108.175 46.5379C107.89 50.4095 107.731 54.2913 107.656 58.1731C107.562 62.981 107.595 67.7913 107.666 72.5981C107.704 75.2087 107.753 77.826 107.798 80.4389C105.959 80.4389 104.121 80.4411 102.282 80.4457L93.9664 80.4536L84.7309 80.4604L76.2063 80.4672L70.209 80.474H69.7311C69.4298 80.474 70.0497 82.0529 70.106 82.1766C70.2627 82.5462 70.461 82.8948 70.6967 83.2151C70.8115 83.3604 70.9351 83.5556 71.1301 83.5556C72.9927 83.5556 74.856 83.5534 76.72 83.5488L85.0365 83.542L94.272 83.5341L102.797 83.5273C104.795 83.5273 106.794 83.525 108.793 83.5205H109.273C109.309 83.4829 109.334 83.436 109.346 83.3846C109.358 83.3333 109.357 83.2794 109.342 83.2288C109.259 78.4344 109.162 73.6401 109.141 68.8446C109.12 64.0877 109.171 59.3104 109.39 54.5773C109.514 51.8873 109.694 49.2011 109.932 46.5186C109.995 45.9125 109.658 45.2326 109.404 44.7162Z" fill="white"/>
<path d="M55.0749 61.9583C55.7983 62.2971 56.5781 62.4845 57.3702 62.5099C58.1364 62.51 58.8964 62.367 59.6146 62.0877C60.8847 61.6268 62.0205 60.6938 62.8658 59.6156C63.7645 58.4671 64.3747 57.1015 64.6409 55.643C64.9314 54.0732 64.8187 52.3957 64.2074 50.919C63.6698 49.614 62.7617 48.514 61.6065 47.7682C61.2804 47.5722 60.9397 47.404 60.5878 47.2654C60.3839 47.1994 60.1667 47.1923 59.9592 47.2449C59.7335 47.0509 59.4514 46.9432 59.1594 46.9396C57.7716 46.9156 56.4021 47.2733 55.1876 47.977C54.5804 48.3182 54.0165 48.7376 53.5089 49.2255C52.9445 49.7834 52.4539 50.4178 52.0502 51.112C50.6847 53.4524 50.6999 56.6883 52.0383 59.0378C52.7481 60.2841 53.7842 61.3839 55.0749 61.9583Z" fill="white"/>
<path d="M103.73 53.6087C103.874 53.3433 103.913 53.0289 103.838 52.7336C103.667 52.1786 103.079 51.7348 102.505 51.9391C101.099 52.4642 99.5932 52.6296 98.1137 52.4215C97.6878 52.3534 97.2694 52.2581 96.8511 52.1457C96.3174 51.9831 95.7676 51.8852 95.2125 51.854C94.2914 51.8324 93.4699 52.224 92.6441 52.594C92.3302 52.7371 92.0035 52.847 91.6687 52.9221C91.5688 52.9294 91.4685 52.9294 91.3685 52.9221C91.2704 52.9001 91.1737 52.8713 91.0792 52.8358C90.7183 52.6542 90.3867 52.4136 90.0366 52.2104C89.5273 51.9141 88.9529 51.6803 88.3601 51.7019C87.7716 51.7388 87.2034 51.9407 86.715 52.2864C86.3934 52.5226 86.0598 52.7404 85.7158 52.9391C85.6396 52.9672 85.5618 52.9903 85.4828 53.0083C85.3778 53.0157 85.2725 53.0157 85.1675 53.0083C84.8867 52.9488 84.612 52.8614 84.3471 52.7473C83.6969 52.451 83.0791 52.0969 82.4116 51.8551C81.6183 51.568 80.774 51.5543 80.0176 51.9595C79.635 52.1639 79.3674 52.501 79.0661 52.7961C78.741 52.6133 78.4419 52.367 78.1005 52.2036C77.5939 51.9508 77.0488 51.7937 76.4901 51.7394C75.9578 51.6944 75.4244 51.8094 74.9523 52.0708C74.727 52.1958 74.5251 52.3623 74.3562 52.5622C74.2693 52.6701 74.1893 52.7838 74.1167 52.9028C74.0463 52.6732 73.9895 52.4393 73.9466 52.2024C73.9089 52.0585 73.8446 51.9238 73.7572 51.806C73.6699 51.6882 73.5612 51.5895 73.4374 51.5157C73.3135 51.442 73.1771 51.3945 73.0357 51.3759C72.8944 51.3574 72.7509 51.3683 72.6136 51.4079C72.024 51.6077 71.7347 52.1797 71.855 52.804C71.9319 53.2541 72.0695 53.6906 72.2635 54.1002C72.504 54.5801 72.8958 54.9579 73.3722 55.1694C73.6363 55.2936 73.9236 55.3541 74.213 55.3467C74.5024 55.3392 74.7865 55.2639 75.0444 55.1263C75.4486 54.9072 75.6589 54.5247 75.9027 54.1558C75.9255 54.1297 75.9482 54.1036 75.9731 54.0786L76.0317 54.0423C76.0761 54.0287 76.1216 54.0162 76.166 54.006C76.2617 53.9998 76.3576 53.9998 76.4532 54.006C76.6475 54.044 76.8383 54.0998 77.0233 54.1728C77.2327 54.2791 77.4347 54.4004 77.628 54.5361C78 54.8114 78.4269 54.9946 78.8764 55.0718C79.479 55.1569 79.9959 54.9265 80.4522 54.5327C80.6407 54.3692 80.799 54.1717 80.98 54.0003C81.0125 53.9776 81.0471 53.9561 81.0818 53.9368C81.1165 53.9175 81.1501 53.9163 81.1902 53.9073C81.2541 53.9073 81.317 53.9073 81.3809 53.9073C81.6164 53.9611 81.8467 54.0371 82.0691 54.1343C82.7789 54.46 83.4628 54.8595 84.2062 55.0968C84.6214 55.2382 85.0574 55.3012 85.4937 55.2829C86.046 55.2448 86.5815 55.0685 87.0553 54.7687C87.4357 54.5327 87.7836 54.2398 88.1802 54.0332C88.2396 54.0118 88.3 53.9936 88.3612 53.9788H88.4793C88.5595 53.9992 88.6386 54.0242 88.7167 54.0525C89.0418 54.2182 89.3441 54.4305 89.6573 54.62C89.9009 54.766 90.1544 54.8927 90.416 54.9991C90.677 55.0976 90.9491 55.1602 91.2255 55.1853C92.1748 55.3045 93.0678 54.8561 93.9218 54.4725C94.242 54.327 94.5753 54.2152 94.9167 54.1388C95.0971 54.1249 95.2784 54.1271 95.4585 54.1456C95.8855 54.2239 96.3017 54.3556 96.7254 54.4577C97.2715 54.5858 97.825 54.676 98.3824 54.7279C99.4209 54.8187 100.466 54.763 101.491 54.5622C102.026 54.4618 102.554 54.3176 103.068 54.1309C103.343 54.0488 103.579 53.8627 103.73 53.6087Z" fill="white"/>
<path d="M89.1049 60.9428C89.5619 61.0855 90.0285 61.1917 90.5007 61.2606C90.7551 61.3005 91.0119 61.3217 91.2691 61.3242C91.5939 61.3169 91.9176 61.2816 92.2369 61.2186C92.7885 61.121 93.3206 60.9485 93.8776 60.8554C94.9223 60.7419 95.9725 60.8554 97.0107 60.9973C98.7717 61.2482 100.566 61.5319 102.31 61.0041C102.582 60.9216 102.814 60.7352 102.96 60.482C103.106 60.2168 103.145 59.9021 103.069 59.6069C102.89 59.028 102.319 58.6376 101.736 58.8124C101.487 58.8873 101.233 58.946 100.977 58.9883C99.9617 59.1018 98.9408 58.9883 97.9308 58.8544C96.8871 58.7046 95.8381 58.532 94.788 58.532C94.2002 58.5343 93.6141 58.5963 93.0377 58.717C92.5771 58.8113 92.1252 58.9497 91.6636 59.0326C91.3753 59.063 91.0848 59.063 90.7966 59.0326C89.8353 58.8703 88.9282 58.481 87.9897 58.2222C87.4502 58.0626 86.8933 57.9768 86.3327 57.9668C85.7034 57.9677 85.0834 58.1269 84.5251 58.431C84.0558 58.6853 83.6808 59.0939 83.2116 59.3459C83.1791 59.3561 83.1476 59.3663 83.1151 59.3742C83.0826 59.3822 83.049 59.3742 83.0165 59.3742C82.797 59.3188 82.5826 59.2428 82.376 59.1472C81.5643 58.7874 80.7385 58.4435 79.8596 58.3164C79.288 58.2185 78.7043 58.227 78.1354 58.3414C77.5833 58.474 77.0708 58.7468 76.6431 59.1359C76.39 59.3805 76.1562 59.6462 75.9441 59.9304C75.8932 59.7716 75.8066 59.6279 75.6916 59.5116C75.4877 59.2991 75.2119 59.1796 74.9243 59.179L74.6371 59.2199C74.456 59.272 74.291 59.3725 74.1581 59.5116C73.9198 59.7252 73.7572 60.0167 73.6965 60.339C73.6428 60.5982 73.6428 60.8664 73.6965 61.1256C73.7309 61.2831 73.7837 61.4355 73.8536 61.5796C74.1321 62.2345 74.8192 62.6272 75.4879 62.6204C76.1565 62.6136 76.8078 62.2481 77.2803 61.7487C77.5784 61.4343 77.8168 61.0677 78.1354 60.7692C78.215 60.7144 78.2975 60.6644 78.3825 60.6194C78.4983 60.5768 78.6167 60.5427 78.7369 60.5172C78.9689 60.4977 79.2022 60.5004 79.4337 60.5251C80.1364 60.6642 80.8215 60.8873 81.4755 61.1903C81.8385 61.3548 82.2037 61.5308 82.596 61.5853C82.9265 61.6451 83.2646 61.6424 83.5941 61.5773C83.82 61.523 84.0385 61.4391 84.2444 61.3276C84.7678 61.0688 85.172 60.6137 85.6912 60.3447C85.8077 60.303 85.9268 60.2697 86.0477 60.2448C86.2747 60.2253 86.5029 60.228 86.7294 60.2527C87.5465 60.3923 88.3203 60.7011 89.1049 60.9428Z" fill="white"/>
<path d="M87.0494 67.4383C87.2509 67.6392 87.4977 67.7833 87.7668 67.8574C88.0359 67.9314 88.3185 67.9329 88.5883 67.8617C88.9804 67.7443 89.3266 67.499 89.5766 67.1614C89.7359 66.9503 89.8681 66.7233 90.0101 66.5031C90.2431 66.6518 90.4566 66.8368 90.6864 66.99C91.1703 67.3064 91.7284 67.4765 92.2989 67.4815C93.2028 67.5008 94.0557 67.141 94.9356 66.9877C95.5703 66.926 96.2096 66.9416 96.8408 67.0343C98.8013 67.3339 100.773 67.9423 102.746 67.3941C103.018 67.3125 103.25 67.1259 103.396 66.872C103.505 66.677 103.556 66.4525 103.543 66.227C103.529 66.0015 103.452 65.7854 103.32 65.6064C103.189 65.4273 103.009 65.2934 102.804 65.2219C102.6 65.1503 102.38 65.1443 102.172 65.2046C101.997 65.2521 101.819 65.29 101.641 65.3181C101.044 65.3728 100.444 65.3576 99.8503 65.2727C98.9899 65.1433 98.1402 64.947 97.2787 64.8187C96.7449 64.7316 96.2062 64.6823 95.6661 64.6712C95.1345 64.6709 94.6044 64.7303 94.0849 64.8482C93.6092 64.9538 93.1432 65.1025 92.6631 65.1887C92.5025 65.2063 92.3408 65.2097 92.1797 65.1989C92.1115 65.1842 92.0453 65.1649 91.9792 65.1433C91.7438 65.0016 91.5172 64.8442 91.3008 64.6723C90.9273 64.3885 90.4887 64.2134 90.0296 64.1649C89.4964 64.1127 88.9567 64.3692 88.5839 64.7586C88.4549 64.8978 88.3391 65.0498 88.2382 65.2126C88.1599 65.1609 88.0744 65.1226 87.9846 65.0991C87.8452 65.0596 87.6998 65.0494 87.5566 65.0688C87.4134 65.0883 87.2753 65.1372 87.1502 65.2126L86.9334 65.3896C86.8006 65.5288 86.7047 65.7016 86.6549 65.8913C86.5668 66.165 86.563 66.4608 86.6441 66.7369C86.7177 67.0041 86.8575 67.2461 87.0494 67.4383Z" fill="white"/>
<path d="M46.6102 81.325C46.4552 80.9743 46.1886 80.3761 46.22 79.9902C46.2471 79.6497 46.3078 79.5793 46.4725 79.2887C47.6234 77.2729 48.3311 75.256 49.4777 73.2447C48.8795 76.6158 49.1049 80.2104 49.0756 83.6734H66.6775C66.5572 79.6542 66.8054 75.1709 66.6049 71.2528C68.1991 72.8906 69.078 74.7146 70.2896 76.6805C71.007 77.8461 71.784 79.1684 73.0693 79.5044C74.4511 79.8665 75.8101 78.9369 76.9567 78.047L83.1848 73.2379C83.1848 73.2379 88.1039 69.0985 85.0694 66.3767C85.0694 66.3767 83.4655 63.3825 79.4341 67.4652L74.3405 72.5013C74.3405 72.5013 70.0793 64.8717 66.697 64.8047L51.2323 64.8104C49.7074 64.7354 48.0136 65.5027 46.8919 66.5867C45.7703 67.6706 45.0659 68.7126 44.3094 70.1053C42.9092 72.6772 41.651 75.5636 40.5467 78.2933C40.33 78.8268 40.1132 79.3852 40.1447 79.963C40.1717 80.51 40.4112 81.0174 40.6464 81.5066C40.9715 82.1955 41.3703 82.9492 41.7301 83.6688H47.7882C47.4067 82.9322 47.0285 82.2727 46.6102 81.325Z" fill="white"/>
</svg>
